NunitoSans-XmaxLight.ufo
<glyph name="exclam" format="2">
  <advance width="219.46987951807228"/>
  <unicode hex="0021"/>
  <outline>
    <contour>
      <point x="90.62650602409639" y="172.75903614457832" type="line"/>
      <point x="128.8433734939759" y="172.75903614457832" type="line"/>
      <point x="147.79518072289156" y="705.0" type="line"/>
      <point x="71.67469879518072" y="705.0" type="line"/>
    </contour>
    <contour>
      <point x="67.10843373493977" y="0.0" type="line"/>
      <point x="152.36144578313252" y="0.0" type="line"/>
      <point x="152.36144578313252" y="85.79518072289156" type="line"/>
      <point x="67.10843373493977" y="85.79518072289156" type="line"/>
    </contour>
  </outline>
</glyph>
<glyph name="asterisk" format="2">
  <advance width="448.9156626506024"/>
  <unicode hex="002A"/>
  <outline>
    <contour>
      <point x="150.34939759036143" y="385.3614457831325" type="line"/>
      <point x="228.6024096385542" y="530.6746987951808" type="line"/>
      <point x="220.5421686746988" y="530.6746987951808" type="line"/>
      <point x="297.7951807228916" y="386.13253012048193" type="line"/>
      <point x="340.6385542168675" y="410.855421686747" type="line"/>
      <point x="252.95180722891567" y="553.4819277108434" type="line"/>
      <point x="244.43373493975903" y="542.1325301204819" type="line"/>
      <point x="414.28915662650604" y="536.9879518072289" type="line"/>
      <point x="414.28915662650604" y="586.9759036144578" type="line"/>
      <point x="244.43373493975903" y="581.6024096385543" type="line"/>
      <point x="252.95180722891567" y="571.2530120481928" type="line"/>
      <point x="340.6385542168675" y="713.6506024096385" type="line"/>
      <point x="297.7951807228916" y="738.6024096385543" type="line"/>
      <point x="220.5421686746988" y="593.5180722891566" type="line"/>
      <point x="228.6024096385542" y="593.5180722891566" type="line"/>
      <point x="150.57831325301206" y="738.6024096385543" type="line"/>
      <point x="107.73493975903614" y="713.8795180722891" type="line"/>
      <point x="196.19277108433735" y="571.0240963855422" type="line"/>
      <point x="203.93975903614458" y="581.6024096385543" type="line"/>
      <point x="34.855421686746986" y="586.9759036144578" type="line"/>
      <point x="34.855421686746986" y="536.9879518072289" type="line"/>
      <point x="203.93975903614458" y="542.1325301204819" type="line"/>
      <point x="195.96385542168676" y="553.4819277108434" type="line"/>
      <point x="107.50602409638554" y="410.855421686747" type="line"/>
    </contour>
  </outline>
</glyph>
<glyph name="hyphen" format="2">
  <advance width="420.12048192771084"/>
  <unicode hex="002D"/>
  <outline>
    <contour>
      <point x="74.16867469879519" y="264.5903614457832" type="line"/>
      <point x="345.95180722891564" y="264.5903614457832" type="line"/>
      <point x="345.95180722891564" y="316.7831325301205" type="line"/>
      <point x="74.16867469879519" y="316.7831325301205" type="line"/>
    </contour>
  </outline>
</glyph>
<glyph name="three" format="2">
  <advance width="600.0"/>
  <unicode hex="0033"/>
  <outline>
    <contour>
      <point x="294.48192771084337" y="-8.457831325301205" type="curve" smooth="yes"/>
      <point x="436.28915662650604" y="-8.457831325301205"/>
      <point x="523.2650602409639" y="68.0"/>
      <point x="523.2650602409639" y="189.14457831325302" type="curve" smooth="yes"/>
      <point x="523.2650602409639" y="284.9156626506024"/>
      <point x="467.26506024096386" y="351.144578313253"/>
      <point x="368.95180722891564" y="368.68674698795184" type="curve"/>
      <point x="368.95180722891564" y="358.2289156626506" type="line"/>
      <point x="452.26506024096386" y="379.7710843373494"/>
      <point x="503.8072289156627" y="447.855421686747"/>
      <point x="503.8072289156627" y="534.9397590361446" type="curve" smooth="yes"/>
      <point x="503.8072289156627" y="646.5421686746988"/>
      <point x="425.51807228915663" y="713.4578313253012"/>
      <point x="293.3975903614458" y="713.4578313253012" type="curve" smooth="yes"/>
      <point x="206.25301204819277" y="713.4578313253012"/>
      <point x="121.87951807228916" y="679.3734939759037"/>
      <point x="70.50602409638554" y="622.5180722891566" type="curve"/>
      <point x="95.5421686746988" y="572.7831325301205" type="line"/>
      <point x="151.85542168674698" y="630.2650602409639"/>
      <point x="214.710843373494" y="657.1204819277109"/>
      <point x="290.87951807228916" y="657.1204819277109" type="curve" smooth="yes"/>
      <point x="387.1566265060241" y="657.1204819277109"/>
      <point x="441.49397590361446" y="611.7831325301205"/>
      <point x="441.49397590361446" y="531.5060240963855" type="curve" smooth="yes"/>
      <point x="441.49397590361446" y="440.8313253012048"/>
      <point x="379.8433734939759" y="385.09638554216866"/>
      <point x="283.2530120481928" y="385.09638554216866" type="curve" smooth="yes"/>
      <point x="187.65060240963857" y="385.09638554216866" type="line"/>
      <point x="187.65060240963857" y="330.7590361445783" type="line"/>
      <point x="287.5421686746988" y="330.7590361445783" type="line" smooth="yes"/>
      <point x="400.30120481927713" y="330.7590361445783"/>
      <point x="460.95180722891564" y="283.33734939759034"/>
      <point x="460.95180722891564" y="191.66265060240963" type="curve" smooth="yes"/>
      <point x="460.95180722891564" y="98.75903614457832"/>
      <point x="401.6144578313253" y="47.87951807228916"/>
      <point x="293.56626506024094" y="47.87951807228916" type="curve" smooth="yes"/>
      <point x="215.16867469879517" y="47.87951807228916"/>
      <point x="149.3975903614458" y="71.42168674698794"/>
      <point x="83.5421686746988" y="127.13253012048193" type="curve"/>
      <point x="58.506024096385545" y="76.93975903614458" type="line"/>
      <point x="117.04819277108433" y="21.542168674698797"/>
      <point x="203.10843373493975" y="-8.457831325301205"/>
    </contour>
  </outline>
</glyph>
<glyph name="six" format="2">
  <advance width="600.0"/>
  <unicode hex="0036"/>
  <outline>
    <contour>
      <point x="323.68674698795184" y="-8.457831325301205" type="curve" smooth="yes"/>
      <point x="452.2048192771084" y="-8.457831325301205"/>
      <point x="543.5783132530121" y="85.91566265060241"/>
      <point x="543.5783132530121" y="216.74698795180723" type="curve" smooth="yes"/>
      <point x="543.5783132530121" y="346.2048192771084"/>
      <point x="455.578313253012" y="438.12048192771084"/>
      <point x="329.1807228915663" y="438.12048192771084" type="curve" smooth="yes"/>
      <point x="218.0722891566265" y="438.12048192771084"/>
      <point x="133.81927710843374" y="363.0120481927711"/>
      <point x="122.67469879518072" y="243.50602409638554" type="curve"/>
      <point x="130.04819277108433" y="243.50602409638554" type="line"/>
      <point x="130.04819277108433" y="345.49397590361446" type="line" smooth="yes"/>
      <point x="130.04819277108433" y="551.9879518072289"/>
      <point x="207.6987951807229" y="657.1204819277109"/>
      <point x="344.51807228915663" y="657.1204819277109" type="curve" smooth="yes"/>
      <point x="406.3734939759036" y="657.1204819277109"/>
      <point x="467.4578313253012" y="630.4939759036145"/>
      <point x="516.4578313253012" y="576.2409638554217" type="curve"/>
      <point x="541.4939759036145" y="625.9759036144578" type="line"/>
      <point x="496.43373493975906" y="679.0602409638554"/>
      <point x="416.66265060240966" y="713.4578313253012"/>
      <point x="345.7469879518072" y="713.4578313253012" type="curve" smooth="yes"/>
      <point x="171.93975903614458" y="713.4578313253012"/>
      <point x="68.96385542168674" y="578.2289156626506"/>
      <point x="68.96385542168674" y="333.06024096385545" type="curve" smooth="yes"/>
      <point x="68.96385542168674" y="117.2289156626506"/>
      <point x="160.25301204819277" y="-8.457831325301205"/>
    </contour>
    <contour>
      <point x="319.0" y="46.506024096385545" type="curve" smooth="yes"/>
      <point x="222.32530120481928" y="46.506024096385545"/>
      <point x="155.59036144578312" y="115.46987951807229"/>
      <point x="155.59036144578312" y="214.83132530120483" type="curve" smooth="yes"/>
      <point x="155.59036144578312" y="314.1927710843373"/>
      <point x="222.32530120481928" y="383.3855421686747"/>
      <point x="319.0" y="383.3855421686747" type="curve" smooth="yes"/>
      <point x="415.67469879518075" y="383.3855421686747"/>
      <point x="482.4096385542169" y="314.1927710843373"/>
      <point x="482.4096385542169" y="214.83132530120483" type="curve" smooth="yes"/>
      <point x="482.4096385542169" y="115.46987951807229"/>
      <point x="415.67469879518075" y="46.506024096385545"/>
    </contour>
  </outline>
</glyph>
<glyph name="colon" format="2">
  <advance width="219.46987951807228"/>
  <unicode hex="003A"/>
  <outline>
    <contour>
      <point x="67.10843373493977" y="449.578313253012" type="line"/>
      <point x="152.36144578313252" y="449.578313253012" type="line"/>
      <point x="152.36144578313252" y="535.1445783132531" type="line"/>
      <point x="67.10843373493977" y="535.1445783132531" type="line"/>
    </contour>
    <contour>
      <point x="67.10843373493977" y="0.0" type="line"/>
      <point x="152.36144578313252" y="0.0" type="line"/>
      <point x="152.36144578313252" y="85.79518072289156" type="line"/>
      <point x="67.10843373493977" y="85.79518072289156" type="line"/>
    </contour>
  </outline>
</glyph>
<glyph name="L" format="2">
  <advance width="535.0120481927711"/>
  <unicode hex="004C"/>
  <anchor x="306.144578313253" y="0.0" name="bottom"/>
  <anchor x="166.95180722891567" y="387.0" name="center"/>
  <anchor x="393.3855421686747" y="387.8313253012048" name="dot"/>
  <anchor x="122.49397590361446" y="705.0" name="top"/>
  <anchor x="271.67469879518075" y="705.0" name="topright"/>
  <outline>
    <contour>
      <point x="91.65060240963855" y="0.0" type="line"/>
      <point x="520.6385542168674" y="0.0" type="line"/>
      <point x="520.6385542168674" y="55.024096385542165" type="line"/>
      <point x="153.33734939759037" y="55.024096385542165" type="line"/>
      <point x="153.33734939759037" y="705.0" type="line"/>
      <point x="91.65060240963855" y="705.0" type="line"/>
    </contour>
  </outline>
</glyph>
<glyph name="N" format="2">
  <advance width="735.6626506024096"/>
  <unicode hex="004E"/>
  <anchor x="367.8313253012048" y="0.0" name="bottom"/>
  <anchor x="367.8313253012048" y="705.0" name="top"/>
  <outline>
    <contour>
      <point x="91.65060240963855" y="0.0" type="line"/>
      <point x="148.96385542168676" y="0.0" type="line"/>
      <point x="148.96385542168676" y="631.8674698795181" type="line"/>
      <point x="127.04819277108433" y="631.8674698795181" type="line"/>
      <point x="596.0481927710844" y="0.0" type="line"/>
      <point x="644.0120481927711" y="0.0" type="line"/>
      <point x="644.0120481927711" y="705.0" type="line"/>
      <point x="586.6987951807229" y="705.0" type="line"/>
      <point x="586.6987951807229" y="73.36144578313252" type="line"/>
      <point x="609.6144578313254" y="73.36144578313252" type="line"/>
      <point x="140.6144578313253" y="705.0" type="line"/>
      <point x="91.65060240963855" y="705.0" type="line"/>
    </contour>
  </outline>
</glyph>
<glyph name="P" format="2">
  <advance width="624.2409638554217"/>
  <unicode hex="0050"/>
  <anchor x="319.66265060240966" y="0.0" name="bottom"/>
  <anchor x="319.66265060240966" y="705.0" name="top"/>
  <outline>
    <contour>
      <point x="91.65060240963855" y="0.0" type="line"/>
      <point x="153.33734939759037" y="0.0" type="line"/>
      <point x="153.33734939759037" y="289.4457831325301" type="line"/>
      <point x="358.32530120481925" y="289.4457831325301" type="line" smooth="yes"/>
      <point x="507.9277108433735" y="289.4457831325301"/>
      <point x="590.3012048192771" y="364.50602409638554"/>
      <point x="590.3012048192771" y="497.33734939759034" type="curve" smooth="yes"/>
      <point x="590.3012048192771" y="630.1686746987951"/>
      <point x="507.9277108433735" y="705.0"/>
      <point x="358.32530120481925" y="705.0" type="curve" smooth="yes"/>
      <point x="91.65060240963855" y="705.0" type="line"/>
    </contour>
    <contour>
      <point x="153.33734939759037" y="342.6385542168675" type="line"/>
      <point x="153.33734939759037" y="651.8072289156627" type="line"/>
      <point x="352.9759036144578" y="651.8072289156627" type="line" smooth="yes"/>
      <point x="469.421686746988" y="651.8072289156627"/>
      <point x="527.9879518072289" y="598.6987951807229"/>
      <point x="527.9879518072289" y="497.33734939759034" type="curve" smooth="yes"/>
      <point x="527.9879518072289" y="395.9759036144578"/>
      <point x="469.421686746988" y="342.6385542168675"/>
      <point x="352.9759036144578" y="342.6385542168675" type="curve" smooth="yes"/>
    </contour>
  </outline>
</glyph>
<glyph name="U" format="2">
  <advance width="724.1204819277109"/>
  <unicode hex="0055"/>
  <anchor x="362.28915662650604" y="0.0" name="bottom"/>
  <anchor x="419.28915662650604" y="0.0" name="ogonek"/>
  <anchor x="362.28915662650604" y="705.0" name="top"/>
  <anchor x="584.566265060241" y="705.0" name="topright"/>
  <outline>
    <contour>
      <point x="362.28915662650604" y="-8.457831325301205" type="curve" smooth="yes"/>
      <point x="542.4096385542168" y="-8.457831325301205"/>
      <point x="637.4698795180723" y="90.4578313253012"/>
      <point x="637.4698795180723" y="275.12048192771084" type="curve" smooth="yes"/>
      <point x="637.4698795180723" y="705.0" type="line"/>
      <point x="576.0120481927711" y="705.0" type="line"/>
      <point x="576.0120481927711" y="279.9759036144578" type="line" smooth="yes"/>
      <point x="576.0120481927711" y="124.44578313253012"/>
      <point x="503.3614457831325" y="48.33734939759036"/>
      <point x="362.28915662650604" y="48.33734939759036" type="curve" smooth="yes"/>
      <point x="221.2168674698795" y="48.33734939759036"/>
      <point x="148.33734939759037" y="124.44578313253012"/>
      <point x="148.33734939759037" y="279.9759036144578" type="curve" smooth="yes"/>
      <point x="148.33734939759037" y="705.0" type="line"/>
      <point x="86.65060240963855" y="705.0" type="line"/>
      <point x="86.65060240963855" y="275.12048192771084" type="line" smooth="yes"/>
      <point x="86.65060240963855" y="90.4578313253012"/>
      <point x="182.16867469879517" y="-8.457831325301205"/>
    </contour>
  </outline>
</glyph>
<glyph name="W" format="2">
  <advance width="1096.0361445783133"/>
  <unicode hex="0057"/>
  <anchor x="548.5180722891566" y="0.0" name="bottom"/>
  <anchor x="547.7469879518072" y="705.0" name="top"/>
  <outline>
    <contour>
      <point x="279.48192771084337" y="0.0" type="line"/>
      <point x="335.3614457831325" y="0.0" type="line"/>
      <point x="558.2048192771084" y="641.4698795180723" type="line"/>
      <point x="537.5180722891566" y="641.4698795180723" type="line"/>
      <point x="759.1325301204819" y="0.0" type="line"/>
      <point x="816.5542168674699" y="0.0" type="line"/>
      <point x="1062.1566265060242" y="705.0" type="line"/>
      <point x="1000.3855421686746" y="705.0" type="line"/>
      <point x="772.3132530120482" y="43.72289156626506" type="line"/>
      <point x="801.9156626506024" y="43.72289156626506" type="line"/>
      <point x="574.0722891566265" y="705.0" type="line"/>
      <point x="522.2530120481928" y="705.0" type="line"/>
      <point x="292.8072289156627" y="43.72289156626506" type="line"/>
      <point x="325.09638554216866" y="43.72289156626506" type="line"/>
      <point x="98.48192771084337" y="705.0" type="line"/>
      <point x="34.33734939759036" y="705.0" type="line"/>
    </contour>
  </outline>
</glyph>
<glyph name="a" format="2">
  <advance width="521.5542168674699"/>
  <unicode hex="0061"/>
  <anchor x="264.9759036144578" y="0.0" name="bottom"/>
  <anchor x="435.34939759036143" y="0.0" name="ogonek"/>
  <anchor x="268.2048192771084" y="484.0" name="top"/>
  <outline>
    <contour>
      <point x="234.28313253012047" y="-9.343373493975903" type="curve" smooth="yes"/>
      <point x="318.9096385542169" y="-9.343373493975903"/>
      <point x="379.3072289156627" y="43.51204819277109"/>
      <point x="395.27710843373495" y="121.79518072289157" type="curve"/>
      <point x="384.96385542168673" y="121.79518072289157" type="line"/>
      <point x="384.96385542168673" y="0.0" type="line"/>
      <point x="443.3614457831325" y="0.0" type="line"/>
      <point x="443.3614457831325" y="356.99397590361446" type="line" smooth="yes"/>
      <point x="443.3614457831325" y="493.3975903614458"/>
      <point x="380.6144578313253" y="543.6024096385543"/>
      <point x="270.06024096385545" y="543.6024096385543" type="curve" smooth="yes"/>
      <point x="203.5421686746988" y="543.6024096385543"/>
      <point x="130.07831325301206" y="521.8012048192771"/>
      <point x="77.96385542168674" y="482.68674698795184" type="curve"/>
      <point x="102.855421686747" y="435.0120481927711" type="line"/>
      <point x="158.9698795180723" y="475.32530120481925"/>
      <point x="210.8012048192771" y="491.8975903614458"/>
      <point x="270.5421686746988" y="491.8975903614458" type="curve" smooth="yes"/>
      <point x="346.9096385542169" y="491.8975903614458"/>
      <point x="383.73493975903614" y="456.64457831325296"/>
      <point x="383.73493975903614" y="358.6265060240964" type="curve" smooth="yes"/>
      <point x="383.73493975903614" y="208.96987951807228" type="line" smooth="yes"/>
      <point x="383.73493975903614" y="105.52409638554218"/>
      <point x="322.3975903614458" y="41.33132530120482"/>
      <point x="243.00602409638554" y="41.33132530120482" type="curve" smooth="yes"/>
      <point x="170.0421686746988" y="41.33132530120482"/>
      <point x="122.70481927710843" y="86.01204819277109"/>
      <point x="122.70481927710843" y="155.63253012048193" type="curve" smooth="yes"/>
      <point x="122.70481927710843" y="234.45180722891564"/>
      <point x="170.41566265060243" y="259.5361445783132"/>
      <point x="361.27710843373495" y="259.5361445783132" type="curve" smooth="yes"/>
      <point x="395.65060240963857" y="259.5361445783132" type="line"/>
      <point x="395.65060240963857" y="306.3493975903615" type="line"/>
      <point x="359.933734939759" y="306.3493975903615" type="line" smooth="yes"/>
      <point x="126.68072289156626" y="306.3493975903615"/>
      <point x="59.19277108433735" y="264.83132530120486"/>
      <point x="59.19277108433735" y="153.289156626506" type="curve" smooth="yes"/>
      <point x="59.19277108433735" y="58.83132530120482"/>
      <point x="132.53614457831324" y="-9.343373493975903"/>
    </contour>
  </outline>
</glyph>
<glyph name="c" format="2">
  <advance width="458.89156626506025"/>
  <unicode hex="0063"/>
  <anchor x="275.28915662650604" y="0.0" name="bottom"/>
  <anchor x="275.28915662650604" y="484.0" name="top"/>
  <outline>
    <contour>
      <point x="277.89156626506025" y="-8.457831325301205" type="curve" smooth="yes"/>
      <point x="336.37951807228916" y="-8.457831325301205"/>
      <point x="399.2951807228916" y="15.198795180722891"/>
      <point x="440.4096385542169" y="65.02409638554217" type="curve"/>
      <point x="412.289156626506" y="107.7289156626506" type="line"/>
      <point x="372.77710843373495" y="61.59036144578313"/>
      <point x="323.15060240963857" y="44.16265060240964"/>
      <point x="279.86746987951807" y="44.16265060240964" type="curve" smooth="yes"/>
      <point x="176.59036144578315" y="44.16265060240964"/>
      <point x="112.13855421686746" y="121.355421686747"/>
      <point x="112.13855421686746" y="271.1144578313253" type="curve" smooth="yes"/>
      <point x="112.13855421686746" y="421.21686746987956"/>
      <point x="176.59036144578315" y="491.09638554216866"/>
      <point x="279.86746987951807" y="491.09638554216866" type="curve" smooth="yes"/>
      <point x="328.6927710843373" y="491.09638554216866"/>
      <point x="374.54819277108436" y="470.8975903614458"/>
      <point x="412.289156626506" y="427.644578313253" type="curve"/>
      <point x="440.4096385542169" y="470.12048192771084" type="line"/>
      <point x="401.9518072289157" y="516.632530120482"/>
      <point x="341.6927710843374" y="543.6024096385543"/>
      <point x="277.00602409638554" y="543.6024096385543" type="curve" smooth="yes"/>
      <point x="143.7710843373494" y="543.6024096385543"/>
      <point x="49.566265060240966" y="455.0"/>
      <point x="49.566265060240966" y="272.2289156626506" type="curve" smooth="yes"/>
      <point x="49.566265060240966" y="91.0"/>
      <point x="139.34337349397592" y="-8.457831325301205"/>
    </contour>
  </outline>
</glyph>
<glyph name="e" format="2">
  <advance width="527.3493975903615"/>
  <unicode hex="0065"/>
  <anchor x="278.6024096385542" y="0.0" name="bottom"/>
  <anchor x="348.6385542168675" y="0.0" name="ogonek"/>
  <anchor x="278.6024096385542" y="484.0" name="top"/>
  <outline>
    <contour>
      <point x="292.9216867469879" y="-8.457831325301205" type="curve" smooth="yes"/>
      <point x="361.26506024096386" y="-8.457831325301205"/>
      <point x="432.0963855421687" y="16.542168674698793"/>
      <point x="476.7831325301205" y="69.16867469879519" type="curve"/>
      <point x="450.00602409638554" y="110.8433734939759" type="line"/>
      <point x="402.8072289156626" y="62.13253012048193"/>
      <point x="348.34939759036143" y="43.59036144578313"/>
      <point x="292.72289156626505" y="43.59036144578313" type="curve" smooth="yes"/>
      <point x="180.8433734939759" y="43.59036144578313"/>
      <point x="109.96385542168674" y="114.01204819277109"/>
      <point x="109.96385542168674" y="265.80120481927713" type="curve" smooth="yes"/>
      <point x="109.96385542168674" y="272.06024096385545" type="line" smooth="yes"/>
      <point x="109.96385542168674" y="412.87951807228916"/>
      <point x="175.6144578313253" y="494.04216867469876"/>
      <point x="279.51807228915663" y="494.04216867469876" type="curve" smooth="yes"/>
      <point x="377.53614457831327" y="494.04216867469876"/>
      <point x="428.44578313253015" y="425.73493975903614"/>
      <point x="428.44578313253015" y="287.63253012048193" type="curve"/>
      <point x="445.4457831325301" y="302.12048192771084" type="line"/>
      <point x="93.50602409638554" y="302.12048192771084" type="line"/>
      <point x="93.50602409638554" y="255.30722891566265" type="line"/>
      <point x="482.5542168674699" y="255.30722891566265" type="line"/>
      <point x="482.5542168674699" y="285.8253012048193" type="line" smooth="yes"/>
      <point x="482.5542168674699" y="451.3975903614458"/>
      <point x="407.26506024096386" y="543.6024096385543"/>
      <point x="278.4879518072289" y="543.6024096385543" type="curve" smooth="yes"/>
      <point x="144.2831325301205" y="543.6024096385543"/>
      <point x="49.566265060240966" y="439.1987951807229"/>
      <point x="49.566265060240966" y="266.03012048192767" type="curve" smooth="yes"/>
      <point x="49.566265060240966" y="87.03012048192771"/>
      <point x="144.0" y="-8.457831325301205"/>
    </contour>
  </outline>
</glyph>
<glyph name="f" format="2">
  <advance width="319.27710843373495"/>
  <unicode hex="0066"/>
  <anchor x="134.0120481927711" y="0.0" name="bottom"/>
  <anchor x="134.0120481927711" y="595.0" name="top"/>
  <outline>
    <contour>
      <point x="103.39759036144578" y="0.0" type="line"/>
      <point x="164.3975903614458" y="0.0" type="line"/>
      <point x="164.3975903614458" y="485.86746987951807" type="line"/>
      <point x="307.421686746988" y="485.86746987951807" type="line"/>
      <point x="307.421686746988" y="535.1445783132531" type="line"/>
      <point x="152.53614457831324" y="535.1445783132531" type="line"/>
      <point x="162.45180722891567" y="508.99397590361457" type="line"/>
      <point x="162.45180722891567" y="542.7108433734941" type="line" smooth="yes"/>
      <point x="162.45180722891567" y="612.789156626506"/>
      <point x="194.73493975903617" y="653.355421686747"/>
      <point x="282.39156626506025" y="657.5843373493976" type="curve" smooth="yes"/>
      <point x="328.65060240963857" y="659.9277108433736" type="line"/>
      <point x="325.1927710843373" y="707.6867469879518" type="line"/>
      <point x="286.644578313253" y="706.4578313253012" type="line" smooth="yes"/>
      <point x="158.144578313253" y="700.8855421686746"/>
      <point x="103.39759036144578" y="639.710843373494"/>
      <point x="103.39759036144578" y="538.132530120482" type="curve" smooth="yes"/>
      <point x="103.39759036144578" y="508.9036144578314" type="line"/>
      <point x="119.34939759036145" y="535.1445783132531" type="line"/>
      <point x="7.0843373493975905" y="535.1445783132531" type="line"/>
      <point x="7.0843373493975905" y="485.86746987951807" type="line"/>
      <point x="103.39759036144578" y="485.86746987951807" type="line"/>
    </contour>
  </outline>
</glyph>
<glyph name="g" format="2">
  <advance width="577.7831325301205"/>
  <unicode hex="0067"/>
  <anchor x="291.2048192771084" y="484.0" name="top"/>
  <outline>
    <contour>
      <point x="290.57228915662654" y="-188.4578313253012" type="curve" smooth="yes"/>
      <point x="426.7831325301205" y="-188.4578313253012"/>
      <point x="497.3614457831325" y="-115.39759036144578"/>
      <point x="497.3614457831325" y="28.180722891566266" type="curve" smooth="yes"/>
      <point x="497.3614457831325" y="535.1445783132531" type="line"/>
      <point x="437.04819277108436" y="535.1445783132531" type="line"/>
      <point x="437.04819277108436" y="401.6987951807229" type="line"/>
      <point x="448.2469879518072" y="401.6987951807229" type="line"/>
      <point x="427.4759036144578" y="493.54819277108436"/>
      <point x="358.16265060240966" y="543.6024096385543"/>
      <point x="267.56626506024094" y="543.6024096385543" type="curve" smooth="yes"/>
      <point x="134.90963855421685" y="543.6024096385543"/>
      <point x="49.566265060240966" y="447.91566265060237"/>
      <point x="49.566265060240966" y="277.91566265060237" type="curve" smooth="yes"/>
      <point x="49.566265060240966" y="107.57228915662651"/>
      <point x="134.90963855421685" y="11.228915662650602"/>
      <point x="267.56626506024094" y="11.228915662650602" type="curve" smooth="yes"/>
      <point x="358.0481927710843" y="11.228915662650602"/>
      <point x="427.7048192771084" y="61.397590361445786"/>
      <point x="448.4759036144578" y="152.81927710843374" type="curve"/>
      <point x="437.8192771084337" y="152.81927710843374" type="line"/>
      <point x="437.8192771084337" y="19.349397590361445" type="line" smooth="yes"/>
      <point x="437.8192771084337" y="-82.07228915662651"/>
      <point x="386.65060240963857" y="-136.63855421686748"/>
      <point x="289.0542168674699" y="-136.63855421686748" type="curve" smooth="yes"/>
      <point x="215.7710843373494" y="-136.63855421686748"/>
      <point x="164.22289156626505" y="-119.40963855421687"/>
      <point x="102.82530120481928" y="-74.6987951807229" type="curve"/>
      <point x="79.16265060240964" y="-120.83132530120481" type="line"/>
      <point x="136.07831325301203" y="-166.14457831325302"/>
      <point x="207.82530120481925" y="-188.4578313253012"/>
    </contour>
    <contour>
      <point x="274.578313253012" y="63.39156626506024" type="curve" smooth="yes"/>
      <point x="176.75903614457832" y="63.39156626506024"/>
      <point x="111.56626506024097" y="134.9277108433735"/>
      <point x="111.56626506024097" y="278.03012048192767" type="curve" smooth="yes"/>
      <point x="111.56626506024097" y="421.1325301204819"/>
      <point x="176.75903614457832" y="491.5542168674699"/>
      <point x="274.578313253012" y="491.5542168674699" type="curve" smooth="yes"/>
      <point x="372.3975903614458" y="491.5542168674699"/>
      <point x="437.5903614457831" y="421.1325301204819"/>
      <point x="437.5903614457831" y="278.03012048192767" type="curve" smooth="yes"/>
      <point x="437.5903614457831" y="134.9277108433735"/>
      <point x="372.3975903614458" y="63.39156626506024"/>
    </contour>
  </outline>
</glyph>
<glyph name="h" format="2">
  <advance width="560.3253012048193"/>
  <unicode hex="0068"/>
  <anchor x="280.89156626506025" y="0.0" name="bottom"/>
  <anchor x="280.89156626506025" y="270.6867469879518" name="center"/>
  <anchor x="226.66265060240963" y="389.6566265060241" name="dot"/>
  <anchor x="161.80722891566265" y="581.8313253012049" name="stroke"/>
  <anchor x="281.66265060240966" y="705.0" name="top"/>
  <anchor x="180.67469879518072" y="705.0" name="topright"/>
  <outline>
    <contour>
      <point x="80.42168674698794" y="0.0" type="line"/>
      <point x="141.42168674698794" y="0.0" type="line"/>
      <point x="141.42168674698794" y="319.54216867469876" type="line" smooth="yes"/>
      <point x="141.42168674698794" y="424.3313253012048"/>
      <point x="204.7289156626506" y="490.98192771084337"/>
      <point x="300.8614457831325" y="490.98192771084337" type="curve" smooth="yes"/>
      <point x="384.65060240963857" y="490.98192771084337"/>
      <point x="421.13253012048193" y="447.07228915662654"/>
      <point x="421.13253012048193" y="343.1686746987952" type="curve" smooth="yes"/>
      <point x="421.13253012048193" y="0.0" type="line"/>
      <point x="482.13253012048193" y="0.0" type="line"/>
      <point x="482.13253012048193" y="348.28313253012044" type="line" smooth="yes"/>
      <point x="482.13253012048193" y="479.57228915662654"/>
      <point x="425.2469879518072" y="543.6024096385543"/>
      <point x="310.01807228915663" y="543.6024096385543" type="curve" smooth="yes"/>
      <point x="224.62048192771084" y="543.6024096385543"/>
      <point x="154.76506024096386" y="498.9759036144578"/>
      <point x="129.19277108433735" y="417.83734939759034" type="curve"/>
      <point x="141.42168674698794" y="417.83734939759034" type="line"/>
      <point x="141.42168674698794" y="705.0" type="line"/>
      <point x="80.42168674698794" y="705.0" type="line"/>
    </contour>
  </outline>
</glyph>
<glyph name="i" format="2">
  <advance width="221.8433734939759"/>
  <unicode hex="0069"/>
  <anchor x="110.03614457831326" y="0.0" name="bottom"/>
  <anchor x="135.46987951807228" y="0.0" name="ogonek"/>
  <outline>
    <contour>
      <point x="70.10843373493977" y="640.5361445783133" type="line"/>
      <point x="151.50602409638554" y="640.5361445783133" type="line"/>
      <point x="151.50602409638554" y="716.2409638554217" type="line"/>
      <point x="70.10843373493977" y="716.2409638554217" type="line"/>
    </contour>
    <contour>
      <point x="80.42168674698794" y="0.0" type="line"/>
      <point x="141.42168674698794" y="0.0" type="line"/>
      <point x="141.42168674698794" y="535.1445783132531" type="line"/>
      <point x="80.42168674698794" y="535.1445783132531" type="line"/>
    </contour>
  </outline>
</glyph>
<glyph name="k" format="2">
  <advance width="483.56626506024094"/>
  <unicode hex="006B"/>
  <anchor x="241.78313253012047" y="0.0" name="bottom"/>
  <anchor x="281.66265060240966" y="705.0" name="top"/>
  <outline>
    <contour>
      <point x="80.42168674698794" y="0.0" type="line"/>
      <point x="141.42168674698794" y="0.0" type="line"/>
      <point x="141.42168674698794" y="256.87951807228916" type="line"/>
      <point x="143.42168674698794" y="256.87951807228916" type="line"/>
      <point x="409.0542168674699" y="0.0" type="line"/>
      <point x="487.80120481927713" y="0.0" type="line"/>
      <point x="188.7048192771084" y="292.6626506024096" type="line"/>
      <point x="188.7048192771084" y="259.855421686747" type="line"/>
      <point x="463.77710843373495" y="535.1445783132531" type="line"/>
      <point x="385.60240963855426" y="535.1445783132531" type="line"/>
      <point x="143.42168674698794" y="292.4638554216868" type="line"/>
      <point x="141.42168674698794" y="292.4638554216868" type="line"/>
      <point x="141.42168674698794" y="705.0" type="line"/>
      <point x="80.42168674698794" y="705.0" type="line"/>
    </contour>
  </outline>
</glyph>
<glyph name="l" format="2">
  <advance width="285.0722891566265"/>
  <unicode hex="006C"/>
  <anchor x="183.51807228915663" y="0.0" name="bottom"/>
  <anchor x="120.80722891566265" y="395.0" name="center"/>
  <anchor x="254.710843373494" y="395.0" name="dot"/>
  <anchor x="110.80722891566265" y="705.0" name="top"/>
  <anchor x="189.13253012048193" y="705.0" name="topright"/>
  <outline>
    <contour>
      <point x="221.12048192771084" y="-8.457831325301205" type="curve" smooth="yes"/>
      <point x="237.63855421686748" y="-8.457831325301205"/>
      <point x="255.24096385542168" y="-6.228915662650603"/>
      <point x="274.6144578313253" y="-1.7710843373493976" type="curve"/>
      <point x="277.3855421686747" y="50.963855421686745" type="line"/>
      <point x="262.6144578313253" y="46.963855421686745"/>
      <point x="247.8433734939759" y="45.19277108433735"/>
      <point x="231.3012048192771" y="45.19277108433735" type="curve" smooth="yes"/>
      <point x="171.81927710843374" y="45.19277108433735"/>
      <point x="141.42168674698794" y="83.90361445783132"/>
      <point x="141.42168674698794" y="159.86746987951807" type="curve" smooth="yes"/>
      <point x="141.42168674698794" y="705.0" type="line"/>
      <point x="80.42168674698794" y="705.0" type="line"/>
      <point x="80.42168674698794" y="153.09638554216866" type="line" smooth="yes"/>
      <point x="80.42168674698794" y="49.373493975903614"/>
      <point x="129.79518072289156" y="-8.457831325301205"/>
    </contour>
  </outline>
</glyph>
<glyph name="m" format="2">
  <advance width="846.9277108433735"/>
  <unicode hex="006D"/>
  <anchor x="424.578313253012" y="0.0" name="bottom"/>
  <anchor x="424.578313253012" y="484.0" name="top"/>
  <outline>
    <contour>
      <point x="82.42168674698794" y="0.0" type="line"/>
      <point x="143.42168674698794" y="0.0" type="line"/>
      <point x="143.42168674698794" y="319.1987951807229" type="line" smooth="yes"/>
      <point x="143.42168674698794" y="425.44578313253015"/>
      <point x="198.95783132530119" y="490.98192771084337"/>
      <point x="284.77710843373495" y="490.98192771084337" type="curve" smooth="yes"/>
      <point x="362.2530120481928" y="490.98192771084337"/>
      <point x="393.96385542168673" y="448.07228915662654"/>
      <point x="393.96385542168673" y="343.2831325301205" type="curve" smooth="yes"/>
      <point x="393.96385542168673" y="0.0" type="line"/>
      <point x="454.96385542168673" y="0.0" type="line"/>
      <point x="454.96385542168673" y="319.1987951807229" type="line" smooth="yes"/>
      <point x="454.96385542168673" y="425.44578313253015"/>
      <point x="510.7289156626506" y="490.98192771084337"/>
      <point x="596.3192771084337" y="490.98192771084337" type="curve" smooth="yes"/>
      <point x="674.0240963855422" y="490.98192771084337"/>
      <point x="705.7349397590361" y="448.07228915662654"/>
      <point x="705.7349397590361" y="343.2831325301205" type="curve" smooth="yes"/>
      <point x="705.7349397590361" y="0.0" type="line"/>
      <point x="766.7349397590361" y="0.0" type="line"/>
      <point x="766.7349397590361" y="348.28313253012044" type="line" smooth="yes"/>
      <point x="766.7349397590361" y="481.34337349397595"/>
      <point x="713.7349397590361" y="543.6024096385543"/>
      <point x="607.2469879518072" y="543.6024096385543" type="curve" smooth="yes"/>
      <point x="521.3915662650602" y="543.6024096385543"/>
      <point x="453.2771084337349" y="490.7469879518072"/>
      <point x="434.0180722891566" y="415.3192771084337" type="curve"/>
      <point x="449.0481927710843" y="415.3192771084337" type="line"/>
      <point x="432.2469879518072" y="502.7469879518072"/>
      <point x="381.789156626506" y="543.6024096385543"/>
      <point x="296.16265060240966" y="543.6024096385543" type="curve" smooth="yes"/>
      <point x="216.19277108433735" y="543.6024096385543"/>
      <point x="154.76506024096386" y="497.8614457831325"/>
      <point x="131.19277108433735" y="417.83734939759034" type="curve"/>
      <point x="142.84939759036146" y="417.83734939759034" type="line"/>
      <point x="142.84939759036146" y="535.1445783132531" type="line"/>
      <point x="82.42168674698794" y="535.1445783132531" type="line"/>
    </contour>
  </outline>
</glyph>
<glyph name="n" format="2">
  <advance width="560.3253012048193"/>
  <unicode hex="006E"/>
  <anchor x="280.89156626506025" y="0.0" name="bottom"/>
  <anchor x="280.89156626506025" y="484.0" name="top"/>
  <outline>
    <contour>
      <point x="80.42168674698794" y="0.0" type="line"/>
      <point x="141.42168674698794" y="0.0" type="line"/>
      <point x="141.42168674698794" y="319.54216867469876" type="line" smooth="yes"/>
      <point x="141.42168674698794" y="424.3313253012048"/>
      <point x="204.7289156626506" y="490.98192771084337"/>
      <point x="300.8614457831325" y="490.98192771084337" type="curve" smooth="yes"/>
      <point x="384.65060240963857" y="490.98192771084337"/>
      <point x="421.13253012048193" y="447.07228915662654"/>
      <point x="421.13253012048193" y="343.1686746987952" type="curve" smooth="yes"/>
      <point x="421.13253012048193" y="0.0" type="line"/>
      <point x="482.13253012048193" y="0.0" type="line"/>
      <point x="482.13253012048193" y="348.28313253012044" type="line" smooth="yes"/>
      <point x="482.13253012048193" y="480.4578313253012"/>
      <point x="425.2469879518072" y="543.6024096385543"/>
      <point x="310.01807228915663" y="543.6024096385543" type="curve" smooth="yes"/>
      <point x="224.62048192771084" y="543.6024096385543"/>
      <point x="155.65060240963857" y="499.8614457831325"/>
      <point x="129.19277108433735" y="417.83734939759034" type="curve"/>
      <point x="140.84939759036146" y="417.83734939759034" type="line"/>
      <point x="140.84939759036146" y="535.1445783132531" type="line"/>
      <point x="80.42168674698794" y="535.1445783132531" type="line"/>
    </contour>
  </outline>
</glyph>
<glyph name="o" format="2">
  <advance width="546.6987951807229"/>
  <unicode hex="006F"/>
  <anchor x="273.34939759036143" y="0.0" name="bottom"/>
  <anchor x="273.34939759036143" y="267.6867469879518" name="center"/>
  <anchor x="332.34939759036143" y="0.0" name="ogonek"/>
  <anchor x="273.34939759036143" y="484.0" name="top"/>
  <anchor x="322.32530120481925" y="533.8855421686746" name="topright"/>
  <outline>
    <contour>
      <point x="273.34939759036143" y="-8.457831325301205" type="curve" smooth="yes"/>
      <point x="408.81325301204816" y="-8.457831325301205"/>
      <point x="497.13253012048193" y="89.57228915662651"/>
      <point x="497.13253012048193" y="267.6867469879518" type="curve" smooth="yes"/>
      <point x="497.13253012048193" y="446.5722891566265"/>
      <point x="408.81325301204816" y="543.6024096385543"/>
      <point x="273.34939759036143" y="543.6024096385543" type="curve" smooth="yes"/>
      <point x="138.54216867469881" y="543.6024096385543"/>
      <point x="49.566265060240966" y="446.5722891566265"/>
      <point x="49.566265060240966" y="267.6867469879518" type="curve" smooth="yes"/>
      <point x="49.566265060240966" y="89.57228915662651"/>
      <point x="138.54216867469881" y="-8.457831325301205"/>
    </contour>
    <contour>
      <point x="273.34939759036143" y="43.59036144578313" type="curve" smooth="yes"/>
      <point x="176.75903614457832" y="43.59036144578313"/>
      <point x="111.56626506024097" y="115.89759036144578"/>
      <point x="111.56626506024097" y="267.6867469879518" type="curve" smooth="yes"/>
      <point x="111.56626506024097" y="420.3614457831325"/>
      <point x="176.75903614457832" y="491.5542168674699"/>
      <point x="273.34939759036143" y="491.5542168674699" type="curve" smooth="yes"/>
      <point x="369.8253012048193" y="491.5542168674699"/>
      <point x="435.13253012048193" y="420.3614457831325"/>
      <point x="435.13253012048193" y="267.6867469879518" type="curve" smooth="yes"/>
      <point x="435.13253012048193" y="115.89759036144578"/>
      <point x="369.8253012048193" y="43.59036144578313"/>
    </contour>
  </outline>
</glyph>
<glyph name="p" format="2">
  <advance width="575.3253012048193"/>
  <unicode hex="0070"/>
  <anchor x="285.89156626506025" y="0.0" name="bottom"/>
  <anchor x="285.89156626506025" y="484.0" name="top"/>
  <outline>
    <contour>
      <point x="80.42168674698794" y="-180.0" type="line"/>
      <point x="141.42168674698794" y="-180.0" type="line"/>
      <point x="141.42168674698794" y="134.0180722891566" type="line"/>
      <point x="129.30722891566265" y="134.0180722891566" type="line"/>
      <point x="151.96385542168676" y="42.71084337349397"/>
      <point x="220.50602409638554" y="-8.457831325301205"/>
      <point x="310.8734939759036" y="-8.457831325301205" type="curve" smooth="yes"/>
      <point x="440.53012048192767" y="-8.457831325301205"/>
      <point x="525.7590361445783" y="89.5722891566265"/>
      <point x="525.7590361445783" y="267.6867469879518" type="curve" smooth="yes"/>
      <point x="525.7590361445783" y="446.8012048192771"/>
      <point x="440.41566265060237" y="543.6024096385543"/>
      <point x="310.8734939759036" y="543.6024096385543" type="curve" smooth="yes"/>
      <point x="220.04819277108433" y="543.6024096385543"/>
      <point x="151.50602409638554" y="493.2048192771084"/>
      <point x="129.07831325301206" y="401.4397590361446" type="curve"/>
      <point x="140.73493975903614" y="401.4397590361446" type="line"/>
      <point x="140.73493975903614" y="535.1445783132531" type="line"/>
      <point x="80.42168674698794" y="535.1445783132531" type="line"/>
    </contour>
    <contour>
      <point x="301.9759036144578" y="43.59036144578313" type="curve" smooth="yes"/>
      <point x="205.3855421686747" y="43.59036144578313"/>
      <point x="140.19277108433735" y="115.89759036144578"/>
      <point x="140.19277108433735" y="267.6867469879518" type="curve" smooth="yes"/>
      <point x="140.19277108433735" y="420.3614457831325"/>
      <point x="205.3855421686747" y="491.5542168674699"/>
      <point x="301.9759036144578" y="491.5542168674699" type="curve" smooth="yes"/>
      <point x="398.4518072289157" y="491.5542168674699"/>
      <point x="463.7590361445783" y="420.3614457831325"/>
      <point x="463.7590361445783" y="267.6867469879518" type="curve" smooth="yes"/>
      <point x="463.7590361445783" y="115.89759036144578"/>
      <point x="398.4518072289157" y="43.59036144578313"/>
    </contour>
  </outline>
</glyph>
<glyph name="q" format="2">
  <advance width="575.3253012048193"/>
  <unicode hex="0071"/>
  <anchor x="286.12048192771084" y="0.0" name="bottom"/>
  <anchor x="286.12048192771084" y="484.0" name="top"/>
  <outline>
    <contour>
      <point x="433.90361445783134" y="-180.0" type="line"/>
      <point x="494.90361445783134" y="-180.0" type="line"/>
      <point x="494.90361445783134" y="535.1445783132531" type="line"/>
      <point x="434.5903614457831" y="535.1445783132531" type="line"/>
      <point x="434.5903614457831" y="401.4397590361446" type="line"/>
      <point x="446.01807228915663" y="401.4397590361446" type="line"/>
      <point x="424.4759036144578" y="493.2048192771084"/>
      <point x="355.93373493975906" y="543.6024096385543"/>
      <point x="265.33734939759034" y="543.6024096385543" type="curve" smooth="yes"/>
      <point x="135.79518072289156" y="543.6024096385543"/>
      <point x="49.566265060240966" y="446.8012048192771"/>
      <point x="49.566265060240966" y="267.6867469879518" type="curve" smooth="yes"/>
      <point x="49.566265060240966" y="89.5722891566265"/>
      <point x="134.90963855421685" y="-8.457831325301205"/>
      <point x="265.33734939759034" y="-8.457831325301205" type="curve" smooth="yes"/>
      <point x="355.7048192771084" y="-8.457831325301205"/>
      <point x="424.01807228915663" y="42.71084337349397"/>
      <point x="445.78915662650604" y="134.0180722891566" type="curve"/>
      <point x="433.90361445783134" y="134.0180722891566" type="line"/>
    </contour>
    <contour>
      <point x="273.34939759036143" y="43.59036144578313" type="curve" smooth="yes"/>
      <point x="176.75903614457832" y="43.59036144578313"/>
      <point x="111.56626506024097" y="115.89759036144578"/>
      <point x="111.56626506024097" y="267.6867469879518" type="curve" smooth="yes"/>
      <point x="111.56626506024097" y="420.3614457831325"/>
      <point x="176.75903614457832" y="491.5542168674699"/>
      <point x="273.34939759036143" y="491.5542168674699" type="curve" smooth="yes"/>
      <point x="369.8253012048193" y="491.5542168674699"/>
      <point x="435.13253012048193" y="420.3614457831325"/>
      <point x="435.13253012048193" y="267.6867469879518" type="curve" smooth="yes"/>
      <point x="435.13253012048193" y="115.89759036144578"/>
      <point x="369.8253012048193" y="43.59036144578313"/>
    </contour>
  </outline>
</glyph>
<glyph name="r" format="2">
  <advance width="341.87951807228916"/>
  <unicode hex="0072"/>
  <anchor x="111.03614457831326" y="0.0" name="bottom"/>
  <anchor x="209.26506024096386" y="484.0" name="top"/>
  <outline>
    <contour>
      <point x="80.42168674698794" y="0.0" type="line"/>
      <point x="141.87951807228916" y="0.0" type="line"/>
      <point x="141.87951807228916" y="327.1325301204819" type="line" smooth="yes"/>
      <point x="141.87951807228916" y="421.69879518072287"/>
      <point x="195.33132530120483" y="479.46385542168673"/>
      <point x="292.2409638554217" y="489.23493975903614" type="curve" smooth="yes"/>
      <point x="333.7951807228916" y="493.921686746988" type="line"/>
      <point x="328.10843373493975" y="547.4879518072289" type="line"/>
      <point x="303.2168674698795" y="545.1445783132531" type="line" smooth="yes"/>
      <point x="209.24698795180726" y="537.1445783132531"/>
      <point x="154.01807228915663" y="499.2289156626506"/>
      <point x="129.96385542168676" y="416.0843373493976" type="curve"/>
      <point x="139.96385542168676" y="416.0843373493976" type="line"/>
      <point x="139.96385542168676" y="535.1445783132531" type="line"/>
      <point x="80.42168674698794" y="535.1445783132531" type="line"/>
    </contour>
  </outline>
</glyph>
<glyph name="s" format="2">
  <advance width="477.9759036144578"/>
  <unicode hex="0073"/>
  <anchor x="237.83132530120483" y="0.0" name="bottom"/>
  <anchor x="247.6024096385542" y="484.0" name="top"/>
  <outline>
    <contour>
      <point x="239.71686746987953" y="-8.457831325301205" type="curve" smooth="yes"/>
      <point x="351.26506024096386" y="-8.457831325301205"/>
      <point x="425.4698795180723" y="49.91566265060241"/>
      <point x="425.4698795180723" y="141.57831325301206" type="curve" smooth="yes"/>
      <point x="425.4698795180723" y="216.06626506024097"/>
      <point x="381.43975903614455" y="258.8674698795181"/>
      <point x="291.4397590361446" y="281.18072289156623" type="curve" smooth="yes"/>
      <point x="211.57831325301203" y="300.29518072289153" type="line" smooth="yes"/>
      <point x="154.0421686746988" y="313.6927710843373"/>
      <point x="127.75903614457832" y="344.40361445783134"/>
      <point x="127.75903614457832" y="390.5120481927711" type="curve" smooth="yes"/>
      <point x="127.75903614457832" y="452.4759036144578"/>
      <point x="171.55421686746988" y="493.1566265060241"/>
      <point x="250.43373493975903" y="493.1566265060241" type="curve" smooth="yes"/>
      <point x="305.17469879518075" y="493.1566265060241"/>
      <point x="353.00602409638554" y="471.6144578313253"/>
      <point x="391.23493975903614" y="429.3313253012048" type="curve"/>
      <point x="417.8975903614458" y="471.7771084337349" type="line"/>
      <point x="380.72289156626505" y="517.8614457831326"/>
      <point x="319.2349397590362" y="543.6024096385543"/>
      <point x="250.20481927710844" y="543.6024096385543" type="curve" smooth="yes"/>
      <point x="134.82530120481928" y="543.6024096385543"/>
      <point x="67.84939759036145" y="476.0"/>
      <point x="67.84939759036145" y="388.48192771084337" type="curve" smooth="yes"/>
      <point x="67.84939759036145" y="317.10843373493975"/>
      <point x="108.99397590361446" y="269.5361445783132"/>
      <point x="196.10843373493975" y="247.99397590361446" type="curve" smooth="yes"/>
      <point x="275.9698795180723" y="228.87951807228916" type="line" smooth="yes"/>
      <point x="338.93373493975906" y="213.48192771084337"/>
      <point x="365.4457831325301" y="186.6566265060241"/>
      <point x="365.4457831325301" y="139.2048192771084" type="curve" smooth="yes"/>
      <point x="365.4457831325301" y="79.12650602409639"/>
      <point x="321.76506024096386" y="41.98795180722891"/>
      <point x="240.14457831325302" y="41.98795180722891" type="curve" smooth="yes"/>
      <point x="179.3734939759036" y="41.98795180722891"/>
      <point x="125.51204819277109" y="61.33132530120482"/>
      <point x="78.39759036144578" y="103.3855421686747" type="curve"/>
      <point x="52.07831325301205" y="60.93975903614458" type="line"/>
      <point x="93.13855421686748" y="17.855421686746986"/>
      <point x="162.74096385542168" y="-8.457831325301205"/>
    </contour>
  </outline>
</glyph>
<glyph name="u" format="2">
  <advance width="552.7831325301205"/>
  <unicode hex="0075"/>
  <anchor x="276.66265060240966" y="0.0" name="bottom"/>
  <anchor x="466.6385542168675" y="0.0" name="ogonek"/>
  <anchor x="276.66265060240966" y="485.0" name="top"/>
  <anchor x="420.2289156626506" y="534.0" name="topright"/>
  <outline>
    <contour>
      <point x="252.13855421686748" y="-8.457831325301205" type="curve" smooth="yes"/>
      <point x="333.76506024096386" y="-8.457831325301205"/>
      <point x="399.5903614457831" y="38.05421686746988"/>
      <point x="425.27710843373495" y="119.30722891566265" type="curve"/>
      <point x="412.8192771084337" y="119.30722891566265" type="line"/>
      <point x="412.8192771084337" y="0.0" type="line"/>
      <point x="472.3614457831325" y="0.0" type="line"/>
      <point x="472.3614457831325" y="535.1445783132531" type="line"/>
      <point x="411.3614457831325" y="535.1445783132531" type="line"/>
      <point x="411.3614457831325" y="216.3734939759036" type="line" smooth="yes"/>
      <point x="411.3614457831325" y="110.89759036144578"/>
      <point x="349.59638554216866" y="44.16265060240964"/>
      <point x="259.6927710843374" y="44.16265060240964" type="curve" smooth="yes"/>
      <point x="177.2168674698795" y="44.16265060240964"/>
      <point x="139.19277108433735" y="88.8433734939759"/>
      <point x="139.19277108433735" y="192.06024096385542" type="curve" smooth="yes"/>
      <point x="139.19277108433735" y="535.1445783132531" type="line"/>
      <point x="78.19277108433735" y="535.1445783132531" type="line"/>
      <point x="78.19277108433735" y="187.74698795180723" type="line" smooth="yes"/>
      <point x="78.19277108433735" y="56.68674698795181"/>
      <point x="136.07831325301206" y="-8.457831325301205"/>
    </contour>
  </outline>
</glyph>
<glyph name="v" format="2">
  <advance width="509.26506024096386"/>
  <unicode hex="0076"/>
  <anchor x="254.97590361445782" y="0.0" name="bottom"/>
  <anchor x="254.97590361445782" y="484.0" name="top"/>
  <outline>
    <contour>
      <point x="222.96385542168676" y="0.0" type="line"/>
      <point x="286.9578313253012" y="0.0" type="line"/>
      <point x="493.4457831325301" y="535.1445783132531" type="line"/>
      <point x="428.4759036144578" y="535.1445783132531" type="line"/>
      <point x="243.51807228915663" y="40.89156626506024" type="line"/>
      <point x="267.89156626506025" y="40.89156626506024" type="line"/>
      <point x="83.84939759036143" y="535.1445783132531" type="line"/>
      <point x="16.277108433734938" y="535.1445783132531" type="line"/>
    </contour>
  </outline>
</glyph>
<glyph name="w" format="2">
  <advance width="835.2650602409639"/>
  <unicode hex="0077"/>
  <anchor x="417.7469879518072" y="0.0" name="bottom"/>
  <anchor x="417.7469879518072" y="484.0" name="top"/>
  <outline>
    <contour>
      <point x="207.13855421686748" y="0.0" type="line"/>
      <point x="271.4457831325301" y="0.0" type="line"/>
      <point x="435.4638554216868" y="499.566265060241" type="line"/>
      <point x="402.7710843373494" y="499.566265060241" type="line"/>
      <point x="564.1626506024096" y="0.0" type="line"/>
      <point x="627.5843373493976" y="0.0" type="line"/>
      <point x="803.5903614457832" y="535.1445783132531" type="line"/>
      <point x="742.078313253012" y="535.1445783132531" type="line"/>
      <point x="582.4879518072289" y="36.86144578313253" type="line"/>
      <point x="608.0301204819277" y="36.86144578313253" type="line"/>
      <point x="450.21084337349396" y="535.1445783132531" type="line"/>
      <point x="388.7409638554217" y="535.1445783132531" type="line"/>
      <point x="227.37951807228916" y="36.86144578313253" type="line"/>
      <point x="252.83734939759037" y="36.86144578313253" type="line"/>
      <point x="97.21686746987952" y="535.1445783132531" type="line"/>
      <point x="32.445783132530124" y="535.1445783132531" type="line"/>
    </contour>
  </outline>
</glyph>
<glyph name="x" format="2">
  <advance width="515.156626506024"/>
  <unicode hex="0078"/>
  <anchor x="257.8072289156627" y="0.0" name="bottom"/>
  <anchor x="257.8072289156627" y="484.0" name="top"/>
  <outline>
    <contour>
      <point x="21.903614457831328" y="0.0" type="line"/>
      <point x="93.30722891566265" y="0.0" type="line"/>
      <point x="268.0963855421687" y="243.1024096385542" type="line"/>
      <point x="247.06024096385542" y="243.1024096385542" type="line"/>
      <point x="421.4216867469879" y="0.0" type="line"/>
      <point x="494.59638554216866" y="0.0" type="line"/>
      <point x="284.13253012048193" y="289.03614457831327" type="line"/>
      <point x="284.13253012048193" y="262.3373493975904" type="line"/>
      <point x="483.1385542168675" y="535.1445783132531" type="line"/>
      <point x="411.84939759036143" y="535.1445783132531" type="line"/>
      <point x="248.71686746987953" y="307.1566265060241" type="line"/>
      <point x="268.7831325301205" y="307.1566265060241" type="line"/>
      <point x="105.65060240963855" y="535.1445783132531" type="line"/>
      <point x="34.13253012048193" y="535.1445783132531" type="line"/>
      <point x="234.68072289156626" y="259.1385542168675" type="line"/>
      <point x="234.68072289156626" y="293.34939759036143" type="line"/>
    </contour>
  </outline>
</glyph>
<glyph name="y" format="2">
  <advance width="509.03614457831327"/>
  <unicode hex="0079"/>
  <anchor x="379.9277108433735" y="0.0" name="bottom"/>
  <anchor x="254.74698795180723" y="484.0" name="top"/>
  <outline>
    <contour>
      <point x="150.84337349397592" y="-180.0" type="line"/>
      <point x="215.8433734939759" y="-180.0" type="line"/>
      <point x="494.3313253012048" y="535.1445783132531" type="line"/>
      <point x="428.3614457831325" y="535.1445783132531" type="line"/>
      <point x="242.63253012048193" y="40.89156626506024" type="line"/>
      <point x="267.89156626506025" y="40.89156626506024" type="line"/>
      <point x="83.73493975903615" y="535.1445783132531" type="line"/>
      <point x="16.048192771084338" y="535.1445783132531" type="line"/>
      <point x="228.27710843373495" y="-15.168674698795181" type="line"/>
      <point x="228.27710843373495" y="13.096385542168674" type="line"/>
    </contour>
  </outline>
</glyph>
<glyph name="z" format="2">
  <advance width="458.578313253012"/>
  <unicode hex="007A"/>
  <anchor x="236.83132530120483" y="0.0" name="bottom"/>
  <anchor x="236.83132530120483" y="484.0" name="top"/>
  <outline>
    <contour>
      <point x="57.48192771084337" y="0.0" type="line"/>
      <point x="427.1807228915663" y="0.0" type="line"/>
      <point x="427.1807228915663" y="49.50602409638554" type="line"/>
      <point x="113.62048192771084" y="49.50602409638554" type="line"/>
      <point x="113.73493975903614" y="31.042168674698793" type="line"/>
      <point x="416.1807228915663" y="494.2409638554217" type="line"/>
      <point x="416.1807228915663" y="535.1445783132531" type="line"/>
      <point x="57.48192771084337" y="535.1445783132531" type="line"/>
      <point x="57.48192771084337" y="485.6385542168675" type="line"/>
      <point x="359.8132530120482" y="485.6385542168675" type="line"/>
      <point x="359.46987951807233" y="503.9879518072289" type="line"/>
      <point x="57.48192771084337" y="41.903614457831324" type="line"/>
    </contour>
  </outline>
</glyph>
<glyph name="exclamdown" format="2">
  <advance width="219.46987951807228"/>
  <unicode hex="00A1"/>
  <outline>
    <contour>
      <point x="71.67469879518072" y="-180.0" type="line"/>
      <point x="147.79518072289156" y="-180.0" type="line"/>
      <point x="128.8433734939759" y="363.1566265060241" type="line"/>
      <point x="90.62650602409639" y="363.1566265060241" type="line"/>
    </contour>
    <contour>
      <point x="67.10843373493977" y="449.34939759036143" type="line"/>
      <point x="152.36144578313252" y="449.34939759036143" type="line"/>
      <point x="152.36144578313252" y="535.1445783132531" type="line"/>
      <point x="67.10843373493977" y="535.1445783132531" type="line"/>
    </contour>
  </outline>
</glyph>
<glyph name="cent" format="2">
  <advance width="600.0"/>
  <unicode hex="00A2"/>
  <outline>
    <contour>
      <point x="290.27710843373495" y="-125.62650602409639" type="line"/>
      <point x="344.0120481927711" y="-125.62650602409639" type="line"/>
      <point x="344.0120481927711" y="10.518072289156626" type="line"/>
      <point x="329.12048192771084" y="-8.343373493975905" type="line"/>
      <point x="389.95180722891564" y="-8.0"/>
      <point x="459.06626506024094" y="19.542168674698793"/>
      <point x="495.21084337349396" y="63.39759036144577" type="curve"/>
      <point x="471.54819277108436" y="107.75903614457832" type="line"/>
      <point x="432.89156626506025" y="65.16265060240964"/>
      <point x="381.9216867469879" y="46.506024096385545"/>
      <point x="329.21084337349396" y="46.506024096385545" type="curve" smooth="yes"/>
      <point x="223.36144578313252" y="46.506024096385545"/>
      <point x="157.68072289156626" y="130.24096385542168"/>
      <point x="157.68072289156626" y="267.9156626506024" type="curve" smooth="yes"/>
      <point x="157.68072289156626" y="401.93373493975906"/>
      <point x="223.24698795180723" y="489.86746987951807"/>
      <point x="330.21084337349396" y="489.86746987951807" type="curve" smooth="yes"/>
      <point x="382.1506024096385" y="489.86746987951807"/>
      <point x="432.00602409638554" y="472.09638554216866"/>
      <point x="471.54819277108436" y="426.84337349397595" type="curve"/>
      <point x="495.21084337349396" y="471.9759036144579" type="line"/>
      <point x="457.4096385542168" y="518.1746987951808"/>
      <point x="391.26506024096386" y="542.2590361445784"/>
      <point x="331.12048192771084" y="542.3734939759037" type="curve"/>
      <point x="344.0120481927711" y="516.4277108433735" type="line"/>
      <point x="344.0120481927711" y="655.5722891566264" type="line"/>
      <point x="290.27710843373495" y="655.5722891566264" type="line"/>
      <point x="290.27710843373495" y="514.8253012048192" type="line"/>
      <point x="301.56626506024094" y="541.1144578313252" type="line"/>
      <point x="177.10843373493975" y="528.0542168674699"/>
      <point x="95.10843373493977" y="421.93975903614455"/>
      <point x="95.10843373493977" y="268.4578313253012" type="curve" smooth="yes"/>
      <point x="95.10843373493977" y="112.63253012048193"/>
      <point x="179.19277108433735" y="2.006024096385542"/>
      <point x="302.33734939759034" y="-6.542168674698795" type="curve"/>
      <point x="290.27710843373495" y="11.891566265060241" type="line"/>
    </contour>
  </outline>
</glyph>
<glyph name="section" format="2">
  <advance width="533.5301204819277"/>
  <unicode hex="00A7"/>
  <outline>
    <contour>
      <point x="240.63855421686748" y="-188.4578313253012" type="curve" smooth="yes"/>
      <point x="360.13253012048193" y="-188.4578313253012"/>
      <point x="448.50602409638554" y="-122.3132530120482"/>
      <point x="448.50602409638554" y="-11.93975903614458" type="curve" smooth="yes"/>
      <point x="448.50602409638554" y="29.746987951807228"/>
      <point x="437.3614457831325" y="56.036144578313255"/>
      <point x="426.4698795180723" y="71.32530120481928" type="curve"/>
      <point x="420.32530120481925" y="52.74698795180723" type="line"/>
      <point x="459.5903614457831" y="82.80722891566265"/>
      <point x="488.73493975903614" y="137.03614457831324"/>
      <point x="488.73493975903614" y="189.24096385542168" type="curve" smooth="yes"/>
      <point x="488.73493975903614" y="262.4698795180723"/>
      <point x="456.3614457831325" y="310.0722891566265"/>
      <point x="346.10843373493975" y="363.0120481927711" type="curve" smooth="yes"/>
      <point x="244.0120481927711" y="411.5301204819277" type="line" smooth="yes"/>
      <point x="170.04819277108433" y="446.7831325301205"/>
      <point x="146.65060240963857" y="483.8072289156627"/>
      <point x="146.65060240963857" y="539.0" type="curve" smooth="yes"/>
      <point x="146.65060240963857" y="617.9036144578313"/>
      <point x="206.0722891566265" y="662.2409638554217"/>
      <point x="285.49397590361446" y="662.2409638554217" type="curve" smooth="yes"/>
      <point x="346.12048192771084" y="662.2409638554217"/>
      <point x="409.26506024096386" y="640.6987951807229"/>
      <point x="449.4096385542169" y="604.3012048192771" type="curve"/>
      <point x="472.8433734939759" y="649.289156626506" type="line"/>
      <point x="432.69879518072287" y="689.3734939759037"/>
      <point x="364.32530120481925" y="712.6867469879518"/>
      <point x="287.8072289156627" y="712.6867469879518" type="curve" smooth="yes"/>
      <point x="173.6265060240964" y="712.6867469879518"/>
      <point x="85.25301204819277" y="646.5421686746988"/>
      <point x="85.25301204819277" y="536.1686746987951" type="curve" smooth="yes"/>
      <point x="85.25301204819277" y="494.2530120481928"/>
      <point x="96.39759036144578" y="468.1927710843373"/>
      <point x="107.28915662650603" y="452.90361445783134" type="curve"/>
      <point x="113.43373493975903" y="471.48192771084337" type="line"/>
      <point x="74.16867469879519" y="441.421686746988"/>
      <point x="45.024096385542165" y="387.1927710843373"/>
      <point x="45.024096385542165" y="334.9879518072289" type="curve" smooth="yes"/>
      <point x="45.024096385542165" y="261.7590361445783"/>
      <point x="77.39759036144578" y="214.1566265060241"/>
      <point x="187.65060240963857" y="161.21686746987953" type="curve" smooth="yes"/>
      <point x="289.7469879518072" y="112.6987951807229" type="line" smooth="yes"/>
      <point x="363.71084337349396" y="77.44578313253012"/>
      <point x="387.10843373493975" y="40.42168674698795"/>
      <point x="387.10843373493975" y="-14.771084337349398" type="curve" smooth="yes"/>
      <point x="387.10843373493975" y="-93.90361445783132"/>
      <point x="327.68674698795184" y="-138.0120481927711"/>
      <point x="242.95180722891567" y="-138.0120481927711" type="curve" smooth="yes"/>
      <point x="177.40963855421685" y="-138.0120481927711"/>
      <point x="111.12048192771084" y="-115.55421686746988"/>
      <point x="71.43373493975903" y="-78.6987951807229" type="curve"/>
      <point x="48.0" y="-124.37349397590361" type="line"/>
      <point x="88.83132530120481" y="-164.6867469879518"/>
      <point x="158.34939759036143" y="-188.4578313253012"/>
    </contour>
    <contour>
      <point x="102.04819277108433" y="341.56626506024094" type="curve" smooth="yes"/>
      <point x="102.04819277108433" y="378.8192771084337"/>
      <point x="116.90361445783132" y="411.9879518072289"/>
      <point x="144.3012048192771" y="435.5301204819277" type="curve"/>
      <point x="122.55421686746988" y="435.3855421686747" type="line"/>
      <point x="141.63855421686748" y="409.13253012048193"/>
      <point x="175.34939759036143" y="380.65060240963857"/>
      <point x="231.16867469879517" y="353.855421686747" type="curve" smooth="yes"/>
      <point x="318.578313253012" y="312.33734939759034" type="line" smooth="yes"/>
      <point x="406.1686746987952" y="270.7710843373494"/>
      <point x="431.71084337349396" y="233.9156626506024"/>
      <point x="431.71084337349396" y="182.66265060240963" type="curve" smooth="yes"/>
      <point x="431.71084337349396" y="145.40963855421685"/>
      <point x="416.855421686747" y="112.24096385542168"/>
      <point x="389.4578313253012" y="88.6987951807229" type="curve"/>
      <point x="411.2048192771084" y="88.8433734939759" type="line"/>
      <point x="392.12048192771084" y="115.09638554216868"/>
      <point x="358.4096385542169" y="143.57831325301206"/>
      <point x="302.5903614457831" y="170.3734939759036" type="curve" smooth="yes"/>
      <point x="215.18072289156626" y="211.89156626506025" type="line" smooth="yes"/>
      <point x="127.59036144578313" y="253.4578313253012"/>
      <point x="102.04819277108433" y="290.31325301204816"/>
    </contour>
  </outline>
</glyph>
<glyph name="registered" format="2">
  <advance width="815.0"/>
  <unicode hex="00AE"/>
  <outline>
    <contour>
      <point x="408.0" y="-8.457831325301205" type="curve" smooth="yes"/>
      <point x="612.2289156626506" y="-8.457831325301205"/>
      <point x="768.4578313253012" y="148.7710843373494"/>
      <point x="768.4578313253012" y="353.0" type="curve" smooth="yes"/>
      <point x="768.4578313253012" y="557.2289156626506"/>
      <point x="612.2289156626506" y="713.4578313253012"/>
      <point x="408.0" y="713.4578313253012" type="curve" smooth="yes"/>
      <point x="202.7710843373494" y="713.4578313253012"/>
      <point x="46.54216867469879" y="557.2289156626506"/>
      <point x="46.54216867469879" y="353.0" type="curve" smooth="yes"/>
      <point x="46.54216867469879" y="148.7710843373494"/>
      <point x="203.5421686746988" y="-8.457831325301205"/>
    </contour>
    <contour>
      <point x="408.0" y="31.433734939759034" type="curve" smooth="yes"/>
      <point x="226.6024096385542" y="31.433734939759034"/>
      <point x="87.89156626506023" y="170.83132530120483"/>
      <point x="87.89156626506023" y="353.0" type="curve" smooth="yes"/>
      <point x="87.89156626506023" y="535.1686746987951"/>
      <point x="226.6024096385542" y="673.566265060241"/>
      <point x="408.0" y="673.566265060241" type="curve" smooth="yes"/>
      <point x="588.6265060240963" y="673.566265060241"/>
      <point x="727.1084337349398" y="535.1686746987951"/>
      <point x="727.1084337349398" y="353.0" type="curve" smooth="yes"/>
      <point x="727.1084337349398" y="170.83132530120483"/>
      <point x="588.6265060240963" y="31.433734939759034"/>
    </contour>
    <contour>
      <point x="268.421686746988" y="142.0" type="line"/>
      <point x="322.0120481927711" y="142.0" type="line"/>
      <point x="322.0120481927711" y="328.10843373493975" type="line"/>
      <point x="309.86746987951807" y="318.65060240963857" type="line"/>
      <point x="391.4578313253012" y="318.65060240963857" type="line" smooth="yes"/>
      <point x="429.2530120481928" y="318.65060240963857"/>
      <point x="456.1927710843373" y="309.10843373493975"/>
      <point x="470.8192771084337" y="273.93975903614455" type="curve" smooth="yes"/>
      <point x="522.9277108433735" y="142.0" type="line"/>
      <point x="578.5180722891566" y="142.0" type="line"/>
      <point x="525.8674698795181" y="275.50602409638554" type="line" smooth="yes"/>
      <point x="509.86746987951807" y="318.855421686747"/>
      <point x="482.09638554216866" y="333.5421686746988"/>
      <point x="442.95180722891564" y="333.5421686746988" type="curve"/>
      <point x="435.6024096385542" y="324.0843373493976" type="line"/>
      <point x="523.0602409638554" y="324.0843373493976"/>
      <point x="572.7469879518072" y="366.0843373493976"/>
      <point x="572.7469879518072" y="442.31325301204816" type="curve" smooth="yes"/>
      <point x="572.7469879518072" y="518.6265060240963"/>
      <point x="523.8313253012049" y="563.4578313253012"/>
      <point x="435.2289156626506" y="563.4578313253012" type="curve" smooth="yes"/>
      <point x="268.421686746988" y="563.4578313253012" type="line"/>
    </contour>
    <contour>
      <point x="321.7831325301205" y="363.66265060240966" type="line"/>
      <point x="321.7831325301205" y="518.4457831325301" type="line"/>
      <point x="428.3975903614458" y="518.4457831325301" type="line" smooth="yes"/>
      <point x="491.13253012048193" y="518.4457831325301"/>
      <point x="520.3012048192771" y="493.50602409638554"/>
      <point x="520.3012048192771" y="441.1686746987952" type="curve" smooth="yes"/>
      <point x="520.3012048192771" y="387.8313253012048"/>
      <point x="490.3614457831325" y="363.66265060240966"/>
      <point x="428.3975903614458" y="363.66265060240966" type="curve" smooth="yes"/>
    </contour>
  </outline>
</glyph>
<glyph name="plusminus" format="2">
  <advance width="600.0"/>
  <unicode hex="00B1"/>
  <outline>
    <contour>
      <point x="274.04819277108436" y="122.03614457831326" type="line"/>
      <point x="325.95180722891564" y="122.03614457831326" type="line"/>
      <point x="325.95180722891564" y="300.2530120481928" type="line"/>
      <point x="544.0" y="300.2530120481928" type="line"/>
      <point x="544.0" y="350.4698795180723" type="line"/>
      <point x="325.95180722891564" y="350.4698795180723" type="line"/>
      <point x="325.95180722891564" y="528.6867469879518" type="line"/>
      <point x="274.04819277108436" y="528.6867469879518" type="line"/>
      <point x="274.04819277108436" y="350.4698795180723" type="line"/>
      <point x="56.0" y="350.4698795180723" type="line"/>
      <point x="56.0" y="300.2530120481928" type="line"/>
      <point x="274.04819277108436" y="300.2530120481928" type="line"/>
    </contour>
    <contour>
      <point x="56.0" y="0.0" type="line"/>
      <point x="544.0" y="0.0" type="line"/>
      <point x="544.0" y="50.21686746987952" type="line"/>
      <point x="56.0" y="50.21686746987952" type="line"/>
    </contour>
  </outline>
</glyph>
<glyph name="micro" format="2">
  <advance width="600.0"/>
  <unicode hex="00B5"/>
  <outline>
    <contour>
      <point x="103.53012048192771" y="-180.0" type="line"/>
      <point x="164.53012048192772" y="-180.0" type="line"/>
      <point x="159.1566265060241" y="74.13253012048193" type="line"/>
      <point x="144.44578313253012" y="74.13253012048193" type="line"/>
      <point x="169.8433734939759" y="10.626506024096386"/>
      <point x="220.03614457831324" y="-8.457831325301205"/>
      <point x="283.4578313253012" y="-8.457831325301205" type="curve" smooth="yes"/>
      <point x="360.50602409638554" y="-8.457831325301205"/>
      <point x="425.3855421686747" y="35.397590361445786"/>
      <point x="448.32530120481925" y="116.65060240963855" type="curve"/>
      <point x="438.1566265060241" y="116.65060240963855" type="line"/>
      <point x="438.1566265060241" y="0.0" type="line"/>
      <point x="497.69879518072287" y="0.0" type="line"/>
      <point x="497.69879518072287" y="485.144578313253" type="line"/>
      <point x="436.69879518072287" y="485.144578313253" type="line"/>
      <point x="436.69879518072287" y="208.83132530120483" type="line" smooth="yes"/>
      <point x="436.69879518072287" y="109.6987951807229"/>
      <point x="375.04819277108436" y="46.04819277108434"/>
      <point x="282.3734939759036" y="46.04819277108434" type="curve" smooth="yes"/>
      <point x="201.55421686746988" y="46.04819277108434"/>
      <point x="164.53012048192772" y="88.8433734939759"/>
      <point x="164.53012048192772" y="183.289156626506" type="curve" smooth="yes"/>
      <point x="164.53012048192772" y="485.144578313253" type="line"/>
      <point x="103.53012048192771" y="485.144578313253" type="line"/>
    </contour>
  </outline>
</glyph>
<glyph name="paragraph" format="2">
  <advance width="571.7951807228916"/>
  <unicode hex="00B6"/>
  <outline>
    <contour>
      <point x="241.289156626506" y="-180.0" type="line"/>
      <point x="294.50602409638554" y="-180.0" type="line"/>
      <point x="294.50602409638554" y="655.3253012048193" type="line"/>
      <point x="426.9277108433735" y="655.3253012048193" type="line"/>
      <point x="426.9277108433735" y="-180.0" type="line"/>
      <point x="480.144578313253" y="-180.0" type="line"/>
      <point x="480.144578313253" y="705.0" type="line"/>
      <point x="242.51807228915663" y="705.0" type="line" smooth="yes"/>
      <point x="124.855421686747" y="705.0"/>
      <point x="49.10843373493976" y="624.6265060240963"/>
      <point x="49.10843373493976" y="514.0481927710844" type="curve" smooth="yes"/>
      <point x="49.10843373493976" y="403.4698795180723"/>
      <point x="124.855421686747" y="322.86746987951807"/>
      <point x="241.289156626506" y="322.86746987951807" type="curve"/>
    </contour>
  </outline>
</glyph>
<glyph name="questiondown" format="2">
  <advance width="435.86746987951807"/>
  <unicode hex="00BF"/>
  <outline>
    <contour>
      <point x="217.43373493975903" y="-188.4578313253012" type="curve" smooth="yes"/>
      <point x="300.6927710843374" y="-188.4578313253012"/>
      <point x="385.60843373493975" y="-155.3734939759036"/>
      <point x="434.09638554216866" y="-95.97590361445783" type="curve"/>
      <point x="406.1746987951807" y="-49.46987951807229" type="line"/>
      <point x="353.63253012048193" y="-106.49397590361446"/>
      <point x="291.34939759036143" y="-132.12048192771084"/>
      <point x="219.32530120481928" y="-132.12048192771084" type="curve" smooth="yes"/>
      <point x="138.01807228915663" y="-132.12048192771084"/>
      <point x="91.33734939759036" y="-89.43975903614458"/>
      <point x="91.33734939759036" y="-24.132530120481928" type="curve" smooth="yes"/>
      <point x="91.33734939759036" y="23.433734939759034"/>
      <point x="108.19277108433734" y="65.1144578313253"/>
      <point x="164.53012048192772" y="131.30722891566265" type="curve" smooth="yes"/>
      <point x="232.09638554216866" y="210.07228915662648"/>
      <point x="254.40963855421685" y="269.7831325301205"/>
      <point x="254.40963855421685" y="340.26506024096386" type="curve" smooth="yes"/>
      <point x="254.40963855421685" y="362.5" type="line"/>
      <point x="214.10843373493975" y="362.5" type="line"/>
      <point x="211.42168674698794" y="339.8975903614458" type="line" smooth="yes"/>
      <point x="204.96385542168676" y="279.4457831325301"/>
      <point x="181.87951807228916" y="231.73493975903617"/>
      <point x="119.68072289156628" y="159.96987951807228" type="curve" smooth="yes"/>
      <point x="50.795180722891565" y="81.09036144578315"/>
      <point x="28.337349397590362" y="31.861445783132528"/>
      <point x="28.337349397590362" y="-29.710843373493976" type="curve" smooth="yes"/>
      <point x="28.337349397590362" y="-125.1987951807229"/>
      <point x="101.5421686746988" y="-188.4578313253012"/>
    </contour>
    <contour>
      <point x="192.13253012048193" y="449.34939759036143" type="line"/>
      <point x="276.3855421686747" y="449.34939759036143" type="line"/>
      <point x="276.3855421686747" y="535.1445783132531" type="line"/>
      <point x="192.13253012048193" y="535.1445783132531" type="line"/>
    </contour>
  </outline>
</glyph>
<glyph name="germandbls" format="2">
  <advance width="597.4819277108434"/>
  <unicode hex="00DF"/>
  <outline>
    <contour>
      <point x="386.4216867469879" y="-8.457831325301205" type="curve" smooth="yes"/>
      <point x="492.6265060240964" y="-8.457831325301205"/>
      <point x="564.6867469879518" y="51.831325301204814"/>
      <point x="564.6867469879518" y="141.80722891566265" type="curve" smooth="yes"/>
      <point x="564.6867469879518" y="218.26506024096386"/>
      <point x="525.6867469879518" y="259.7530120481928"/>
      <point x="412.9759036144578" y="298.83734939759034" type="curve" smooth="yes"/>
      <point x="332.1506024096385" y="327.0361445783132"/>
      <point x="308.4096385542169" y="348.54819277108436"/>
      <point x="308.4096385542169" y="383.2590361445783" type="curve" smooth="yes"/>
      <point x="308.4096385542169" y="412.54216867469876"/>
      <point x="322.60843373493975" y="430.855421686747"/>
      <point x="371.2048192771084" y="469.71084337349396" type="curve" smooth="yes"/>
      <point x="428.4879518072289" y="515.2530120481928"/>
      <point x="448.8012048192771" y="549.4819277108434"/>
      <point x="448.8012048192771" y="596.5662650602409" type="curve" smooth="yes"/>
      <point x="448.8012048192771" y="670.198795180723"/>
      <point x="388.36746987951807" y="713.4578313253012"/>
      <point x="291.9277108433735" y="713.4578313253012" type="curve" smooth="yes"/>
      <point x="160.96987951807228" y="713.4578313253012"/>
      <point x="80.42168674698794" y="638.1385542168674"/>
      <point x="80.42168674698794" y="499.2710843373494" type="curve" smooth="yes"/>
      <point x="80.42168674698794" y="0.0" type="line"/>
      <point x="141.42168674698794" y="0.0" type="line"/>
      <point x="141.42168674698794" y="503.39156626506025" type="line" smooth="yes"/>
      <point x="141.42168674698794" y="607.6144578313254"/>
      <point x="194.90361445783134" y="662.6686746987953"/>
      <point x="293.2409638554217" y="662.6686746987953" type="curve" smooth="yes"/>
      <point x="354.15060240963857" y="662.6686746987953"/>
      <point x="389.51807228915663" y="637.3855421686746"/>
      <point x="389.51807228915663" y="591.5903614457832" type="curve" smooth="yes"/>
      <point x="389.51807228915663" y="559.7650602409639"/>
      <point x="376.43373493975906" y="536.1385542168674"/>
      <point x="331.4096385542169" y="500.6265060240964" type="curve" smooth="yes"/>
      <point x="269.0120481927711" y="451.855421686747"/>
      <point x="249.04216867469881" y="419.0542168674699"/>
      <point x="249.04216867469881" y="377.93975903614455" type="curve" smooth="yes"/>
      <point x="249.04216867469881" y="321.33734939759034"/>
      <point x="278.84337349397595" y="285.078313253012"/>
      <point x="385.92771084337346" y="249.53614457831324" type="curve" smooth="yes"/>
      <point x="478.0361445783132" y="218.02409638554218"/>
      <point x="504.66265060240966" y="191.1987951807229"/>
      <point x="504.66265060240966" y="140.2048192771084" type="curve" smooth="yes"/>
      <point x="504.66265060240966" y="79.355421686747"/>
      <point x="460.4397590361446" y="42.56024096385542"/>
      <point x="386.84939759036143" y="42.56024096385542" type="curve" smooth="yes"/>
      <point x="333.65060240963857" y="42.56024096385542"/>
      <point x="283.73493975903614" y="59.674698795180724"/>
      <point x="234.27710843373495" y="104.30120481927712" type="curve"/>
      <point x="207.3855421686747" y="61.51204819277108" type="line"/>
      <point x="249.56024096385542" y="18.08433734939759"/>
      <point x="316.933734939759" y="-8.457831325301205"/>
    </contour>
  </outline>
</glyph>
<glyph name="ae" format="2">
  <advance width="858.8313253012049"/>
  <unicode hex="00E6"/>
  <anchor x="415.7710843373494" y="0.0" name="bottom"/>
  <anchor x="415.7710843373494" y="484.0" name="top"/>
  <outline>
    <contour>
      <point x="238.0" y="-9.457831325301205" type="curve" smooth="yes"/>
      <point x="334.1144578313253" y="-9.457831325301205"/>
      <point x="407.3132530120482" y="52.596385542168676"/>
      <point x="423.80120481927713" y="161.33132530120483" type="curve"/>
      <point x="404.6566265060241" y="161.33132530120483" type="line"/>
      <point x="432.0301204819277" y="52.795180722891565"/>
      <point x="509.7469879518072" y="-8.457831325301205"/>
      <point x="628.0602409638554" y="-8.457831325301205" type="curve" smooth="yes"/>
      <point x="692.7469879518072" y="-8.457831325301205"/>
      <point x="763.578313253012" y="16.542168674698793"/>
      <point x="808.2650602409639" y="69.16867469879519" type="curve"/>
      <point x="781.4879518072289" y="111.07228915662651" type="line"/>
      <point x="734.289156626506" y="63.246987951807235"/>
      <point x="679.9457831325301" y="43.704819277108435"/>
      <point x="627.2048192771084" y="43.704819277108435" type="curve" smooth="yes"/>
      <point x="517.0963855421687" y="43.704819277108435"/>
      <point x="448.3313253012048" y="114.89759036144578"/>
      <point x="448.3313253012048" y="266.8012048192771" type="curve" smooth="yes"/>
      <point x="448.3313253012048" y="274.7168674698795" type="line" smooth="yes"/>
      <point x="448.3313253012048" y="415.96385542168673"/>
      <point x="516.0662650602409" y="494.04216867469876"/>
      <point x="612.7710843373494" y="494.04216867469876" type="curve" smooth="yes"/>
      <point x="709.132530120482" y="494.04216867469876"/>
      <point x="759.9277108433735" y="425.73493975903614"/>
      <point x="759.9277108433735" y="289.40361445783134" type="curve"/>
      <point x="775.9277108433735" y="305.89156626506025" type="line"/>
      <point x="438.644578313253" y="305.89156626506025" type="line"/>
      <point x="438.644578313253" y="259.0783132530121" type="line"/>
      <point x="814.0361445783133" y="259.0783132530121" type="line"/>
      <point x="814.0361445783133" y="285.8253012048193" type="line" smooth="yes"/>
      <point x="814.0361445783133" y="451.3975903614458"/>
      <point x="738.7469879518072" y="543.6024096385543"/>
      <point x="613.5120481927711" y="543.6024096385543" type="curve" smooth="yes"/>
      <point x="524.5481927710842" y="543.6024096385543"/>
      <point x="450.8614457831325" y="491.8072289156627"/>
      <point x="417.40361445783134" y="402.15662650602405" type="curve"/>
      <point x="441.26506024096386" y="402.15662650602405" type="line"/>
      <point x="429.06024096385545" y="493.921686746988"/>
      <point x="379.8855421686747" y="543.6024096385543"/>
      <point x="270.94578313253015" y="543.6024096385543" type="curve" smooth="yes"/>
      <point x="203.6566265060241" y="543.6024096385543"/>
      <point x="130.07831325301206" y="521.8012048192771"/>
      <point x="77.96385542168674" y="482.68674698795184" type="curve"/>
      <point x="102.855421686747" y="435.78313253012044" type="line"/>
      <point x="158.9698795180723" y="476.32530120481925"/>
      <point x="210.8012048192771" y="491.8975903614458"/>
      <point x="272.1987951807229" y="491.8975903614458" type="curve" smooth="yes"/>
      <point x="348.87951807228916" y="491.8975903614458"/>
      <point x="387.5903614457831" y="456.41566265060237"/>
      <point x="387.5903614457831" y="356.9698795180723" type="curve" smooth="yes"/>
      <point x="387.5903614457831" y="212.5120481927711" type="line" smooth="yes"/>
      <point x="387.5903614457831" y="106.40963855421687"/>
      <point x="327.48192771084337" y="41.33132530120482"/>
      <point x="244.66265060240966" y="41.33132530120482" type="curve" smooth="yes"/>
      <point x="170.0421686746988" y="41.33132530120482"/>
      <point x="122.70481927710843" y="86.01204819277109"/>
      <point x="122.70481927710843" y="155.63253012048193" type="curve" smooth="yes"/>
      <point x="122.70481927710843" y="234.33734939759037"/>
      <point x="170.41566265060243" y="259.0783132530121"/>
      <point x="361.27710843373495" y="259.0783132530121" type="curve" smooth="yes"/>
      <point x="396.9638554216868" y="259.0783132530121" type="line"/>
      <point x="396.9638554216868" y="305.89156626506025" type="line"/>
      <point x="360.39156626506025" y="305.89156626506025" type="line" smooth="yes"/>
      <point x="127.22289156626505" y="305.89156626506025"/>
      <point x="59.19277108433735" y="264.71686746987956"/>
      <point x="59.19277108433735" y="153.289156626506" type="curve" smooth="yes"/>
      <point x="59.19277108433735" y="58.83132530120482"/>
      <point x="132.53614457831324" y="-9.343373493975903"/>
    </contour>
  </outline>
</glyph>
<glyph name="eth" format="2">
  <advance width="549.9277108433735"/>
  <unicode hex="00F0"/>
  <outline>
    <contour>
      <point x="272.2048192771084" y="-8.457831325301205" type="curve" smooth="yes"/>
      <point x="417.92771084337346" y="-8.457831325301205"/>
      <point x="500.5903614457831" y="94.06024096385542"/>
      <point x="500.5903614457831" y="282.6024096385542" type="curve" smooth="yes"/>
      <point x="500.5903614457831" y="438.04819277108436"/>
      <point x="443.16265060240966" y="556.6746987951807"/>
      <point x="333.16867469879514" y="633.0180722891566" type="curve"/>
      <point x="330.82530120481925" y="624.7590361445783" type="line"/>
      <point x="449.078313253012" y="670.1024096385541" type="line"/>
      <point x="431.6144578313253" y="712.0301204819276" type="line"/>
      <point x="284.6385542168675" y="654.8253012048192" type="line"/>
      <point x="302.21686746987956" y="653.5963855421686" type="line"/>
      <point x="265.9277108433735" y="675.7409638554217"/>
      <point x="216.80722891566265" y="696.9156626506024"/>
      <point x="162.48192771084337" y="711.144578313253" type="curve"/>
      <point x="147.96385542168676" y="667.156626506024" type="line"/>
      <point x="184.68072289156626" y="657.3855421686748"/>
      <point x="216.93975903614458" y="643.9277108433735"/>
      <point x="243.68072289156626" y="630.1867469879518" type="curve"/>
      <point x="245.42168674698797" y="638.4457831325301" type="line"/>
      <point x="112.13855421686748" y="586.5301204819276" type="line"/>
      <point x="129.6024096385542" y="545.4879518072289" type="line"/>
      <point x="296.89156626506025" y="610.6927710843373" type="line"/>
      <point x="277.6927710843374" y="610.2650602409639" type="line"/>
      <point x="384.50602409638554" y="544.5301204819277"/>
      <point x="442.1927710843373" y="438.16867469879514"/>
      <point x="441.1927710843373" y="313.00602409638554" type="curve"/>
      <point x="461.1385542168675" y="313.00602409638554" type="line"/>
      <point x="437.48192771084337" y="423.2590361445783"/>
      <point x="370.56626506024094" y="476.99397590361446"/>
      <point x="271.1144578313253" y="476.99397590361446" type="curve" smooth="yes"/>
      <point x="138.6265060240964" y="476.99397590361446"/>
      <point x="49.566265060240966" y="381.99397590361446"/>
      <point x="49.566265060240966" y="235.1686746987952" type="curve" smooth="yes"/>
      <point x="49.566265060240966" y="86.77108433734941"/>
      <point x="137.7710843373494" y="-8.457831325301205"/>
    </contour>
    <contour>
      <point x="272.34939759036143" y="43.59036144578313" type="curve" smooth="yes"/>
      <point x="171.44578313253012" y="43.59036144578313"/>
      <point x="111.56626506024097" y="112.78313253012048"/>
      <point x="111.56626506024097" y="235.1686746987952" type="curve" smooth="yes"/>
      <point x="111.56626506024097" y="355.4397590361446"/>
      <point x="173.2168674698795" y="425.40361445783134"/>
      <point x="273.12048192771084" y="425.40361445783134" type="curve" smooth="yes"/>
      <point x="373.71084337349396" y="425.40361445783134"/>
      <point x="434.90361445783134" y="353.6686746987952"/>
      <point x="434.90361445783134" y="235.1686746987952" type="curve" smooth="yes"/>
      <point x="434.90361445783134" y="114.66867469879519"/>
      <point x="372.71084337349396" y="43.59036144578313"/>
    </contour>
  </outline>
</glyph>
<glyph name="dcroat" format="2">
  <advance width="575.3253012048193"/>
  <unicode hex="0111"/>
  <outline>
    <contour>
      <point x="265.6807228915663" y="-8.457831325301205" type="curve" smooth="yes"/>
      <point x="356.16265060240966" y="-8.457831325301205"/>
      <point x="424.8192771084337" y="42.05421686746988"/>
      <point x="446.3614457831325" y="134.47590361445782" type="curve"/>
      <point x="434.3614457831325" y="134.47590361445782" type="line"/>
      <point x="434.3614457831325" y="0.0" type="line"/>
      <point x="495.13253012048193" y="0.0" type="line"/>
      <point x="495.13253012048193" y="585.3313253012047" type="line"/>
      <point x="588.3012048192771" y="585.3313253012047" type="line"/>
      <point x="588.3012048192771" y="633.2349397590361" type="line"/>
      <point x="495.13253012048193" y="633.2349397590361" type="line"/>
      <point x="495.13253012048193" y="705.0" type="line"/>
      <point x="434.13253012048193" y="705.0" type="line"/>
      <point x="434.13253012048193" y="633.2349397590361" type="line"/>
      <point x="256.6746987951807" y="633.2349397590361" type="line"/>
      <point x="256.6746987951807" y="585.3313253012047" type="line"/>
      <point x="434.13253012048193" y="585.3313253012047" type="line"/>
      <point x="434.13253012048193" y="397.34939759036143" type="line"/>
      <point x="446.13253012048193" y="397.34939759036143" type="line"/>
      <point x="424.3614457831325" y="488.85542168674704"/>
      <point x="355.93373493975906" y="539.0240963855422"/>
      <point x="265.6807228915663" y="539.0240963855422" type="curve" smooth="yes"/>
      <point x="135.25301204819277" y="539.0240963855422"/>
      <point x="49.795180722891565" y="442.68072289156623"/>
      <point x="49.795180722891565" y="265.39759036144574" type="curve" smooth="yes"/>
      <point x="49.795180722891565" y="89.0"/>
      <point x="136.25301204819277" y="-8.457831325301205"/>
    </contour>
    <contour>
      <point x="273.578313253012" y="43.36144578313253" type="curve" smooth="yes"/>
      <point x="177.3313253012048" y="43.36144578313253"/>
      <point x="111.79518072289156" y="114.98192771084337"/>
      <point x="111.79518072289156" y="265.39759036144574" type="curve" smooth="yes"/>
      <point x="111.79518072289156" y="416.69879518072287"/>
      <point x="177.3313253012048" y="487.20481927710847"/>
      <point x="273.578313253012" y="487.20481927710847" type="curve" smooth="yes"/>
      <point x="369.59638554216866" y="487.20481927710847"/>
      <point x="435.3614457831325" y="416.69879518072287"/>
      <point x="435.3614457831325" y="265.39759036144574" type="curve" smooth="yes"/>
      <point x="435.3614457831325" y="114.98192771084337"/>
      <point x="369.59638554216866" y="43.36144578313253"/>
    </contour>
  </outline>
</glyph>
<glyph name="Hbar" format="2">
  <advance width="789.2409638554217"/>
  <unicode hex="0126"/>
  <outline>
    <contour>
      <point x="108.25301204819277" y="0.0" type="line"/>
      <point x="169.93975903614458" y="0.0" type="line"/>
      <point x="169.93975903614458" y="327.9277108433735" type="line"/>
      <point x="619.3012048192771" y="327.9277108433735" type="line"/>
      <point x="619.3012048192771" y="0.0" type="line"/>
      <point x="680.9879518072289" y="0.0" type="line"/>
      <point x="680.9879518072289" y="523.3373493975904" type="line"/>
      <point x="774.4698795180723" y="523.3373493975904" type="line"/>
      <point x="774.4698795180723" y="574.156626506024" type="line"/>
      <point x="680.9879518072289" y="574.156626506024" type="line"/>
      <point x="680.9879518072289" y="705.0" type="line"/>
      <point x="619.3012048192771" y="705.0" type="line"/>
      <point x="619.3012048192771" y="574.156626506024" type="line"/>
      <point x="169.93975903614458" y="574.156626506024" type="line"/>
      <point x="169.93975903614458" y="705.0" type="line"/>
      <point x="108.25301204819277" y="705.0" type="line"/>
      <point x="108.25301204819277" y="574.156626506024" type="line"/>
      <point x="14.771084337349398" y="574.156626506024" type="line"/>
      <point x="14.771084337349398" y="523.3373493975904" type="line"/>
      <point x="108.25301204819277" y="523.3373493975904" type="line"/>
    </contour>
    <contour>
      <point x="169.93975903614458" y="382.49397590361446" type="line"/>
      <point x="169.93975903614458" y="523.3373493975904" type="line"/>
      <point x="619.3012048192771" y="523.3373493975904" type="line"/>
      <point x="619.3012048192771" y="382.49397590361446" type="line"/>
    </contour>
  </outline>
</glyph>
<glyph name="hbar" format="2">
  <advance width="560.3253012048193"/>
  <unicode hex="0127"/>
  <outline>
    <contour>
      <point x="80.42168674698794" y="0.0" type="line"/>
      <point x="141.42168674698794" y="0.0" type="line"/>
      <point x="141.42168674698794" y="315.6506024096385" type="line" smooth="yes"/>
      <point x="141.42168674698794" y="420.09638554216866"/>
      <point x="204.7289156626506" y="486.51807228915663"/>
      <point x="300.8614457831325" y="486.51807228915663" type="curve" smooth="yes"/>
      <point x="384.65060240963857" y="486.51807228915663"/>
      <point x="421.13253012048193" y="442.7228915662651"/>
      <point x="421.13253012048193" y="338.7048192771084" type="curve" smooth="yes"/>
      <point x="421.13253012048193" y="0.0" type="line"/>
      <point x="482.13253012048193" y="0.0" type="line"/>
      <point x="482.13253012048193" y="344.0481927710843" type="line" smooth="yes"/>
      <point x="482.13253012048193" y="475.2228915662651"/>
      <point x="425.3614457831325" y="539.0240963855422"/>
      <point x="310.01807228915663" y="539.0240963855422" type="curve" smooth="yes"/>
      <point x="224.62048192771084" y="539.0240963855422"/>
      <point x="154.76506024096386" y="494.3975903614458"/>
      <point x="128.96385542168676" y="413.6024096385542" type="curve"/>
      <point x="141.42168674698794" y="413.6024096385542" type="line"/>
      <point x="141.42168674698794" y="585.3313253012047" type="line"/>
      <point x="336.5903614457831" y="585.3313253012047" type="line"/>
      <point x="336.5903614457831" y="633.2349397590361" type="line"/>
      <point x="141.42168674698794" y="633.2349397590361" type="line"/>
      <point x="141.42168674698794" y="705.0" type="line"/>
      <point x="80.42168674698794" y="705.0" type="line"/>
      <point x="80.42168674698794" y="633.2349397590361" type="line"/>
      <point x="-12.74698795180723" y="633.2349397590361" type="line"/>
      <point x="-12.74698795180723" y="585.3313253012047" type="line"/>
      <point x="80.42168674698794" y="585.3313253012047" type="line"/>
    </contour>
  </outline>
</glyph>
<glyph name="eng" format="2">
  <advance width="560.3253012048193"/>
  <unicode hex="014B"/>
  <outline>
    <contour>
      <point x="284.7710843373494" y="-193.0" type="line"/>
      <point x="328.0" y="-190.0" type="line" smooth="yes"/>
      <point x="429.4457831325301" y="-183.0843373493976"/>
      <point x="482.13253012048193" y="-123.5421686746988"/>
      <point x="482.13253012048193" y="-14.132530120481928" type="curve" smooth="yes"/>
      <point x="482.13253012048193" y="348.28313253012044" type="line" smooth="yes"/>
      <point x="482.13253012048193" y="480.4578313253012"/>
      <point x="425.2469879518072" y="543.6024096385543"/>
      <point x="310.01807228915663" y="543.6024096385543" type="curve" smooth="yes"/>
      <point x="224.62048192771084" y="543.6024096385543"/>
      <point x="155.65060240963857" y="499.8614457831325"/>
      <point x="129.19277108433735" y="417.83734939759034" type="curve"/>
      <point x="140.84939759036146" y="417.83734939759034" type="line"/>
      <point x="140.84939759036146" y="535.1445783132531" type="line"/>
      <point x="80.42168674698794" y="535.1445783132531" type="line"/>
      <point x="80.42168674698794" y="0.0" type="line"/>
      <point x="141.42168674698794" y="0.0" type="line"/>
      <point x="141.42168674698794" y="319.54216867469876" type="line" smooth="yes"/>
      <point x="141.42168674698794" y="424.3313253012048"/>
      <point x="204.7289156626506" y="490.98192771084337"/>
      <point x="300.8614457831325" y="490.98192771084337" type="curve" smooth="yes"/>
      <point x="384.65060240963857" y="490.98192771084337"/>
      <point x="421.13253012048193" y="447.07228915662654"/>
      <point x="421.13253012048193" y="343.1686746987952" type="curve" smooth="yes"/>
      <point x="421.13253012048193" y="-18.566265060240966" type="line" smooth="yes"/>
      <point x="421.13253012048193" y="-93.07228915662651"/>
      <point x="386.87951807228916" y="-134.18072289156626"/>
      <point x="322.5421686746988" y="-139.40963855421688" type="curve" smooth="yes"/>
      <point x="280.6265060240964" y="-142.86746987951807" type="line"/>
    </contour>
  </outline>
</glyph>
<glyph name="oe" format="2">
  <advance width="907.8313253012049"/>
  <unicode hex="0153"/>
  <anchor x="466.06024096385545" y="0.0" name="bottom"/>
  <anchor x="466.06024096385545" y="484.0" name="top"/>
  <outline>
    <contour>
      <point x="272.89156626506025" y="-8.457831325301205" type="curve" smooth="yes"/>
      <point x="374.8614457831325" y="-8.457831325301205"/>
      <point x="451.63253012048193" y="49.566265060240966"/>
      <point x="479.37951807228916" y="169.9277108433735" type="curve"/>
      <point x="452.3132530120482" y="169.9277108433735" type="line"/>
      <point x="477.6024096385542" y="54.337349397590366"/>
      <point x="558.0903614457831" y="-8.457831325301205"/>
      <point x="677.8313253012049" y="-8.457831325301205" type="curve" smooth="yes"/>
      <point x="742.632530120482" y="-8.457831325301205"/>
      <point x="813.3493975903614" y="16.542168674698793"/>
      <point x="857.2650602409639" y="69.16867469879519" type="curve"/>
      <point x="830.4879518072289" y="111.07228915662651" type="line"/>
      <point x="783.289156626506" y="63.246987951807235"/>
      <point x="729.0602409638554" y="43.704819277108435"/>
      <point x="677.4036144578313" y="43.704819277108435" type="curve" smooth="yes"/>
      <point x="565.1807228915662" y="43.704819277108435"/>
      <point x="497.1024096385542" y="115.355421686747"/>
      <point x="497.1024096385542" y="266.2590361445783" type="curve" smooth="yes"/>
      <point x="497.1024096385542" y="273.28915662650604" type="line" smooth="yes"/>
      <point x="497.1024096385542" y="414.48192771084337"/>
      <point x="562.7530120481928" y="494.04216867469876"/>
      <point x="662.5421686746988" y="494.04216867469876" type="curve" smooth="yes"/>
      <point x="757.9036144578313" y="494.04216867469876"/>
      <point x="808.8132530120481" y="425.73493975903614"/>
      <point x="808.8132530120481" y="289.51807228915663" type="curve"/>
      <point x="825.156626506024" y="302.12048192771084" type="line"/>
      <point x="476.9879518072289" y="302.12048192771084" type="line"/>
      <point x="476.9879518072289" y="255.30722891566265" type="line"/>
      <point x="863.0361445783133" y="255.30722891566265" type="line"/>
      <point x="863.0361445783133" y="285.8253012048193" type="line" smooth="yes"/>
      <point x="863.0361445783133" y="451.1686746987952"/>
      <point x="788.5180722891566" y="543.6024096385543"/>
      <point x="663.5120481927711" y="543.6024096385543" type="curve" smooth="yes"/>
      <point x="563.343373493976" y="543.6024096385543"/>
      <point x="480.7168674698795" y="480.6626506024096"/>
      <point x="453.3433734939759" y="363.93373493975906" type="curve"/>
      <point x="479.921686746988" y="363.93373493975906" type="line"/>
      <point x="454.48795180722897" y="483.8373493975904"/>
      <point x="375.63253012048193" y="543.6024096385543"/>
      <point x="272.89156626506025" y="543.6024096385543" type="curve" smooth="yes"/>
      <point x="138.4277108433735" y="543.6024096385543"/>
      <point x="49.566265060240966" y="446.5722891566265"/>
      <point x="49.566265060240966" y="267.8012048192771" type="curve" smooth="yes"/>
      <point x="49.566265060240966" y="89.8012048192771"/>
      <point x="138.4277108433735" y="-8.457831325301205"/>
    </contour>
    <contour>
      <point x="273.34939759036143" y="43.59036144578313" type="curve" smooth="yes"/>
      <point x="176.8734939759036" y="43.59036144578313"/>
      <point x="111.56626506024097" y="116.01204819277109"/>
      <point x="111.56626506024097" y="267.6867469879518" type="curve" smooth="yes"/>
      <point x="111.56626506024097" y="420.2469879518072"/>
      <point x="176.75903614457832" y="491.5542168674699"/>
      <point x="273.34939759036143" y="491.5542168674699" type="curve" smooth="yes"/>
      <point x="369.8253012048193" y="491.5542168674699"/>
      <point x="435.13253012048193" y="420.2469879518072"/>
      <point x="435.13253012048193" y="267.6867469879518" type="curve" smooth="yes"/>
      <point x="435.13253012048193" y="116.01204819277109"/>
      <point x="369.9397590361446" y="43.59036144578313"/>
    </contour>
  </outline>
</glyph>
<glyph name="Dhook" format="2">
  <advance width="845.6867469879518"/>
  <unicode hex="018A"/>
  <outline>
    <contour>
      <point x="203.86746987951807" y="0.0" type="line"/>
      <point x="431.1686746987952" y="0.0" type="line" smooth="yes"/>
      <point x="655.6024096385543" y="0.0"/>
      <point x="781.8915662650602" y="123.91566265060241"/>
      <point x="781.8915662650602" y="353.0" type="curve" smooth="yes"/>
      <point x="781.8915662650602" y="582.0843373493976"/>
      <point x="655.6024096385543" y="705.0"/>
      <point x="431.1686746987952" y="705.0" type="curve" smooth="yes"/>
      <point x="169.8433734939759" y="705.0" type="line" smooth="yes"/>
      <point x="56.433734939759034" y="705.0"/>
      <point x="0.0" y="651.2530120481928"/>
      <point x="0.0" y="544.1325301204819" type="curve" smooth="yes"/>
      <point x="0.0" y="497.5301204819277" type="line"/>
      <point x="54.10843373493976" y="497.5301204819277" type="line"/>
      <point x="54.10843373493976" y="540.6746987951807" type="line" smooth="yes"/>
      <point x="54.10843373493976" y="618.6987951807229"/>
      <point x="91.04819277108433" y="654.0963855421687"/>
      <point x="168.6144578313253" y="654.0963855421687" type="curve" smooth="yes"/>
      <point x="203.86746987951807" y="654.0963855421687" type="line"/>
    </contour>
    <contour>
      <point x="265.5542168674699" y="54.33734939759036" type="line"/>
      <point x="265.5542168674699" y="650.6626506024096" type="line"/>
      <point x="426.2530120481928" y="650.6626506024096" type="line" smooth="yes"/>
      <point x="620.0963855421687" y="650.6626506024096"/>
      <point x="716.5180722891566" y="551.156626506024"/>
      <point x="716.5180722891566" y="353.0" type="curve" smooth="yes"/>
      <point x="716.5180722891566" y="154.8433734939759"/>
      <point x="620.3253012048193" y="54.33734939759036"/>
      <point x="426.2530120481928" y="54.33734939759036" type="curve" smooth="yes"/>
    </contour>
  </outline>
</glyph>
<glyph name="florin" format="2">
  <advance width="600.0"/>
  <unicode hex="0192"/>
  <outline>
    <contour>
      <point x="45.10843373493976" y="-188.4578313253012" type="line"/>
      <point x="90.28915662650603" y="-188.4578313253012" type="line" smooth="yes"/>
      <point x="191.26506024096386" y="-188.4578313253012"/>
      <point x="246.0722891566265" y="-131.48192771084337"/>
      <point x="267.9879518072289" y="-30.216867469879517" type="curve" smooth="yes"/>
      <point x="369.32530120481925" y="443.3855421686747" type="line"/>
      <point x="352.1807228915663" y="435.86746987951807" type="line"/>
      <point x="505.72289156626505" y="435.86746987951807" type="line"/>
      <point x="505.72289156626505" y="485.144578313253" type="line"/>
      <point x="364.5542168674699" y="485.144578313253" type="line"/>
      <point x="375.3855421686747" y="472.0" type="line"/>
      <point x="391.7831325301205" y="550.2168674698795" type="line" smooth="yes"/>
      <point x="409.6385542168675" y="634.9518072289156"/>
      <point x="447.34939759036143" y="660.4939759036145"/>
      <point x="513.0602409638554" y="660.4939759036145" type="curve" smooth="yes"/>
      <point x="553.1204819277109" y="660.4939759036145" type="line"/>
      <point x="553.1204819277109" y="713.4578313253012" type="line"/>
      <point x="510.0843373493976" y="713.4578313253012" type="line" smooth="yes"/>
      <point x="407.421686746988" y="713.4578313253012"/>
      <point x="352.6144578313253" y="656.2530120481928"/>
      <point x="331.2409638554217" y="554.2168674698795" type="curve" smooth="yes"/>
      <point x="313.8433734939759" y="472.0" type="line"/>
      <point x="327.27710843373495" y="485.144578313253" type="line"/>
      <point x="180.36144578313252" y="485.144578313253" type="line"/>
      <point x="180.36144578313252" y="435.86746987951807" type="line"/>
      <point x="319.9879518072289" y="435.86746987951807" type="line"/>
      <point x="307.0120481927711" y="441.6144578313253" type="line"/>
      <point x="207.67469879518072" y="-26.216867469879517" type="line" smooth="yes"/>
      <point x="189.81927710843374" y="-109.40963855421687"/>
      <point x="151.10843373493975" y="-137.26506024096386"/>
      <point x="88.2289156626506" y="-137.26506024096386" type="curve" smooth="yes"/>
      <point x="45.10843373493976" y="-137.26506024096386" type="line"/>
    </contour>
  </outline>
</glyph>
<glyph name="yhook" format="2">
  <advance width="542.4698795180723"/>
  <unicode hex="01B4"/>
  <outline>
    <contour>
      <point x="395.7590361445783" y="447.65060240963857" type="curve" smooth="yes"/>
      <point x="242.63253012048193" y="40.89156626506024" type="line"/>
      <point x="267.89156626506025" y="40.89156626506024" type="line"/>
      <point x="83.73493975903615" y="535.1445783132531" type="line"/>
      <point x="16.048192771084338" y="535.1445783132531" type="line"/>
      <point x="228.27710843373495" y="-15.168674698795181" type="line"/>
      <point x="228.27710843373495" y="13.096385542168674" type="line"/>
      <point x="150.84337349397592" y="-180.0" type="line"/>
      <point x="215.8433734939759" y="-180.0" type="line"/>
      <point x="445.6385542168675" y="413.2710843373494" type="line" smooth="yes"/>
      <point x="469.7228915662651" y="474.7530120481928"/>
      <point x="492.9819277108434" y="491.86746987951807"/>
      <point x="535.3795180722892" y="491.86746987951807" type="curve" smooth="yes"/>
      <point x="546.8373493975904" y="491.86746987951807"/>
      <point x="561.3795180722892" y="490.09638554216866"/>
      <point x="572.8373493975904" y="485.86746987951807" type="curve"/>
      <point x="581.8975903614459" y="535.6867469879519" type="line"/>
      <point x="565.8975903614459" y="541.1445783132531"/>
      <point x="550.2349397590361" y="543.6024096385543"/>
      <point x="527.8614457831326" y="543.6024096385543" type="curve" smooth="yes"/>
      <point x="460.1927710843373" y="543.6024096385543"/>
      <point x="420.3313253012048" y="512.9397590361446"/>
    </contour>
  </outline>
</glyph>
<glyph name="gstroke" format="2">
  <advance width="577.7831325301205"/>
  <unicode hex="01E5"/>
  <outline>
    <contour>
      <point x="290.68674698795184" y="-188.4578313253012" type="curve" smooth="yes"/>
      <point x="398.2951807228916" y="-188.4578313253012"/>
      <point x="464.95783132530124" y="-143.5421686746988"/>
      <point x="488.6746987951807" y="-52.68072289156627" type="curve"/>
      <point x="473.644578313253" y="-59.90963855421687" type="line"/>
      <point x="567.9277108433735" y="-59.90963855421687" type="line"/>
      <point x="567.9277108433735" y="-13.951807228915662" type="line"/>
      <point x="487.9879518072289" y="-13.951807228915662" type="line"/>
      <point x="493.2469879518072" y="-30.391566265060238" type="line"/>
      <point x="496.2469879518072" y="-13.734939759036145"/>
      <point x="497.3614457831325" y="7.036144578313253"/>
      <point x="497.3614457831325" y="27.837349397590362" type="curve" smooth="yes"/>
      <point x="497.3614457831325" y="535.1445783132531" type="line"/>
      <point x="437.93373493975906" y="535.1445783132531" type="line"/>
      <point x="437.93373493975906" y="404.1265060240964" type="line"/>
      <point x="448.13253012048193" y="403.6686746987952" type="line"/>
      <point x="426.93373493975906" y="494.51807228915663"/>
      <point x="359.7048192771084" y="543.6024096385543"/>
      <point x="267.7951807228916" y="543.6024096385543" type="curve" smooth="yes"/>
      <point x="137.45180722891567" y="543.6024096385543"/>
      <point x="49.566265060240966" y="449.11445783132535"/>
      <point x="49.566265060240966" y="290.20481927710847" type="curve" smooth="yes"/>
      <point x="49.566265060240966" y="130.52409638554218"/>
      <point x="137.45180722891567" y="36.036144578313255"/>
      <point x="267.7951807228916" y="36.036144578313255" type="curve" smooth="yes"/>
      <point x="359.4759036144578" y="36.036144578313255"/>
      <point x="426.93373493975906" y="84.34939759036145"/>
      <point x="448.2469879518072" y="176.0843373493976" type="curve"/>
      <point x="437.8192771084337" y="176.0843373493976" type="line"/>
      <point x="437.8192771084337" y="21.409638554216865" type="line" smooth="yes"/>
      <point x="437.8192771084337" y="3.7530120481927707"/>
      <point x="437.04819277108436" y="-11.873493975903616"/>
      <point x="434.04819277108436" y="-26.53012048192771" type="curve"/>
      <point x="439.8493975903615" y="-13.951807228915662" type="line"/>
      <point x="308.73493975903614" y="-13.951807228915662" type="line"/>
      <point x="308.73493975903614" y="-59.90963855421687" type="line"/>
      <point x="432.4698795180723" y="-59.90963855421687" type="line"/>
      <point x="425.53012048192767" y="-53.90963855421687" type="line"/>
      <point x="405.07228915662654" y="-107.27108433734941"/>
      <point x="359.4759036144578" y="-135.72289156626505"/>
      <point x="289.1686746987952" y="-135.72289156626505" type="curve" smooth="yes"/>
      <point x="216.6867469879518" y="-135.72289156626505"/>
      <point x="164.56626506024097" y="-118.72289156626506"/>
      <point x="103.05421686746989" y="-74.355421686747" type="curve"/>
      <point x="79.50602409638554" y="-120.83132530120481" type="line"/>
      <point x="136.42168674698794" y="-166.14457831325302"/>
      <point x="208.16867469879517" y="-188.4578313253012"/>
    </contour>
    <contour>
      <point x="274.578313253012" y="88.08433734939759" type="curve" smooth="yes"/>
      <point x="177.67469879518072" y="88.08433734939759"/>
      <point x="111.56626506024097" y="156.19277108433732"/>
      <point x="111.56626506024097" y="290.31927710843377" type="curve" smooth="yes"/>
      <point x="111.56626506024097" y="423.67469879518075"/>
      <point x="177.56024096385542" y="491.7831325301205"/>
      <point x="274.578313253012" y="491.7831325301205" type="curve" smooth="yes"/>
      <point x="372.36746987951807" y="491.7831325301205"/>
      <point x="437.4759036144578" y="423.56024096385545"/>
      <point x="437.4759036144578" y="290.31927710843377" type="curve" smooth="yes"/>
      <point x="437.4759036144578" y="157.07831325301203"/>
      <point x="372.2530120481928" y="88.08433734939759"/>
    </contour>
  </outline>
</glyph>
<glyph name="bhook" format="2">
  <advance width="575.3253012048193"/>
  <unicode hex="0253"/>
  <outline>
    <contour>
      <point x="310.7590361445783" y="-8.457831325301205" type="curve" smooth="yes"/>
      <point x="440.1867469879518" y="-8.457831325301205"/>
      <point x="525.7590361445783" y="88.7710843373494"/>
      <point x="525.7590361445783" y="264.82530120481925" type="curve" smooth="yes"/>
      <point x="525.7590361445783" y="441.76506024096386"/>
      <point x="440.3012048192771" y="537.8795180722892"/>
      <point x="310.7590361445783" y="537.8795180722892" type="curve" smooth="yes"/>
      <point x="220.50602409638554" y="537.8795180722892"/>
      <point x="151.96385542168676" y="487.710843373494"/>
      <point x="129.30722891566265" y="396.3192771084337" type="curve"/>
      <point x="141.42168674698794" y="396.3192771084337" type="line"/>
      <point x="141.42168674698794" y="555.6987951807229" type="line" smooth="yes"/>
      <point x="141.42168674698794" y="623.6385542168674"/>
      <point x="174.04819277108433" y="661.4939759036145"/>
      <point x="239.0722891566265" y="661.4939759036145" type="curve" smooth="yes"/>
      <point x="252.3012048192771" y="661.4939759036145"/>
      <point x="260.5301204819277" y="660.4939759036145"/>
      <point x="278.30120481927713" y="655.722891566265" type="curve"/>
      <point x="286.13253012048193" y="705.7710843373494" type="line"/>
      <point x="270.4457831325301" y="711.0"/>
      <point x="253.6987951807229" y="713.4578313253012"/>
      <point x="235.0120481927711" y="713.4578313253012" type="curve" smooth="yes"/>
      <point x="134.0843373493976" y="713.4578313253012"/>
      <point x="80.42168674698794" y="656.4216867469879"/>
      <point x="80.42168674698794" y="554.3855421686746" type="curve" smooth="yes"/>
      <point x="80.42168674698794" y="0.0" type="line"/>
      <point x="140.73493975903614" y="0.0" type="line"/>
      <point x="140.73493975903614" y="134.2469879518072" type="line"/>
      <point x="129.07831325301206" y="134.2469879518072" type="line"/>
      <point x="151.50602409638554" y="41.93975903614458"/>
      <point x="220.04819277108433" y="-8.457831325301205"/>
    </contour>
    <contour>
      <point x="301.9759036144578" y="43.36144578313253" type="curve" smooth="yes"/>
      <point x="205.7289156626506" y="43.36144578313253"/>
      <point x="140.19277108433735" y="114.98192771084337"/>
      <point x="140.19277108433735" y="264.82530120481925" type="curve" smooth="yes"/>
      <point x="140.19277108433735" y="415.5542168674699"/>
      <point x="205.7289156626506" y="486.06024096385545"/>
      <point x="301.9759036144578" y="486.06024096385545" type="curve" smooth="yes"/>
      <point x="397.99397590361446" y="486.06024096385545"/>
      <point x="463.7590361445783" y="415.5542168674699"/>
      <point x="463.7590361445783" y="264.82530120481925" type="curve" smooth="yes"/>
      <point x="463.7590361445783" y="114.98192771084337"/>
      <point x="397.99397590361446" y="43.36144578313253"/>
    </contour>
  </outline>
</glyph>
<glyph name="dhook" format="2">
  <advance width="575.3253012048193"/>
  <unicode hex="0257"/>
  <outline>
    <contour>
      <point x="265.33734939759034" y="-8.457831325301205" type="curve" smooth="yes"/>
      <point x="355.93373493975906" y="-8.457831325301205"/>
      <point x="424.4759036144578" y="42.05421686746988"/>
      <point x="446.01807228915663" y="134.8192771084337" type="curve"/>
      <point x="435.4759036144578" y="134.8192771084337" type="line"/>
      <point x="435.4759036144578" y="0.0" type="line"/>
      <point x="494.90361445783134" y="0.0" type="line"/>
      <point x="494.90361445783134" y="555.6987951807229" type="line" smooth="yes"/>
      <point x="494.90361445783134" y="625.0120481927711"/>
      <point x="528.6746987951807" y="661.4939759036145"/>
      <point x="592.5542168674699" y="661.4939759036145" type="curve" smooth="yes"/>
      <point x="605.7831325301205" y="661.4939759036145"/>
      <point x="614.0120481927711" y="660.4939759036145"/>
      <point x="631.7831325301205" y="655.722891566265" type="curve"/>
      <point x="639.6144578313254" y="705.7710843373494" type="line"/>
      <point x="624.156626506024" y="711.0"/>
      <point x="607.1807228915662" y="713.4578313253012"/>
      <point x="588.0361445783133" y="713.4578313253012" type="curve" smooth="yes"/>
      <point x="487.56626506024094" y="713.4578313253012"/>
      <point x="433.90361445783134" y="655.7349397590361"/>
      <point x="433.90361445783134" y="556.5602409638553" type="curve" smooth="yes"/>
      <point x="433.90361445783134" y="401.4698795180723" type="line"/>
      <point x="445.78915662650604" y="401.4698795180723" type="line"/>
      <point x="424.01807228915663" y="493.31927710843377"/>
      <point x="355.7048192771084" y="543.6024096385543"/>
      <point x="265.33734939759034" y="543.6024096385543" type="curve" smooth="yes"/>
      <point x="134.90963855421685" y="543.6024096385543"/>
      <point x="49.566265060240966" y="446.8012048192771"/>
      <point x="49.566265060240966" y="267.6867469879518" type="curve" smooth="yes"/>
      <point x="49.566265060240966" y="89.5722891566265"/>
      <point x="135.79518072289156" y="-8.457831325301205"/>
    </contour>
    <contour>
      <point x="273.34939759036143" y="43.704819277108435" type="curve" smooth="yes"/>
      <point x="176.75903614457832" y="43.704819277108435"/>
      <point x="111.56626506024097" y="116.01204819277108"/>
      <point x="111.56626506024097" y="267.8012048192771" type="curve" smooth="yes"/>
      <point x="111.56626506024097" y="420.4759036144578"/>
      <point x="176.75903614457832" y="491.6686746987952"/>
      <point x="273.34939759036143" y="491.6686746987952" type="curve" smooth="yes"/>
      <point x="369.8253012048193" y="491.6686746987952"/>
      <point x="435.13253012048193" y="420.4759036144578"/>
      <point x="435.13253012048193" y="267.8012048192771" type="curve" smooth="yes"/>
      <point x="435.13253012048193" y="116.01204819277108"/>
      <point x="369.8253012048193" y="43.704819277108435"/>
    </contour>
  </outline>
</glyph>
<glyph name="schwa" format="2">
  <advance width="527.5783132530121"/>
  <unicode hex="0259"/>
  <outline>
    <contour>
      <point x="256.63253012048193" y="-8.457831325301205" type="curve" smooth="yes"/>
      <point x="385.066265060241" y="-8.457831325301205"/>
      <point x="478.0120481927711" y="95.06024096385542"/>
      <point x="478.0120481927711" y="270.1144578313253" type="curve" smooth="yes"/>
      <point x="478.0120481927711" y="448.11445783132535"/>
      <point x="383.6927710843374" y="543.6024096385543"/>
      <point x="238.3433734939759" y="543.6024096385543" type="curve" smooth="yes"/>
      <point x="170.8855421686747" y="543.6024096385543"/>
      <point x="99.16867469879519" y="519.0602409638554"/>
      <point x="50.566265060240966" y="468.2048192771084" type="curve"/>
      <point x="78.2289156626506" y="426.1867469879518" type="line"/>
      <point x="128.5722891566265" y="473.2409638554217"/>
      <point x="183.8012048192771" y="491.5542168674699"/>
      <point x="238.3132530120482" y="491.5542168674699" type="curve" smooth="yes"/>
      <point x="347.39156626506025" y="491.5542168674699"/>
      <point x="417.6144578313253" y="420.4759036144578"/>
      <point x="417.6144578313253" y="269.45783132530124" type="curve" smooth="yes"/>
      <point x="417.6144578313253" y="262.4277108433735" type="line" smooth="yes"/>
      <point x="417.6144578313253" y="116.95180722891565"/>
      <point x="349.5361445783132" y="41.98795180722892"/>
      <point x="256.17469879518075" y="41.98795180722892" type="curve" smooth="yes"/>
      <point x="154.04216867469881" y="41.98795180722892"/>
      <point x="101.59036144578313" y="107.95180722891565"/>
      <point x="101.59036144578313" y="247.93975903614458" type="curve"/>
      <point x="82.13253012048193" y="233.02409638554218" type="line"/>
      <point x="434.8433734939759" y="233.02409638554218" type="line"/>
      <point x="434.8433734939759" y="279.83734939759034" type="line"/>
      <point x="44.795180722891565" y="279.83734939759034" type="line"/>
      <point x="44.795180722891565" y="250.17469879518072" type="line" smooth="yes"/>
      <point x="44.795180722891565" y="81.37349397590361"/>
      <point x="122.74096385542168" y="-8.457831325301205"/>
    </contour>
  </outline>
</glyph>
<glyph name="commaturnedmod" format="2">
  <advance width="500.0"/>
  <unicode hex="02BB"/>
  <anchor x="250.0" y="484.0" name="_top"/>
  <anchor x="250.0" y="685.0" name="top"/>
  <outline>
    <contour>
      <point x="208.13253012048193" y="609.1987951807229" type="line"/>
      <point x="291.09638554216866" y="609.1987951807229" type="line"/>
      <point x="291.09638554216866" y="683.9819277108434" type="line"/>
      <point x="230.710843373494" y="683.9819277108434" type="line"/>
      <point x="252.0" y="674.1506024096386" type="line"/>
      <point x="252.0" y="697.3795180722892"/>
      <point x="256.68674698795184" y="721.3795180722892"/>
      <point x="283.34337349397595" y="748.2349397590361" type="curve"/>
      <point x="252.53614457831324" y="770.0963855421686" type="line"/>
      <point x="218.81927710843374" y="739.066265060241"/>
      <point x="208.13253012048193" y="700.921686746988"/>
      <point x="208.13253012048193" y="662.1746987951808" type="curve" smooth="yes"/>
    </contour>
  </outline>
</glyph>
<glyph name="apostrophemod" format="2">
  <advance width="311.4457831325301"/>
  <unicode hex="02BC"/>
  <outline>
    <contour>
      <point x="153.1867469879518" y="614.3132530120481" type="line"/>
      <point x="186.90361445783134" y="645.4578313253012"/>
      <point x="197.59036144578312" y="682.3734939759036"/>
      <point x="197.59036144578312" y="721.3493975903614" type="curve" smooth="yes"/>
      <point x="197.59036144578312" y="774.9819277108434" type="line"/>
      <point x="114.62650602409639" y="774.9819277108434" type="line"/>
      <point x="114.62650602409639" y="699.3132530120482" type="line"/>
      <point x="175.0120481927711" y="699.3132530120482" type="line"/>
      <point x="153.72289156626505" y="710.144578313253" type="line"/>
      <point x="153.72289156626505" y="685.9156626506024"/>
      <point x="149.03614457831324" y="662.9156626506024"/>
      <point x="122.37951807228916" y="635.0602409638553" type="curve"/>
    </contour>
  </outline>
</glyph>
<glyph name="ringhalfleft" format="2">
  <advance width="500.0"/>
  <unicode hex="02BF"/>
  <anchor x="250.0" y="484.0" name="_top"/>
  <anchor x="250.0" y="685.0" name="top"/>
  <outline>
    <contour>
      <point x="250.0" y="605.0843373493976" type="curve"/>
      <point x="250.0" y="644.6626506024096" type="line"/>
      <point x="217.3734939759036" y="644.6626506024096"/>
      <point x="195.06024096385542" y="670.5180722891566"/>
      <point x="195.06024096385542" y="701.3734939759037" type="curve" smooth="yes"/>
      <point x="195.06024096385542" y="733.2289156626506"/>
      <point x="217.3734939759036" y="758.3132530120482"/>
      <point x="250.0" y="758.3132530120482" type="curve"/>
      <point x="250.0" y="798.6626506024096" type="line"/>
      <point x="193.0843373493976" y="798.6626506024096"/>
      <point x="150.93975903614458" y="755.7469879518072"/>
      <point x="150.93975903614458" y="701.3734939759037" type="curve" smooth="yes"/>
      <point x="150.93975903614458" y="647.0"/>
      <point x="193.0843373493976" y="605.0843373493976"/>
    </contour>
  </outline>
</glyph>
<glyph name="verticallinemod" format="2">
  <advance width="500.0"/>
  <unicode hex="02C8"/>
  <outline>
    <contour>
      <point x="224.65060240963857" y="645.5421686746988" type="line"/>
      <point x="275.34939759036143" y="645.5421686746988" type="line"/>
      <point x="275.34939759036143" y="824.8012048192771" type="line"/>
      <point x="224.65060240963857" y="824.8012048192771" type="line"/>
    </contour>
  </outline>
</glyph>
<glyph name="fourthtofinechinese" format="2">
  <advance width="500.0"/>
  <unicode hex="02CB"/>
  <anchor x="250.0" y="484.0" name="_top"/>
  <anchor x="250.0" y="685.0" name="top"/>
  <outline>
    <contour>
      <point x="226.50602409638554" y="599.5722891566264" type="line"/>
      <point x="273.49397590361446" y="599.5722891566264" type="line"/>
      <point x="169.95180722891567" y="780.2590361445783" type="line"/>
      <point x="100.1566265060241" y="780.2590361445783" type="line"/>
    </contour>
  </outline>
</glyph>
<glyph name="acutecomb" format="2">
  <unicode hex="0301"/>
  <anchor x="0.0" y="484.0" name="_top"/>
  <anchor x="0.0" y="685.0" name="top"/>
  <outline>
    <contour>
      <point x="-23.49397590361446" y="599.5722891566264" type="line"/>
      <point x="23.49397590361446" y="599.5722891566264" type="line"/>
      <point x="150.0722891566265" y="780.2590361445783" type="line"/>
      <point x="80.27710843373494" y="780.2590361445783" type="line"/>
    </contour>
  </outline>
</glyph>
<glyph name="circumflexcomb" format="2">
  <unicode hex="0302"/>
  <anchor x="0.0" y="484.0" name="_top"/>
  <anchor x="0.0" y="685.0" name="top"/>
  <outline>
    <contour>
      <point x="-140.32530120481928" y="599.5722891566264" type="line"/>
      <point x="-95.02409638554217" y="599.5722891566264" type="line"/>
      <point x="0.0" y="733.277108433735" type="line"/>
      <point x="95.02409638554217" y="599.5722891566264" type="line"/>
      <point x="140.32530120481928" y="599.5722891566264" type="line"/>
      <point x="31.096385542168676" y="780.2590361445783" type="line"/>
      <point x="-31.096385542168676" y="780.2590361445783" type="line"/>
    </contour>
  </outline>
</glyph>
<glyph name="tildecomb" format="2">
  <unicode hex="0303"/>
  <anchor x="0.0" y="484.0" name="_top"/>
  <anchor x="0.0" y="685.0" name="top"/>
  <outline>
    <contour>
      <point x="-135.9698795180723" y="637.566265060241" type="line"/>
      <point x="-128.85542168674698" y="685.078313253012"/>
      <point x="-106.1987951807229" y="711.5602409638554"/>
      <point x="-71.5421686746988" y="711.5602409638554" type="curve" smooth="yes"/>
      <point x="-52.54216867469879" y="711.5602409638554"/>
      <point x="-36.54216867469879" y="702.132530120482"/>
      <point x="-11.656626506024097" y="680.5060240963855" type="curve" smooth="yes"/>
      <point x="22.572289156626503" y="652.5361445783133"/>
      <point x="44.4578313253012" y="640.0240963855422"/>
      <point x="73.4578313253012" y="640.0240963855422" type="curve" smooth="yes"/>
      <point x="128.23493975903614" y="640.0240963855422"/>
      <point x="167.29518072289156" y="682.656626506024"/>
      <point x="173.95180722891567" y="756.0903614457832" type="curve"/>
      <point x="135.9698795180723" y="758.5481927710844" type="line"/>
      <point x="129.0843373493976" y="711.4939759036145"/>
      <point x="106.5421686746988" y="684.4397590361446"/>
      <point x="71.7710843373494" y="684.4397590361446" type="curve" smooth="yes"/>
      <point x="52.885542168674704" y="684.4397590361446"/>
      <point x="36.0" y="694.7530120481928"/>
      <point x="9.228915662650602" y="717.2650602409639" type="curve" smooth="yes"/>
      <point x="-23.313253012048193" y="744.2048192771084"/>
      <point x="-43.4277108433735" y="756.0903614457832"/>
      <point x="-72.4578313253012" y="756.0903614457832" type="curve" smooth="yes"/>
      <point x="-128.00602409638554" y="756.0903614457832"/>
      <point x="-167.06626506024097" y="713.343373493976"/>
      <point x="-173.95180722891567" y="640.0240963855422" type="curve"/>
    </contour>
  </outline>
</glyph>
<glyph name="brevecomb" format="2">
  <unicode hex="0306"/>
  <anchor x="0.0" y="484.0" name="_top"/>
  <anchor x="0.0" y="685.0" name="top"/>
  <outline>
    <contour>
      <point x="0.0" y="597.3433734939758" type="curve" smooth="yes"/>
      <point x="85.97590361445783" y="597.3433734939758"/>
      <point x="142.49397590361446" y="662.1445783132531"/>
      <point x="149.03614457831324" y="766.7168674698795" type="curve"/>
      <point x="107.33734939759036" y="771.4036144578313" type="line"/>
      <point x="102.22289156626506" y="688.8674698795181"/>
      <point x="63.59638554216867" y="642.3855421686748"/>
      <point x="0.0" y="642.3855421686748" type="curve" smooth="yes"/>
      <point x="-63.59638554216867" y="642.3855421686748"/>
      <point x="-102.22289156626506" y="688.8674698795181"/>
      <point x="-107.33734939759036" y="771.4036144578313" type="curve"/>
      <point x="-149.03614457831324" y="766.7168674698795" type="line"/>
      <point x="-142.26506024096383" y="662.1445783132531"/>
      <point x="-85.74698795180723" y="597.3433734939758"/>
    </contour>
  </outline>
</glyph>
<glyph name="dotaccentcomb" format="2">
  <unicode hex="0307"/>
  <anchor x="0.0" y="484.0" name="_top"/>
  <anchor x="0.0" y="685.0" name="top"/>
  <outline>
    <contour>
      <point x="-38.63855421686747" y="640.6807228915662" type="line"/>
      <point x="38.63855421686747" y="640.6807228915662" type="line"/>
      <point x="38.63855421686747" y="715.8132530120482" type="line"/>
      <point x="-38.63855421686747" y="715.8132530120482" type="line"/>
    </contour>
  </outline>
</glyph>
<glyph name="hookabovecomb" format="2">
  <unicode hex="0309"/>
  <anchor x="0.0" y="484.0" name="_top"/>
  <anchor x="0.0" y="685.0" name="top"/>
  <outline>
    <contour>
      <point x="-22.57831325301205" y="599.5722891566264" type="line"/>
      <point x="22.57831325301205" y="599.5722891566264" type="line"/>
      <point x="22.57831325301205" y="613.8012048192771" type="line" smooth="yes"/>
      <point x="22.57831325301205" y="662.7710843373494"/>
      <point x="96.03614457831326" y="665.0"/>
      <point x="96.03614457831326" y="724.4578313253012" type="curve" smooth="yes"/>
      <point x="96.03614457831326" y="763.4879518072289"/>
      <point x="61.433734939759034" y="785.0602409638554"/>
      <point x="2.9156626506024095" y="785.0602409638554" type="curve" smooth="yes"/>
      <point x="-29.94578313253012" y="785.0602409638554"/>
      <point x="-59.00602409638554" y="779.4879518072289"/>
      <point x="-81.60843373493977" y="767.0301204819277" type="curve"/>
      <point x="-70.43373493975903" y="731.222891566265" type="line"/>
      <point x="-46.34939759036145" y="741.1084337349398"/>
      <point x="-26.807228915662648" y="744.222891566265"/>
      <point x="-6.578313253012048" y="744.222891566265" type="curve" smooth="yes"/>
      <point x="27.132530120481928" y="744.222891566265"/>
      <point x="42.674698795180724" y="736.6807228915662"/>
      <point x="42.674698795180724" y="719.367469879518" type="curve" smooth="yes"/>
      <point x="42.674698795180724" y="683.0843373493976"/>
      <point x="-22.57831325301205" y="674.5120481927711"/>
      <point x="-22.57831325301205" y="617.8012048192771" type="curve" smooth="yes"/>
    </contour>
  </outline>
</glyph>
<glyph name="ringcomb" format="2">
  <unicode hex="030A"/>
  <anchor x="0.0" y="484.0" name="_top"/>
  <anchor x="0.0" y="685.0" name="top"/>
  <outline>
    <contour>
      <point x="0.0" y="596.7710843373494" type="curve" smooth="yes"/>
      <point x="64.48795180722891" y="596.7710843373494"/>
      <point x="114.63253012048192" y="646.6867469879518"/>
      <point x="114.63253012048192" y="709.1746987951807" type="curve" smooth="yes"/>
      <point x="114.63253012048192" y="771.6626506024097"/>
      <point x="64.48795180722891" y="821.3493975903615"/>
      <point x="0.0" y="821.3493975903615" type="curve" smooth="yes"/>
      <point x="-64.48795180722891" y="821.3493975903615"/>
      <point x="-114.63253012048192" y="771.6626506024097"/>
      <point x="-114.63253012048192" y="709.1746987951807" type="curve" smooth="yes"/>
      <point x="-114.63253012048192" y="646.6867469879518"/>
      <point x="-64.48795180722891" y="596.7710843373494"/>
    </contour>
    <contour>
      <point x="0.0" y="633.9216867469879" type="curve" smooth="yes"/>
      <point x="-43.93975903614458" y="633.9216867469879"/>
      <point x="-75.02409638554217" y="666.5481927710844"/>
      <point x="-75.02409638554217" y="709.1746987951807" type="curve" smooth="yes"/>
      <point x="-75.02409638554217" y="751.5722891566264"/>
      <point x="-43.93975903614458" y="784.1987951807229"/>
      <point x="0.0" y="784.1987951807229" type="curve" smooth="yes"/>
      <point x="44.16867469879518" y="784.1987951807229"/>
      <point x="75.02409638554217" y="751.5722891566264"/>
      <point x="75.02409638554217" y="709.1746987951807" type="curve" smooth="yes"/>
      <point x="75.02409638554217" y="666.5481927710844"/>
      <point x="44.16867469879518" y="633.9216867469879"/>
    </contour>
  </outline>
</glyph>
<glyph name="breveinvertedcomb" format="2">
  <unicode hex="0311"/>
  <anchor x="0.0" y="484.0" name="_top"/>
  <anchor x="0.0" y="685.0" name="top"/>
  <outline>
    <contour>
      <point x="-107.33734939759036" y="597.3433734939758" type="line"/>
      <point x="-102.22289156626506" y="680.5361445783133"/>
      <point x="-63.59638554216867" y="726.3614457831326"/>
      <point x="0.0" y="726.3614457831326" type="curve" smooth="yes"/>
      <point x="63.59638554216867" y="726.3614457831326"/>
      <point x="102.22289156626506" y="680.5361445783133"/>
      <point x="107.33734939759036" y="597.3433734939758" type="curve"/>
      <point x="149.03614457831324" y="601.8012048192771" type="line"/>
      <point x="142.49397590361446" y="706.3734939759037"/>
      <point x="85.97590361445783" y="771.4036144578313"/>
      <point x="0.0" y="771.4036144578313" type="curve" smooth="yes"/>
      <point x="-85.74698795180723" y="771.4036144578313"/>
      <point x="-142.26506024096383" y="706.3734939759037"/>
      <point x="-149.03614457831324" y="601.8012048192771" type="curve"/>
    </contour>
  </outline>
</glyph>
<glyph name="commaturnedabovecomb" format="2">
  <unicode hex="0312"/>
  <anchor x="0.0" y="484.0" name="_top"/>
  <anchor x="0.0" y="685.0" name="top"/>
  <outline>
    <contour>
      <point x="-41.86746987951807" y="609.1987951807229" type="line"/>
      <point x="41.86746987951807" y="609.1987951807229" type="line"/>
      <point x="41.86746987951807" y="682.0963855421687" type="line"/>
      <point x="-18.403614457831328" y="682.0963855421687" type="line"/>
      <point x="1.114457831325301" y="671.4939759036145" type="line"/>
      <point x="1.114457831325301" y="698.3795180722892"/>
      <point x="7.686746987951807" y="722.2650602409639"/>
      <point x="34.114457831325296" y="751.0060240963855" type="curve"/>
      <point x="3.3072289156626504" y="771.7530120481928" type="line"/>
      <point x="-28.52409638554217" y="741.722891566265"/>
      <point x="-41.86746987951807" y="701.8072289156626"/>
      <point x="-41.86746987951807" y="662.0602409638554" type="curve" smooth="yes"/>
    </contour>
  </outline>
</glyph>
<glyph name="horncomb" format="2">
  <unicode hex="031B"/>
  <anchor x="-0.6566265060240964" y="534.0" name="_topright"/>
  <outline>
    <contour>
      <point x="27.162650602409638" y="491.1927710843373" type="line"/>
      <point x="118.644578313253" y="496.10843373493975"/>
      <point x="169.8734939759036" y="549.9397590361446"/>
      <point x="169.8734939759036" y="637.1084337349398" type="curve" smooth="yes"/>
      <point x="169.8734939759036" y="661.0" type="line"/>
      <point x="114.30722891566265" y="661.0" type="line"/>
      <point x="114.30722891566265" y="646.9397590361446" type="line" smooth="yes"/>
      <point x="114.30722891566265" y="574.2530120481928"/>
      <point x="90.16265060240963" y="536.1445783132531"/>
      <point x="-0.6566265060240964" y="535.1445783132531" type="curve"/>
      <point x="-0.6566265060240964" y="511.51807228915663" type="line"/>
    </contour>
  </outline>
</glyph>
<glyph name="ogonekcomb" format="2">
  <unicode hex="0328"/>
  <anchor x="0.0" y="0.0" name="_ogonek"/>
  <outline>
    <contour>
      <point x="-17.91566265060241" y="-191.14457831325302" type="curve" smooth="yes"/>
      <point x="13.771084337349398" y="-191.14457831325302"/>
      <point x="39.7710843373494" y="-184.6024096385542"/>
      <point x="56.51807228915663" y="-174.14457831325302" type="curve"/>
      <point x="43.06024096385542" y="-135.50602409638554" type="line"/>
      <point x="24.06024096385542" y="-144.04819277108433"/>
      <point x="7.289156626506024" y="-148.04819277108433"/>
      <point x="-10.168674698795181" y="-148.04819277108433" type="curve" smooth="yes"/>
      <point x="-42.93975903614458" y="-148.04819277108433"/>
      <point x="-69.25301204819277" y="-130.27710843373495"/>
      <point x="-69.25301204819277" y="-90.10843373493977" type="curve" smooth="yes"/>
      <point x="-69.25301204819277" y="-45.31325301204819"/>
      <point x="-30.686746987951807" y="-13.228915662650602"/>
      <point x="0.0" y="0.0" type="curve"/>
      <point x="-24.662650602409638" y="33.51807228915663" type="line"/>
      <point x="-82.80722891566265" y="4.433734939759036"/>
      <point x="-117.40963855421687" y="-45.024096385542165"/>
      <point x="-117.40963855421687" y="-96.39759036144578" type="curve" smooth="yes"/>
      <point x="-117.40963855421687" y="-154.2289156626506"/>
      <point x="-77.26506024096386" y="-191.14457831325302"/>
    </contour>
  </outline>
</glyph>
<glyph name="brevebelowcomb" format="2">
  <unicode hex="032E"/>
  <anchor x="0.0" y="0.0" name="_bottom"/>
  <anchor x="0.0" y="-170.0" name="bottom"/>
  <outline>
    <contour>
      <point x="0.0" y="-215.0" type="curve" smooth="yes"/>
      <point x="86.43373493975903" y="-215.0"/>
      <point x="142.95180722891567" y="-159.0843373493976"/>
      <point x="149.03614457831324" y="-66.62650602409639" type="curve"/>
      <point x="107.33734939759036" y="-61.93975903614458" type="line"/>
      <point x="102.33734939759036" y="-130.59036144578315"/>
      <point x="63.71084337349397" y="-170.3012048192771"/>
      <point x="0.0" y="-170.3012048192771" type="curve" smooth="yes"/>
      <point x="-63.71084337349397" y="-170.3012048192771"/>
      <point x="-102.33734939759036" y="-130.59036144578315"/>
      <point x="-107.33734939759036" y="-61.93975903614458" type="curve"/>
      <point x="-149.03614457831324" y="-66.62650602409639" type="line"/>
      <point x="-142.72289156626505" y="-159.0843373493976"/>
      <point x="-86.20481927710843" y="-215.0"/>
    </contour>
  </outline>
</glyph>
<glyph name="macronbelowcomb" format="2">
  <unicode hex="0331"/>
  <anchor x="0.0" y="0.0" name="_bottom"/>
  <anchor x="0.0" y="-170.0" name="bottom"/>
  <outline>
    <contour>
      <point x="-143.89156626506025" y="-151.89156626506025" type="line"/>
      <point x="144.12048192771084" y="-151.89156626506025" type="line"/>
      <point x="144.12048192771084" y="-105.65060240963855" type="line"/>
      <point x="-143.89156626506025" y="-105.65060240963855" type="line"/>
    </contour>
  </outline>
</glyph>
<glyph name="slashshortcomb" format="2">
  <unicode hex="0337"/>
  <anchor x="-2.746987951807229" y="395.1144578313253" name="_center"/>
  <outline>
    <contour>
      <point x="-110.2409638554217" y="289.355421686747" type="line"/>
      <point x="133.84337349397592" y="456.54216867469876" type="line"/>
      <point x="104.97590361445783" y="499.9879518072289" type="line"/>
      <point x="-138.99397590361446" y="332.68674698795184" type="line"/>
    </contour>
  </outline>
</glyph>
<glyph name="slashlongcomb" format="2">
  <unicode hex="0338"/>
  <anchor x="3.319277108433735" y="269.3433734939759" name="_center"/>
  <outline>
    <contour>
      <point x="-135.16265060240966" y="-41.036144578313255" type="line"/>
      <point x="182.0722891566265" y="556.3734939759037" type="line"/>
      <point x="141.6867469879518" y="578.8373493975904" type="line"/>
      <point x="-175.54819277108433" y="-18.572289156626507" type="line"/>
    </contour>
  </outline>
</glyph>
<glyph name="mu" format="2">
  <advance width="552.7831325301205"/>
  <unicode hex="03BC"/>
  <outline>
    <contour>
      <point x="78.19277108433735" y="-180.0" type="line"/>
      <point x="139.19277108433735" y="-180.0" type="line"/>
      <point x="133.81927710843374" y="74.13253012048193" type="line"/>
      <point x="119.99397590361446" y="74.13253012048193" type="line"/>
      <point x="145.39156626506025" y="10.626506024096386"/>
      <point x="194.6987951807229" y="-8.457831325301205"/>
      <point x="259.00602409638554" y="-8.457831325301205" type="curve" smooth="yes"/>
      <point x="336.0542168674699" y="-8.457831325301205"/>
      <point x="400.04819277108436" y="38.05421686746988"/>
      <point x="422.9879518072289" y="119.30722891566265" type="curve"/>
      <point x="412.8192771084337" y="119.30722891566265" type="line"/>
      <point x="412.8192771084337" y="0.0" type="line"/>
      <point x="472.3614457831325" y="0.0" type="line"/>
      <point x="472.3614457831325" y="535.1445783132531" type="line"/>
      <point x="411.3614457831325" y="535.1445783132531" type="line"/>
      <point x="411.3614457831325" y="216.60240963855424" type="line" smooth="yes"/>
      <point x="411.3614457831325" y="111.12650602409639"/>
      <point x="349.59638554216866" y="44.39156626506024"/>
      <point x="259.6927710843374" y="44.39156626506024" type="curve" smooth="yes"/>
      <point x="177.2168674698795" y="44.39156626506024"/>
      <point x="139.19277108433735" y="89.07228915662651"/>
      <point x="139.19277108433735" y="192.289156626506" type="curve" smooth="yes"/>
      <point x="139.19277108433735" y="535.1445783132531" type="line"/>
      <point x="78.19277108433735" y="535.1445783132531" type="line"/>
    </contour>
  </outline>
</glyph>
<glyph name="pi" format="2">
  <advance width="573.277108433735"/>
  <unicode hex="03C0"/>
  <outline>
    <contour>
      <point x="499.5301204819277" y="-4.147234939759036" type="curve" smooth="yes"/>
      <point x="517.2168674698795" y="-4.147234939759036"/>
      <point x="536.9036144578313" y="-2.144578313253012"/>
      <point x="559.277108433735" y="1.855421686746988" type="curve"/>
      <point x="561.9638554216867" y="55.27710843373494" type="line"/>
      <point x="542.8795180722891" y="51.506024096385545"/>
      <point x="525.566265060241" y="49.506024096385545"/>
      <point x="510.2530120481928" y="49.506024096385545" type="curve" smooth="yes"/>
      <point x="437.0843373493976" y="49.506024096385545"/>
      <point x="408.0" y="89.67469879518072"/>
      <point x="408.0" y="171.0722891566265" type="curve" smooth="yes"/>
      <point x="408.0" y="485.86746987951807" type="line"/>
      <point x="530.8795180722891" y="485.86746987951807" type="line"/>
      <point x="530.8795180722891" y="535.1445783132531" type="line"/>
      <point x="4.771084337349397" y="535.1445783132531" type="line"/>
      <point x="4.771084337349397" y="485.86746987951807" type="line"/>
      <point x="104.855421686747" y="485.86746987951807" type="line"/>
      <point x="103.96987951807229" y="276.5963855421687"/>
      <point x="78.1144578313253" y="125.03614457831326"/>
      <point x="32.2289156626506" y="0.0" type="curve"/>
      <point x="98.0" y="0.0" type="line"/>
      <point x="140.0" y="116.6566265060241"/>
      <point x="164.74096385542168" y="266.8192771084337"/>
      <point x="165.6265060240964" y="485.86746987951807" type="curve"/>
      <point x="347.0" y="485.86746987951807" type="line"/>
      <point x="347.0" y="169.32530120481928" type="line" smooth="yes"/>
      <point x="347.0" y="62.06024096385542"/>
      <point x="391.2048192771084" y="-4.147234939759036"/>
    </contour>
  </outline>
</glyph>
<glyph name="Lje-cy" format="2">
  <advance width="1127.6024096385543"/>
  <unicode hex="0409"/>
  <outline>
    <contour>
      <point x="46.1566265060241" y="-13.91566265060241" type="line"/>
      <point x="177.2168674698795" y="51.2289156626506"/>
      <point x="248.73493975903614" y="173.12048192771084"/>
      <point x="248.73493975903614" y="478.8192771084337" type="curve" smooth="yes"/>
      <point x="248.73493975903614" y="650.433734939759" type="line"/>
      <point x="564.7590361445783" y="650.433734939759" type="line"/>
      <point x="564.7590361445783" y="0.0" type="line"/>
      <point x="846.7469879518072" y="0.0" type="line" smooth="yes"/>
      <point x="993.6626506024096" y="0.0"/>
      <point x="1077.4939759036145" y="65.83132530120481"/>
      <point x="1077.4939759036145" y="194.43373493975903" type="curve" smooth="yes"/>
      <point x="1077.4939759036145" y="323.03614457831327"/>
      <point x="993.6626506024096" y="386.32530120481925"/>
      <point x="846.7469879518072" y="386.32530120481925" type="curve" smooth="yes"/>
      <point x="626.4457831325301" y="386.32530120481925" type="line"/>
      <point x="626.4457831325301" y="705.0" type="line"/>
      <point x="190.87951807228916" y="705.0" type="line"/>
      <point x="190.87951807228916" y="494.0843373493976" type="line" smooth="yes"/>
      <point x="190.87951807228916" y="175.79518072289156"/>
      <point x="122.5421686746988" y="91.73493975903614"/>
      <point x="18.626506024096386" y="37.13253012048193" type="curve"/>
    </contour>
    <contour>
      <point x="626.4457831325301" y="53.42168674698795" type="line"/>
      <point x="626.4457831325301" y="332.90361445783134" type="line"/>
      <point x="842.3132530120482" y="332.90361445783134" type="line" smooth="yes"/>
      <point x="957.7590361445783" y="332.90361445783134"/>
      <point x="1015.1807228915662" y="288.33734939759034"/>
      <point x="1015.1807228915662" y="193.66265060240963" type="curve" smooth="yes"/>
      <point x="1015.1807228915662" y="98.75903614457832"/>
      <point x="957.7590361445783" y="53.42168674698795"/>
      <point x="842.3132530120482" y="53.42168674698795" type="curve" smooth="yes"/>
    </contour>
  </outline>
</glyph>
<glyph name="Be-cy" format="2">
  <advance width="654.4939759036145"/>
  <unicode hex="0411"/>
  <outline>
    <contour>
      <point x="91.65060240963855" y="0.0" type="line"/>
      <point x="373.6385542168675" y="0.0" type="line" smooth="yes"/>
      <point x="520.5542168674699" y="0.0"/>
      <point x="604.3855421686746" y="65.83132530120481"/>
      <point x="604.3855421686746" y="194.43373493975903" type="curve" smooth="yes"/>
      <point x="604.3855421686746" y="323.03614457831327"/>
      <point x="520.5542168674699" y="386.32530120481925"/>
      <point x="373.6385542168675" y="386.32530120481925" type="curve" smooth="yes"/>
      <point x="152.19277108433735" y="386.32530120481925" type="line"/>
      <point x="152.19277108433735" y="651.5783132530121" type="line"/>
      <point x="539.2409638554217" y="651.5783132530121" type="line"/>
      <point x="539.2409638554217" y="705.0" type="line"/>
      <point x="91.65060240963855" y="705.0" type="line"/>
    </contour>
    <contour>
      <point x="152.19277108433735" y="53.42168674698795" type="line"/>
      <point x="152.19277108433735" y="332.90361445783134" type="line"/>
      <point x="369.2048192771084" y="332.90361445783134" type="line" smooth="yes"/>
      <point x="484.65060240963857" y="332.90361445783134"/>
      <point x="542.0722891566265" y="288.33734939759034"/>
      <point x="542.0722891566265" y="193.66265060240963" type="curve" smooth="yes"/>
      <point x="542.0722891566265" y="98.75903614457832"/>
      <point x="484.65060240963857" y="53.42168674698795"/>
      <point x="369.2048192771084" y="53.42168674698795" type="curve" smooth="yes"/>
    </contour>
  </outline>
</glyph>
<glyph name="U-cy" format="2">
  <advance width="635.3253012048193"/>
  <unicode hex="0423"/>
  <anchor x="319.34939759036143" y="705.0" name="top"/>
  <outline>
    <contour>
      <point x="205.67469879518072" y="0.0" type="line"/>
      <point x="271.5903614457831" y="0.0" type="line"/>
      <point x="634.4457831325301" y="705.0" type="line"/>
      <point x="569.5301204819277" y="705.0" type="line"/>
      <point x="338.4578313253012" y="256.0240963855422" type="line"/>
      <point x="352.9759036144578" y="256.0240963855422" type="line"/>
      <point x="72.10843373493975" y="705.0" type="line"/>
      <point x="4.506024096385542" y="705.0" type="line"/>
      <point x="322.5903614457831" y="197.3132530120482" type="line"/>
      <point x="322.5903614457831" y="225.74698795180723" type="line"/>
    </contour>
  </outline>
</glyph>
<glyph name="Tse-cy" format="2">
  <advance width="781.9277108433735"/>
  <unicode hex="0426"/>
  <outline>
    <contour>
      <point x="702.2168674698795" y="-153.43373493975903" type="line"/>
      <point x="759.156626506024" y="-153.43373493975903" type="line"/>
      <point x="759.156626506024" y="54.566265060240966" type="line"/>
      <point x="659.156626506024" y="54.566265060240966" type="line"/>
      <point x="659.156626506024" y="705.0" type="line"/>
      <point x="597.4698795180723" y="705.0" type="line"/>
      <point x="597.4698795180723" y="54.566265060240966" type="line"/>
      <point x="153.33734939759037" y="54.566265060240966" type="line"/>
      <point x="153.33734939759037" y="705.0" type="line"/>
      <point x="91.65060240963855" y="705.0" type="line"/>
      <point x="91.65060240963855" y="0.0" type="line"/>
      <point x="702.2168674698795" y="0.0" type="line"/>
    </contour>
  </outline>
</glyph>
<glyph name="Shcha-cy" format="2">
  <advance width="1075.6746987951808"/>
  <unicode hex="0429"/>
  <outline>
    <contour>
      <point x="995.9638554216867" y="-153.43373493975903" type="line"/>
      <point x="1052.9036144578313" y="-153.43373493975903" type="line"/>
      <point x="1052.9036144578313" y="54.566265060240966" type="line"/>
      <point x="953.6746987951807" y="54.566265060240966" type="line"/>
      <point x="953.6746987951807" y="705.0" type="line"/>
      <point x="892.4457831325301" y="705.0" type="line"/>
      <point x="892.4457831325301" y="54.566265060240966" type="line"/>
      <point x="553.277108433735" y="54.566265060240966" type="line"/>
      <point x="553.277108433735" y="705.0" type="line"/>
      <point x="492.04819277108436" y="705.0" type="line"/>
      <point x="492.04819277108436" y="54.566265060240966" type="line"/>
      <point x="152.87951807228916" y="54.566265060240966" type="line"/>
      <point x="152.87951807228916" y="705.0" type="line"/>
      <point x="91.65060240963855" y="705.0" type="line"/>
      <point x="91.65060240963855" y="0.0" type="line"/>
      <point x="995.9638554216867" y="0.0" type="line"/>
    </contour>
  </outline>
</glyph>
<glyph name="Ereversed-cy" format="2">
  <advance width="669.7469879518072"/>
  <unicode hex="042D"/>
  <anchor x="294.7469879518072" y="0.0" name="bottom"/>
  <anchor x="294.7469879518072" y="705.0" name="top"/>
  <outline>
    <contour>
      <point x="283.2530120481928" y="-8.457831325301205" type="curve" smooth="yes"/>
      <point x="486.28915662650604" y="-8.457831325301205"/>
      <point x="605.722891566265" y="129.4578313253012"/>
      <point x="605.722891566265" y="353.0" type="curve" smooth="yes"/>
      <point x="605.722891566265" y="575.5421686746988"/>
      <point x="486.28915662650604" y="713.4578313253012"/>
      <point x="293.2530120481928" y="713.4578313253012" type="curve" smooth="yes"/>
      <point x="196.710843373494" y="713.4578313253012"/>
      <point x="112.33734939759036" y="681.6867469879518"/>
      <point x="45.024096385542165" y="620.7469879518072" type="curve"/>
      <point x="71.60240963855422" y="570.4096385542168" type="line"/>
      <point x="143.9156626506024" y="631.1204819277109"/>
      <point x="208.7710843373494" y="655.7469879518072"/>
      <point x="293.10843373493975" y="655.7469879518072" type="curve" smooth="yes"/>
      <point x="446.4096385542169" y="655.7469879518072"/>
      <point x="535.9759036144578" y="546.9879518072289"/>
      <point x="540.1204819277109" y="367.2048192771084" type="curve"/>
      <point x="563.2409638554217" y="384.5542168674699" type="line"/>
      <point x="170.5421686746988" y="384.5542168674699" type="line"/>
      <point x="170.5421686746988" y="331.13253012048193" type="line"/>
      <point x="564.4698795180723" y="331.13253012048193" type="line"/>
      <point x="540.3493975903615" y="344.93975903614455" type="line"/>
      <point x="537.2048192771084" y="157.78313253012047"/>
      <point x="446.4096385542169" y="49.25301204819277"/>
      <point x="283.10843373493975" y="49.25301204819277" type="curve" smooth="yes"/>
      <point x="198.7710843373494" y="49.25301204819277"/>
      <point x="133.9156626506024" y="74.33734939759036"/>
      <point x="71.60240963855422" y="134.59036144578312" type="curve"/>
      <point x="45.024096385542165" y="84.25301204819277" type="line"/>
      <point x="102.33734939759036" y="23.542168674698797"/>
      <point x="186.710843373494" y="-8.457831325301205"/>
    </contour>
  </outline>
</glyph>
<glyph name="be-cy" format="2">
  <advance width="554.5301204819277"/>
  <unicode hex="0431"/>
  <outline>
    <contour>
      <point x="278.4096385542169" y="-8.457831325301205" type="curve" smooth="yes"/>
      <point x="412.8433734939759" y="-8.457831325301205"/>
      <point x="501.04819277108436" y="89.0"/>
      <point x="501.04819277108436" y="265.0542168674699" type="curve" smooth="yes"/>
      <point x="501.04819277108436" y="439.96385542168673"/>
      <point x="415.13253012048193" y="536.2771084337351"/>
      <point x="289.96385542168673" y="536.2771084337351" type="curve" smooth="yes"/>
      <point x="201.56024096385542" y="536.2771084337351"/>
      <point x="124.24698795180723" y="483.2168674698795"/>
      <point x="103.04819277108433" y="385.78915662650604" type="curve"/>
      <point x="113.76506024096386" y="385.78915662650604" type="line"/>
      <point x="113.76506024096386" y="425.05421686746985" type="line" smooth="yes"/>
      <point x="113.76506024096386" y="525.1626506024096"/>
      <point x="163.50602409638554" y="593.6144578313252"/>
      <point x="272.8433734939759" y="619.8975903614457" type="curve" smooth="yes"/>
      <point x="471.04819277108436" y="666.6385542168674" type="line"/>
      <point x="451.355421686747" y="718.3734939759037" type="line"/>
      <point x="271.95180722891564" y="675.632530120482" type="line" smooth="yes"/>
      <point x="119.63253012048192" y="638.9759036144578"/>
      <point x="53.48192771084337" y="558.8313253012047"/>
      <point x="53.48192771084337" y="387.0843373493976" type="curve" smooth="yes"/>
      <point x="53.48192771084337" y="282.4578313253012" type="line" smooth="yes"/>
      <point x="53.48192771084337" y="87.7710843373494"/>
      <point x="141.8012048192771" y="-8.457831325301205"/>
    </contour>
    <contour>
      <point x="277.37951807228916" y="43.36144578313253" type="curve" smooth="yes"/>
      <point x="179.90361445783134" y="43.36144578313253"/>
      <point x="115.48192771084337" y="113.43975903614458"/>
      <point x="115.48192771084337" y="268.33734939759034" type="curve" smooth="yes"/>
      <point x="115.48192771084337" y="413.60843373493975"/>
      <point x="180.78915662650604" y="484.3433734939759"/>
      <point x="277.26506024096386" y="484.3433734939759" type="curve" smooth="yes"/>
      <point x="374.6265060240964" y="484.3433734939759"/>
      <point x="439.04819277108436" y="413.60843373493975"/>
      <point x="439.04819277108436" y="263.9096385542169" type="curve" smooth="yes"/>
      <point x="439.04819277108436" y="113.21084337349399"/>
      <point x="374.855421686747" y="43.36144578313253"/>
    </contour>
  </outline>
</glyph>
<glyph name="ve-cy" format="2">
  <advance width="537.156626506024"/>
  <unicode hex="0432"/>
  <outline>
    <contour>
      <point x="84.10843373493977" y="0.0" type="line"/>
      <point x="310.7831325301205" y="0.0" type="line" smooth="yes"/>
      <point x="421.01807228915663" y="0.0"/>
      <point x="487.5903614457831" y="54.91566265060241"/>
      <point x="487.5903614457831" y="147.25903614457832" type="curve" smooth="yes"/>
      <point x="487.5903614457831" y="224.0301204819277"/>
      <point x="430.56626506024094" y="278.4578313253012"/>
      <point x="355.81927710843377" y="279.7168674698795" type="curve"/>
      <point x="355.81927710843377" y="267.0301204819277" type="line"/>
      <point x="421.933734939759" y="273.94578313253015"/>
      <point x="472.13253012048193" y="325.3734939759036"/>
      <point x="472.13253012048193" y="394.144578313253" type="curve" smooth="yes"/>
      <point x="472.13253012048193" y="488.0"/>
      <point x="413.1626506024096" y="535.1445783132531"/>
      <point x="302.7831325301205" y="535.1445783132531" type="curve" smooth="yes"/>
      <point x="84.10843373493977" y="535.1445783132531" type="line"/>
    </contour>
    <contour>
      <point x="143.04819277108433" y="45.614457831325296" type="line"/>
      <point x="143.04819277108433" y="249.99397590361446" type="line"/>
      <point x="310.578313253012" y="249.99397590361446" type="line" smooth="yes"/>
      <point x="387.1987951807229" y="249.99397590361446"/>
      <point x="428.33734939759034" y="213.74096385542168"/>
      <point x="428.33734939759034" y="147.74698795180723" type="curve" smooth="yes"/>
      <point x="428.33734939759034" y="81.75301204819277"/>
      <point x="387.1987951807229" y="45.614457831325296"/>
      <point x="310.578313253012" y="45.614457831325296" type="curve" smooth="yes"/>
    </contour>
    <contour>
      <point x="143.04819277108433" y="295.49397590361446" type="line"/>
      <point x="143.04819277108433" y="489.644578313253" type="line"/>
      <point x="301.89156626506025" y="489.644578313253" type="line" smooth="yes"/>
      <point x="373.5120481927711" y="489.644578313253"/>
      <point x="412.87951807228916" y="454.73493975903614"/>
      <point x="412.87951807228916" y="392.7409638554217" type="curve" smooth="yes"/>
      <point x="412.87951807228916" y="329.9759036144578"/>
      <point x="373.5120481927711" y="295.49397590361446"/>
      <point x="301.89156626506025" y="295.49397590361446" type="curve" smooth="yes"/>
    </contour>
  </outline>
</glyph>
<glyph name="ge-cy" format="2">
  <advance width="424.6144578313253"/>
  <unicode hex="0433"/>
  <anchor x="86.16867469879519" y="0.0" name="bottomright"/>
  <anchor x="141.86746987951807" y="268.6867469879518" name="center"/>
  <anchor x="233.83132530120483" y="484.0" name="top"/>
  <outline>
    <contour>
      <point x="84.10843373493977" y="0.0" type="line"/>
      <point x="145.10843373493975" y="0.0" type="line"/>
      <point x="145.10843373493975" y="484.1807228915663" type="line"/>
      <point x="411.69879518072287" y="484.1807228915663" type="line"/>
      <point x="411.69879518072287" y="535.1445783132531" type="line"/>
      <point x="84.10843373493977" y="535.1445783132531" type="line"/>
    </contour>
  </outline>
</glyph>
<glyph name="de-cy" format="2">
  <advance width="580.2168674698795"/>
  <unicode hex="0434"/>
  <outline>
    <contour>
      <point x="26.771084337349397" y="-130.0" type="line"/>
      <point x="80.33734939759036" y="-130.0" type="line"/>
      <point x="80.33734939759036" y="0.0" type="line"/>
      <point x="495.6265060240964" y="0.0" type="line"/>
      <point x="495.6265060240964" y="-130.0" type="line"/>
      <point x="549.1927710843373" y="-130.0" type="line"/>
      <point x="549.1927710843373" y="50.19277108433735" type="line"/>
      <point x="473.8192771084337" y="50.19277108433735" type="line"/>
      <point x="473.8192771084337" y="535.1445783132531" type="line"/>
      <point x="146.02409638554218" y="535.1445783132531" type="line"/>
      <point x="146.02409638554218" y="372.8614457831325" type="line" smooth="yes"/>
      <point x="146.02409638554218" y="231.60843373493975"/>
      <point x="125.62650602409639" y="128.44578313253012"/>
      <point x="75.83132530120481" y="50.19277108433735" type="curve"/>
      <point x="26.771084337349397" y="50.19277108433735" type="line"/>
    </contour>
    <contour>
      <point x="138.710843373494" y="50.19277108433735" type="line"/>
      <point x="179.73493975903614" y="129.0722891566265"/>
      <point x="202.13253012048193" y="246.43373493975903"/>
      <point x="202.13253012048193" y="368.22289156626505" type="curve" smooth="yes"/>
      <point x="202.13253012048193" y="485.4096385542169" type="line"/>
      <point x="414.65060240963857" y="485.4096385542169" type="line"/>
      <point x="414.65060240963857" y="50.19277108433735" type="line"/>
    </contour>
  </outline>
</glyph>
<glyph name="zhe-cy" format="2">
  <advance width="765.855421686747"/>
  <unicode hex="0436"/>
  <anchor x="698.2048192771084" y="0.0" name="bottomright"/>
  <anchor x="382.9277108433735" y="484.0" name="top"/>
  <outline>
    <contour>
      <point x="4.909638554216868" y="0.0" type="line"/>
      <point x="70.93975903614457" y="0.0" type="line"/>
      <point x="161.87951807228916" y="169.0843373493976" type="line" smooth="yes"/>
      <point x="196.56024096385542" y="233.93373493975903"/>
      <point x="220.64457831325302" y="252.67469879518075"/>
      <point x="277.2951807228916" y="252.67469879518075" type="curve" smooth="yes"/>
      <point x="352.5421686746988" y="252.67469879518075" type="line"/>
      <point x="352.5421686746988" y="0.0" type="line"/>
      <point x="413.5421686746988" y="0.0" type="line"/>
      <point x="413.5421686746988" y="252.67469879518075" type="line"/>
      <point x="488.90361445783134" y="252.67469879518075" type="line" smooth="yes"/>
      <point x="545.3253012048193" y="252.67469879518075"/>
      <point x="569.5240963855422" y="233.93373493975903"/>
      <point x="605.2048192771084" y="169.0843373493976" type="curve" smooth="yes"/>
      <point x="696.0301204819277" y="0.0" type="line"/>
      <point x="760.9457831325302" y="0.0" type="line"/>
      <point x="664.0301204819277" y="180.37951807228916" type="line" smooth="yes"/>
      <point x="616.5783132530121" y="267.8012048192771"/>
      <point x="587.0602409638554" y="290.54819277108436"/>
      <point x="531.6325301204819" y="298.54819277108436" type="curve"/>
      <point x="552.8072289156626" y="280.2530120481928" type="line"/>
      <point x="735.0903614457831" y="535.1445783132531" type="line"/>
      <point x="667.6325301204819" y="535.1445783132531" type="line"/>
      <point x="500.5301204819277" y="302.6385542168675" type="line"/>
      <point x="413.5421686746988" y="302.6385542168675" type="line"/>
      <point x="413.5421686746988" y="535.1445783132531" type="line"/>
      <point x="352.5421686746988" y="535.1445783132531" type="line"/>
      <point x="352.5421686746988" y="302.6385542168675" type="line"/>
      <point x="265.5542168674699" y="302.6385542168675" type="line"/>
      <point x="98.22289156626505" y="535.1445783132531" type="line"/>
      <point x="30.765060240963855" y="535.1445783132531" type="line"/>
      <point x="213.39156626506025" y="280.2530120481928" type="line"/>
      <point x="234.22289156626505" y="298.54819277108436" type="line"/>
      <point x="177.90963855421685" y="290.54819277108436"/>
      <point x="149.62048192771087" y="267.8012048192771"/>
      <point x="102.05421686746988" y="180.37951807228916" type="curve" smooth="yes"/>
    </contour>
  </outline>
</glyph>
<glyph name="ze-cy" format="2">
  <advance width="486.6144578313253"/>
  <unicode hex="0437"/>
  <anchor x="242.49397590361446" y="0.0" name="bottom"/>
  <anchor x="241.12048192771084" y="485.144578313253" name="top"/>
  <outline>
    <contour>
      <point x="235.80722891566265" y="-8.457831325301205" type="curve" smooth="yes"/>
      <point x="370.69879518072287" y="-8.457831325301205"/>
      <point x="437.04819277108436" y="53.7710843373494"/>
      <point x="437.04819277108436" y="146.25903614457832" type="curve" smooth="yes"/>
      <point x="437.04819277108436" y="224.7168674698795"/>
      <point x="379.22289156626505" y="278.4578313253012"/>
      <point x="304.50602409638554" y="279.7168674698795" type="curve"/>
      <point x="304.50602409638554" y="267.0301204819277" type="line"/>
      <point x="370.62048192771084" y="273.94578313253015"/>
      <point x="421.4759036144578" y="325.6024096385542"/>
      <point x="421.4759036144578" y="394.9156626506024" type="curve" smooth="yes"/>
      <point x="421.4759036144578" y="491.144578313253"/>
      <point x="354.95783132530124" y="543.6024096385543"/>
      <point x="239.06626506024097" y="543.6024096385543" type="curve" smooth="yes"/>
      <point x="163.7168674698795" y="543.6024096385543"/>
      <point x="95.74096385542168" y="524.2590361445783"/>
      <point x="38.85542168674699" y="473.5481927710843" type="curve"/>
      <point x="64.60240963855422" y="429.2168674698795" type="line"/>
      <point x="116.6867469879518" y="474.1265060240964"/>
      <point x="170.8012048192771" y="492.2409638554217"/>
      <point x="234.83132530120483" y="492.2409638554217" type="curve" smooth="yes"/>
      <point x="317.7710843373494" y="492.2409638554217"/>
      <point x="362.22289156626505" y="455.6746987951807"/>
      <point x="362.22289156626505" y="392.1686746987952" type="curve" smooth="yes"/>
      <point x="362.22289156626505" y="330.54819277108436"/>
      <point x="321.54216867469876" y="296.5240963855422"/>
      <point x="250.92168674698797" y="296.5240963855422" type="curve" smooth="yes"/>
      <point x="157.3132530120482" y="296.5240963855422" type="line"/>
      <point x="157.3132530120482" y="248.04819277108433" type="line"/>
      <point x="259.83734939759034" y="248.04819277108433" type="line" smooth="yes"/>
      <point x="337.0" y="248.04819277108433"/>
      <point x="377.9096385542169" y="212.3674698795181"/>
      <point x="377.9096385542169" y="147.86144578313252" type="curve" smooth="yes"/>
      <point x="377.9096385542169" y="81.01204819277109"/>
      <point x="336.3975903614458" y="43.132530120481924"/>
      <point x="235.69277108433735" y="43.132530120481924" type="curve" smooth="yes"/>
      <point x="165.46385542168673" y="43.132530120481924"/>
      <point x="108.2590361445783" y="63.78915662650602"/>
      <point x="62.03012048192771" y="110.3855421686747" type="curve"/>
      <point x="35.51204819277108" y="65.36746987951807" type="line"/>
      <point x="80.03012048192771" y="18.512048192771086"/>
      <point x="153.97590361445782" y="-8.457831325301205"/>
    </contour>
  </outline>
</glyph>
<glyph name="ii-cy" format="2">
  <advance width="574.6987951807229"/>
  <unicode hex="0438"/>
  <anchor x="434.65060240963857" y="0.0" name="bottomright"/>
  <anchor x="287.34939759036143" y="484.0" name="top"/>
  <outline>
    <contour>
      <point x="84.10843373493977" y="0.0" type="line"/>
      <point x="138.3313253012048" y="0.0" type="line"/>
      <point x="460.82530120481925" y="480.9698795180723" type="line"/>
      <point x="434.65060240963857" y="480.9698795180723" type="line"/>
      <point x="434.65060240963857" y="0.0" type="line"/>
      <point x="490.5903614457831" y="0.0" type="line"/>
      <point x="490.5903614457831" y="535.1445783132531" type="line"/>
      <point x="437.2530120481928" y="535.1445783132531" type="line"/>
      <point x="114.10240963855422" y="55.40361445783133" type="line"/>
      <point x="140.04819277108433" y="55.40361445783133" type="line"/>
      <point x="140.04819277108433" y="535.1445783132531" type="line"/>
      <point x="84.10843373493977" y="535.1445783132531" type="line"/>
    </contour>
  </outline>
</glyph>
<glyph name="ka-cy" format="2">
  <advance width="511.1927710843373"/>
  <unicode hex="043A"/>
  <anchor x="443.31325301204816" y="0.0" name="bottomright"/>
  <anchor x="247.55421686746988" y="268.6867469879518" name="center"/>
  <anchor x="282.32530120481925" y="484.0" name="top"/>
  <outline>
    <contour>
      <point x="84.10843373493977" y="0.0" type="line"/>
      <point x="145.10843373493975" y="0.0" type="line"/>
      <point x="145.10843373493975" y="252.67469879518075" type="line"/>
      <point x="234.0120481927711" y="252.67469879518075" type="line" smooth="yes"/>
      <point x="290.66265060240966" y="252.67469879518075"/>
      <point x="314.63253012048193" y="233.93373493975903"/>
      <point x="350.3132530120482" y="169.0843373493976" type="curve" smooth="yes"/>
      <point x="441.1385542168675" y="0.0" type="line"/>
      <point x="506.2831325301205" y="0.0" type="line"/>
      <point x="409.1385542168675" y="180.37951807228916" type="line" smooth="yes"/>
      <point x="361.68674698795184" y="267.8012048192771"/>
      <point x="332.3975903614458" y="290.54819277108436"/>
      <point x="276.9698795180723" y="298.54819277108436" type="curve"/>
      <point x="298.83132530120486" y="280.2530120481928" type="line"/>
      <point x="480.4277108433735" y="535.1445783132531" type="line"/>
      <point x="412.9698795180723" y="535.1445783132531" type="line"/>
      <point x="245.63855421686748" y="302.6385542168675" type="line"/>
      <point x="145.10843373493975" y="302.6385542168675" type="line"/>
      <point x="145.10843373493975" y="535.1445783132531" type="line"/>
      <point x="84.10843373493977" y="535.1445783132531" type="line"/>
    </contour>
  </outline>
</glyph>
<glyph name="el-cy" format="2">
  <advance width="563.843373493976"/>
  <unicode hex="043B"/>
  <anchor x="420.7951807228916" y="0.0" name="bottomright"/>
  <outline>
    <contour>
      <point x="50.28915662650603" y="-10.144578313253012" type="line"/>
      <point x="163.24096385542168" y="46.04819277108434"/>
      <point x="203.04819277108433" y="150.45180722891567"/>
      <point x="203.04819277108433" y="413.8975903614458" type="curve" smooth="yes"/>
      <point x="203.04819277108433" y="484.95180722891564" type="line"/>
      <point x="418.73493975903614" y="484.95180722891564" type="line"/>
      <point x="418.73493975903614" y="0.0" type="line"/>
      <point x="479.73493975903614" y="0.0" type="line"/>
      <point x="479.73493975903614" y="535.1445783132531" type="line"/>
      <point x="145.10843373493975" y="535.1445783132531" type="line"/>
      <point x="145.10843373493975" y="415.5843373493976" type="line" smooth="yes"/>
      <point x="145.10843373493975" y="171.95180722891567"/>
      <point x="117.65060240963855" y="89.3855421686747"/>
      <point x="24.397590361445783" y="37.963855421686745" type="curve"/>
    </contour>
  </outline>
</glyph>
<glyph name="em-cy" format="2">
  <advance width="647.2168674698795"/>
  <unicode hex="043C"/>
  <anchor x="508.6265060240964" y="0.0" name="bottomright"/>
  <outline>
    <contour>
      <point x="84.10843373493977" y="0.0" type="line"/>
      <point x="138.59036144578312" y="0.0" type="line"/>
      <point x="138.59036144578312" y="461.5963855421687" type="line"/>
      <point x="117.67469879518072" y="461.5963855421687" type="line"/>
      <point x="306.7168674698795" y="85.6867469879518" type="line"/>
      <point x="340.6144578313253" y="85.6867469879518" type="line"/>
      <point x="530.4277108433736" y="461.5963855421687" type="line"/>
      <point x="508.6265060240964" y="461.5963855421687" type="line"/>
      <point x="508.6265060240964" y="0.0" type="line"/>
      <point x="563.1084337349398" y="0.0" type="line"/>
      <point x="563.1084337349398" y="535.1445783132531" type="line"/>
      <point x="512.3132530120482" y="535.1445783132531" type="line"/>
      <point x="323.72289156626505" y="155.3975903614458" type="line"/>
      <point x="136.01807228915663" y="535.1445783132531" type="line"/>
      <point x="84.10843373493977" y="535.1445783132531" type="line"/>
    </contour>
  </outline>
</glyph>
<glyph name="en-cy" format="2">
  <advance width="577.156626506024"/>
  <unicode hex="043D"/>
  <anchor x="434.10843373493975" y="0.0" name="bottomright"/>
  <outline>
    <contour>
      <point x="84.10843373493977" y="0.0" type="line"/>
      <point x="145.10843373493975" y="0.0" type="line"/>
      <point x="145.10843373493975" y="251.01807228915663" type="line"/>
      <point x="432.04819277108436" y="251.01807228915663" type="line"/>
      <point x="432.04819277108436" y="0.0" type="line"/>
      <point x="493.04819277108436" y="0.0" type="line"/>
      <point x="493.04819277108436" y="535.1445783132531" type="line"/>
      <point x="432.04819277108436" y="535.1445783132531" type="line"/>
      <point x="432.04819277108436" y="301.98192771084337" type="line"/>
      <point x="145.10843373493975" y="301.98192771084337" type="line"/>
      <point x="145.10843373493975" y="535.1445783132531" type="line"/>
      <point x="84.10843373493977" y="535.1445783132531" type="line"/>
    </contour>
  </outline>
</glyph>
<glyph name="ef-cy" format="2">
  <advance width="774.7710843373494"/>
  <unicode hex="0444"/>
  <outline>
    <contour>
      <point x="357.0" y="-180.0" type="line"/>
      <point x="418.0" y="-180.0" type="line"/>
      <point x="418.0" y="122.47590361445782" type="line"/>
      <point x="408.5421686746988" y="122.47590361445782" type="line"/>
      <point x="428.1144578313253" y="39.71084337349398"/>
      <point x="476.5722891566265" y="-8.457831325301205"/>
      <point x="548.3132530120482" y="-8.457831325301205" type="curve" smooth="yes"/>
      <point x="654.2289156626506" y="-8.457831325301205"/>
      <point x="721.289156626506" y="99.2289156626506"/>
      <point x="721.289156626506" y="267.6867469879518" type="curve" smooth="yes"/>
      <point x="721.289156626506" y="436.3734939759036"/>
      <point x="653.2289156626506" y="543.6024096385543"/>
      <point x="548.3132530120482" y="543.6024096385543" type="curve" smooth="yes"/>
      <point x="476.4578313253012" y="543.6024096385543"/>
      <point x="427.7710843373494" y="495.43373493975906"/>
      <point x="408.5421686746988" y="411.89759036144574" type="curve"/>
      <point x="418.0" y="411.89759036144574" type="line"/>
      <point x="418.0" y="705.0" type="line"/>
      <point x="357.0" y="705.0" type="line"/>
      <point x="357.0" y="411.89759036144574" type="line"/>
      <point x="366.2289156626506" y="411.89759036144574" type="line"/>
      <point x="347.0" y="495.43373493975906"/>
      <point x="298.5421686746988" y="543.6024096385543"/>
      <point x="226.4578313253012" y="543.6024096385543" type="curve" smooth="yes"/>
      <point x="120.7710843373494" y="543.6024096385543"/>
      <point x="53.48192771084337" y="436.3734939759036"/>
      <point x="53.48192771084337" y="267.6867469879518" type="curve" smooth="yes"/>
      <point x="53.48192771084337" y="99.2289156626506"/>
      <point x="121.5421686746988" y="-8.457831325301205"/>
      <point x="226.4578313253012" y="-8.457831325301205" type="curve" smooth="yes"/>
      <point x="298.42771084337346" y="-8.457831325301205"/>
      <point x="347.0" y="39.71084337349398"/>
      <point x="366.2289156626506" y="122.47590361445782" type="curve"/>
      <point x="357.0" y="122.47590361445782" type="line"/>
    </contour>
    <contour>
      <point x="236.35542168674698" y="42.704819277108435" type="curve" smooth="yes"/>
      <point x="160.73493975903614" y="42.704819277108435"/>
      <point x="114.48192771084337" y="121.09638554216868"/>
      <point x="114.48192771084337" y="267.6867469879518" type="curve" smooth="yes"/>
      <point x="114.48192771084337" y="410.73493975903614"/>
      <point x="161.84939759036143" y="492.5542168674699"/>
      <point x="236.46987951807228" y="492.5542168674699" type="curve" smooth="yes"/>
      <point x="311.8614457831325" y="492.5542168674699"/>
      <point x="358.2289156626506" y="410.73493975903614"/>
      <point x="358.2289156626506" y="267.6867469879518" type="curve" smooth="yes"/>
      <point x="358.2289156626506" y="121.09638554216868"/>
      <point x="311.8614457831325" y="42.704819277108435"/>
    </contour>
    <contour>
      <point x="537.6445783132531" y="42.704819277108435" type="curve" smooth="yes"/>
      <point x="462.1385542168675" y="42.704819277108435"/>
      <point x="416.7710843373494" y="121.09638554216868"/>
      <point x="416.7710843373494" y="267.6867469879518" type="curve" smooth="yes"/>
      <point x="416.7710843373494" y="410.73493975903614"/>
      <point x="462.9096385542169" y="492.5542168674699"/>
      <point x="537.5301204819277" y="492.5542168674699" type="curve" smooth="yes"/>
      <point x="613.0361445783133" y="492.5542168674699"/>
      <point x="660.289156626506" y="410.73493975903614"/>
      <point x="660.289156626506" y="267.6867469879518" type="curve" smooth="yes"/>
      <point x="660.289156626506" y="121.09638554216868"/>
      <point x="613.2650602409639" y="42.704819277108435"/>
    </contour>
  </outline>
</glyph>
<glyph name="che-cy" format="2">
  <advance width="541.6144578313254"/>
  <unicode hex="0447"/>
  <anchor x="398.56626506024094" y="0.0" name="bottomright"/>
  <anchor x="260.8072289156627" y="220.8855421686747" name="center"/>
  <anchor x="260.8072289156627" y="484.0" name="top"/>
  <outline>
    <contour>
      <point x="396.96385542168673" y="0.0" type="line"/>
      <point x="457.50602409638554" y="0.0" type="line"/>
      <point x="457.50602409638554" y="535.1445783132531" type="line"/>
      <point x="396.50602409638554" y="535.1445783132531" type="line"/>
      <point x="396.50602409638554" y="279.921686746988" type="line"/>
      <point x="357.3975903614458" y="251.8975903614458"/>
      <point x="319.3734939759036" y="241.04216867469881"/>
      <point x="265.6385542168675" y="241.04216867469881" type="curve" smooth="yes"/>
      <point x="167.13253012048193" y="241.04216867469881"/>
      <point x="124.33734939759036" y="285.5240963855422"/>
      <point x="124.33734939759036" y="386.7168674698795" type="curve" smooth="yes"/>
      <point x="124.33734939759036" y="535.1445783132531" type="line"/>
      <point x="63.33734939759036" y="535.1445783132531" type="line"/>
      <point x="63.33734939759036" y="383.4277108433735" type="line" smooth="yes"/>
      <point x="63.33734939759036" y="251.68072289156626"/>
      <point x="125.62650602409639" y="187.84939759036146"/>
      <point x="261.3734939759036" y="187.84939759036146" type="curve" smooth="yes"/>
      <point x="313.71084337349396" y="187.84939759036146"/>
      <point x="358.65060240963857" y="200.47590361445785"/>
      <point x="396.96385542168673" y="225.41566265060243" type="curve"/>
    </contour>
  </outline>
</glyph>
<glyph name="sha-cy" format="2">
  <advance width="784.1927710843373"/>
  <unicode hex="0448"/>
  <outline>
    <contour>
      <point x="84.10843373493977" y="0.0" type="line"/>
      <point x="700.0843373493976" y="0.0" type="line"/>
      <point x="700.0843373493976" y="535.1445783132531" type="line"/>
      <point x="640.6867469879518" y="535.1445783132531" type="line"/>
      <point x="640.6867469879518" y="50.19277108433735" type="line"/>
      <point x="421.7951807228916" y="50.19277108433735" type="line"/>
      <point x="421.7951807228916" y="535.1445783132531" type="line"/>
      <point x="362.3975903614458" y="535.1445783132531" type="line"/>
      <point x="362.3975903614458" y="50.19277108433735" type="line"/>
      <point x="143.50602409638554" y="50.19277108433735" type="line"/>
      <point x="143.50602409638554" y="535.1445783132531" type="line"/>
      <point x="84.10843373493977" y="535.1445783132531" type="line"/>
    </contour>
  </outline>
</glyph>
<glyph name="hardsign-cy" format="2">
  <advance width="606.0120481927711"/>
  <unicode hex="044A"/>
  <outline>
    <contour>
      <point x="160.48192771084337" y="0.0" type="line"/>
      <point x="368.8975903614458" y="0.0" type="line" smooth="yes"/>
      <point x="496.0421686746988" y="0.0"/>
      <point x="561.6746987951807" y="62.06024096385542"/>
      <point x="561.6746987951807" y="167.77710843373492" type="curve" smooth="yes"/>
      <point x="561.6746987951807" y="274.06626506024094"/>
      <point x="497.3012048192771" y="334.4096385542169"/>
      <point x="368.8975903614458" y="334.4096385542169" type="curve" smooth="yes"/>
      <point x="221.48192771084337" y="334.4096385542169" type="line"/>
      <point x="221.48192771084337" y="535.1445783132531" type="line"/>
      <point x="3.9156626506024095" y="535.1445783132531" type="line"/>
      <point x="3.9156626506024095" y="484.1807228915663" type="line"/>
      <point x="160.48192771084337" y="484.1807228915663" type="line"/>
    </contour>
    <contour>
      <point x="221.48192771084337" y="46.75903614457831" type="line"/>
      <point x="221.48192771084337" y="287.76506024096386" type="line"/>
      <point x="366.54819277108436" y="287.76506024096386" type="line" smooth="yes"/>
      <point x="454.3975903614458" y="287.76506024096386"/>
      <point x="501.1927710843373" y="249.16867469879517"/>
      <point x="501.1927710843373" y="167.43373493975903" type="curve" smooth="yes"/>
      <point x="501.1927710843373" y="85.58433734939759"/>
      <point x="454.0542168674699" y="46.75903614457831"/>
      <point x="366.54819277108436" y="46.75903614457831" type="curve" smooth="yes"/>
    </contour>
  </outline>
</glyph>
<glyph name="softsign-cy" format="2">
  <advance width="529.8674698795181"/>
  <unicode hex="044C"/>
  <outline>
    <contour>
      <point x="84.10843373493977" y="0.0" type="line"/>
      <point x="292.7530120481928" y="0.0" type="line" smooth="yes"/>
      <point x="419.8975903614458" y="0.0"/>
      <point x="485.5301204819277" y="62.06024096385542"/>
      <point x="485.5301204819277" y="167.77710843373492" type="curve" smooth="yes"/>
      <point x="485.5301204819277" y="274.06626506024094"/>
      <point x="420.92771084337346" y="334.4096385542169"/>
      <point x="292.7530120481928" y="334.4096385542169" type="curve" smooth="yes"/>
      <point x="145.10843373493975" y="334.4096385542169" type="line"/>
      <point x="145.10843373493975" y="535.1445783132531" type="line"/>
      <point x="84.10843373493977" y="535.1445783132531" type="line"/>
    </contour>
    <contour>
      <point x="145.10843373493975" y="46.75903614457831" type="line"/>
      <point x="145.10843373493975" y="287.76506024096386" type="line"/>
      <point x="290.40361445783134" y="287.76506024096386" type="line" smooth="yes"/>
      <point x="378.0240963855422" y="287.76506024096386"/>
      <point x="425.04819277108436" y="249.16867469879517"/>
      <point x="425.04819277108436" y="167.43373493975903" type="curve" smooth="yes"/>
      <point x="425.04819277108436" y="85.58433734939759"/>
      <point x="377.9096385542169" y="46.75903614457831"/>
      <point x="290.40361445783134" y="46.75903614457831" type="curve" smooth="yes"/>
    </contour>
  </outline>
</glyph>
<glyph name="ereversed-cy" format="2">
  <advance width="480.3855421686747"/>
  <unicode hex="044D"/>
  <anchor x="211.57831325301206" y="484.0" name="top"/>
  <outline>
    <contour>
      <point x="198.09036144578315" y="-8.457831325301205" type="curve" smooth="yes"/>
      <point x="332.0421686746988" y="-8.457831325301205"/>
      <point x="426.90361445783134" y="85.37349397590361"/>
      <point x="426.90361445783134" y="267.8012048192771" type="curve" smooth="yes"/>
      <point x="426.90361445783134" y="449.0"/>
      <point x="339.8975903614458" y="543.6024096385543"/>
      <point x="197.97590361445782" y="543.6024096385543" type="curve" smooth="yes"/>
      <point x="131.3734939759036" y="543.6024096385543"/>
      <point x="64.8855421686747" y="518.1746987951807"/>
      <point x="23.96987951807229" y="469.5481927710843" type="curve"/>
      <point x="51.746987951807235" y="427.3313253012048" type="line"/>
      <point x="89.40361445783132" y="473.69879518072287"/>
      <point x="143.8012048192771" y="492.355421686747"/>
      <point x="195.3433734939759" y="492.355421686747" type="curve" smooth="yes"/>
      <point x="304.84939759036143" y="492.355421686747"/>
      <point x="362.2469879518072" y="415.53614457831327"/>
      <point x="365.933734939759" y="284.7469879518072" type="curve"/>
      <point x="375.50602409638554" y="298.06626506024094" type="line"/>
      <point x="113.60240963855422" y="298.06626506024094" type="line"/>
      <point x="113.60240963855422" y="249.47590361445785" type="line"/>
      <point x="374.62048192771084" y="249.47590361445785" type="line"/>
      <point x="365.933734939759" y="261.71084337349396" type="line"/>
      <point x="364.3614457831325" y="115.63855421686746"/>
      <point x="298.6506024096385" y="42.78915662650603"/>
      <point x="195.3433734939759" y="42.78915662650603" type="curve" smooth="yes"/>
      <point x="137.7168674698795" y="42.78915662650603"/>
      <point x="88.51807228915663" y="64.98795180722891"/>
      <point x="50.86144578313253" y="108.6987951807229" type="curve"/>
      <point x="23.96987951807229" y="65.82530120481927" type="line"/>
      <point x="58.68674698795181" y="19.626506024096386"/>
      <point x="126.06024096385543" y="-8.457831325301205"/>
    </contour>
  </outline>
</glyph>
<glyph name="iu-cy" format="2">
  <advance width="747.3734939759036"/>
  <unicode hex="044E"/>
  <outline>
    <contour>
      <point x="470.10843373493975" y="-8.457831325301205" type="curve" smooth="yes"/>
      <point x="605.8012048192771" y="-8.457831325301205"/>
      <point x="693.8915662650602" y="89.57228915662651"/>
      <point x="693.8915662650602" y="267.6867469879518" type="curve" smooth="yes"/>
      <point x="693.8915662650602" y="446.5722891566265"/>
      <point x="605.8012048192771" y="543.6024096385543"/>
      <point x="470.10843373493975" y="543.6024096385543" type="curve" smooth="yes"/>
      <point x="344.39156626506025" y="543.6024096385543"/>
      <point x="259.7590361445783" y="459.433734939759"/>
      <point x="248.24096385542168" y="301.98192771084337" type="curve"/>
      <point x="143.65060240963857" y="301.98192771084337" type="line"/>
      <point x="143.65060240963857" y="535.0301204819277" type="line"/>
      <point x="84.10843373493977" y="535.0301204819277" type="line"/>
      <point x="84.10843373493977" y="0.0" type="line"/>
      <point x="143.65060240963857" y="0.0" type="line"/>
      <point x="143.65060240963857" y="251.90361445783134" type="line"/>
      <point x="247.24096385542168" y="251.90361445783134" type="line"/>
      <point x="253.44578313253012" y="83.02409638554217"/>
      <point x="340.62048192771084" y="-8.457831325301205"/>
    </contour>
    <contour>
      <point x="470.10843373493975" y="43.59036144578313" type="curve" smooth="yes"/>
      <point x="373.74698795180717" y="43.59036144578313"/>
      <point x="308.32530120481925" y="115.89759036144578"/>
      <point x="308.32530120481925" y="267.6867469879518" type="curve" smooth="yes"/>
      <point x="308.32530120481925" y="420.3614457831325"/>
      <point x="373.74698795180717" y="491.5542168674699"/>
      <point x="470.10843373493975" y="491.5542168674699" type="curve" smooth="yes"/>
      <point x="566.8132530120482" y="491.5542168674699"/>
      <point x="631.8915662650602" y="420.3614457831325"/>
      <point x="631.8915662650602" y="267.6867469879518" type="curve" smooth="yes"/>
      <point x="631.8915662650602" y="115.89759036144578"/>
      <point x="566.8132530120482" y="43.59036144578313"/>
    </contour>
  </outline>
</glyph>
<glyph name="ia-cy" format="2">
  <advance width="529.3855421686746"/>
  <unicode hex="044F"/>
  <outline>
    <contour>
      <point x="45.19277108433735" y="0.0" type="line"/>
      <point x="115.13855421686746" y="0.0" type="line"/>
      <point x="182.22289156626505" y="129.74096385542168" type="line" smooth="yes"/>
      <point x="209.27710843373495" y="181.07831325301206"/>
      <point x="245.64457831325302" y="215.78915662650604"/>
      <point x="305.6927710843373" y="215.78915662650604" type="curve" smooth="yes"/>
      <point x="386.33734939759034" y="215.78915662650604" type="line"/>
      <point x="386.33734939759034" y="0.0" type="line"/>
      <point x="445.27710843373495" y="0.0" type="line"/>
      <point x="445.27710843373495" y="535.1445783132531" type="line"/>
      <point x="241.91566265060243" y="535.1445783132531" type="line" smooth="yes"/>
      <point x="127.82530120481928" y="535.1445783132531"/>
      <point x="65.87951807228916" y="479.1144578313253"/>
      <point x="65.87951807228916" y="378.855421686747" type="curve" smooth="yes"/>
      <point x="65.87951807228916" y="276.0542168674699"/>
      <point x="134.99397590361448" y="221.25301204819277"/>
      <point x="240.1987951807229" y="221.25301204819277" type="curve"/>
      <point x="239.3132530120482" y="228.3975903614458" type="line"/>
      <point x="225.30722891566265" y="228.3975903614458" type="line" smooth="yes"/>
      <point x="186.62048192771084" y="228.3975903614458"/>
      <point x="148.04819277108436" y="198.16867469879517"/>
      <point x="123.04819277108433" y="150.59638554216866" type="curve" smooth="yes"/>
    </contour>
    <contour>
      <point x="248.95180722891564" y="263.3192771084337" type="line" smooth="yes"/>
      <point x="166.33132530120483" y="263.3192771084337"/>
      <point x="126.04819277108433" y="305.2590361445783"/>
      <point x="126.04819277108433" y="376.9096385542169" type="curve" smooth="yes"/>
      <point x="126.04819277108433" y="447.67469879518075"/>
      <point x="166.33132530120483" y="488.5"/>
      <point x="248.95180722891564" y="488.5" type="curve" smooth="yes"/>
      <point x="386.33734939759034" y="488.5" type="line"/>
      <point x="386.33734939759034" y="263.3192771084337" type="line"/>
    </contour>
  </outline>
</glyph>
<glyph name="dje-cy" format="2">
  <advance width="555.5451807228915"/>
  <unicode hex="0452"/>
  <outline>
    <contour>
      <point x="306.5542168674699" y="-185.4578313253012" type="line"/>
      <point x="446.3614457831325" y="-154.710843373494"/>
      <point x="486.27710843373495" y="-80.53614457831326"/>
      <point x="486.27710843373495" y="55.06024096385542" type="curve" smooth="yes"/>
      <point x="486.27710843373495" y="344.0481927710843" type="line" smooth="yes"/>
      <point x="486.27710843373495" y="475.87951807228916"/>
      <point x="428.96385542168673" y="539.0240963855422"/>
      <point x="312.84939759036143" y="539.0240963855422" type="curve" smooth="yes"/>
      <point x="229.22289156626508" y="539.0240963855422"/>
      <point x="158.82530120481928" y="493.3132530120482"/>
      <point x="133.68072289156626" y="414.8313253012048" type="curve"/>
      <point x="145.56626506024097" y="414.8313253012048" type="line"/>
      <point x="145.56626506024097" y="585.3313253012047" type="line"/>
      <point x="340.73493975903614" y="585.3313253012047" type="line"/>
      <point x="340.73493975903614" y="633.2349397590361" type="line"/>
      <point x="145.56626506024097" y="633.2349397590361" type="line"/>
      <point x="145.56626506024097" y="705.0" type="line"/>
      <point x="84.56626506024097" y="705.0" type="line"/>
      <point x="84.56626506024097" y="633.2349397590361" type="line"/>
      <point x="-8.831325301204819" y="633.2349397590361" type="line"/>
      <point x="-8.831325301204819" y="585.3313253012047" type="line"/>
      <point x="84.56626506024097" y="585.3313253012047" type="line"/>
      <point x="84.56626506024097" y="0.0" type="line"/>
      <point x="145.56626506024097" y="0.0" type="line"/>
      <point x="145.56626506024097" y="315.6506024096385" type="line" smooth="yes"/>
      <point x="145.56626506024097" y="420.09638554216866"/>
      <point x="208.9879518072289" y="486.51807228915663"/>
      <point x="305.12048192771084" y="486.51807228915663" type="curve" smooth="yes"/>
      <point x="388.2228915662651" y="486.51807228915663"/>
      <point x="425.27710843373495" y="442.7228915662651"/>
      <point x="425.27710843373495" y="338.7048192771084" type="curve" smooth="yes"/>
      <point x="425.27710843373495" y="52.28915662650602" type="line" smooth="yes"/>
      <point x="425.27710843373495" y="-57.33132530120482"/>
      <point x="400.421686746988" y="-111.09638554216868"/>
      <point x="290.9156626506024" y="-135.86746987951807" type="curve"/>
    </contour>
  </outline>
</glyph>
<glyph name="e-cy" format="2">
  <advance width="480.6144578313253"/>
  <unicode hex="0454"/>
  <outline>
    <contour>
      <point x="283.4096385542169" y="-8.457831325301205" type="curve" smooth="yes"/>
      <point x="350.1265060240964" y="-8.457831325301205"/>
      <point x="419.04216867469876" y="16.08433734939759"/>
      <point x="457.5301204819277" y="65.82530120481927" type="curve"/>
      <point x="429.7530120481928" y="108.6987951807229" type="line"/>
      <point x="391.21084337349396" y="62.33132530120482"/>
      <point x="337.355421686747" y="42.78915662650603"/>
      <point x="285.3855421686747" y="42.78915662650603" type="curve" smooth="yes"/>
      <point x="180.96385542168676" y="42.78915662650603"/>
      <point x="117.13855421686748" y="117.40963855421687"/>
      <point x="114.56626506024097" y="262.59638554216866" type="curve"/>
      <point x="104.87951807228914" y="249.47590361445785" type="line"/>
      <point x="367.0120481927711" y="249.47590361445785" type="line"/>
      <point x="367.0120481927711" y="298.06626506024094" type="line"/>
      <point x="105.76506024096385" y="298.06626506024094" type="line"/>
      <point x="114.56626506024097" y="285.63253012048193" type="line"/>
      <point x="118.25301204819277" y="416.421686746988"/>
      <point x="176.53614457831324" y="492.355421686747"/>
      <point x="285.3855421686747" y="492.355421686747" type="curve" smooth="yes"/>
      <point x="341.8975903614458" y="492.355421686747"/>
      <point x="392.86746987951807" y="471.04216867469876"/>
      <point x="429.7530120481928" y="426.4457831325301" type="curve"/>
      <point x="457.5301204819277" y="469.5481927710843" type="line"/>
      <point x="422.1566265060241" y="516.4036144578313"/>
      <point x="356.78313253012044" y="543.6024096385543"/>
      <point x="284.09638554216866" y="543.6024096385543" type="curve" smooth="yes"/>
      <point x="147.6867469879518" y="543.6024096385543"/>
      <point x="53.48192771084337" y="454.3132530120482"/>
      <point x="53.48192771084337" y="272.2289156626506" type="curve" smooth="yes"/>
      <point x="53.48192771084337" y="90.6867469879518"/>
      <point x="143.2590361445783" y="-8.457831325301205"/>
    </contour>
  </outline>
</glyph>
<glyph name="lje-cy" format="2">
  <advance width="863.8072289156627"/>
  <unicode hex="0459"/>
  <outline>
    <contour>
      <point x="50.28915662650603" y="-10.144578313253012" type="line"/>
      <point x="163.24096385542168" y="46.04819277108434"/>
      <point x="203.04819277108433" y="150.45180722891567"/>
      <point x="203.04819277108433" y="413.8975903614458" type="curve" smooth="yes"/>
      <point x="203.04819277108433" y="484.95180722891564" type="line"/>
      <point x="418.73493975903614" y="484.95180722891564" type="line"/>
      <point x="418.73493975903614" y="0.0" type="line"/>
      <point x="626.6927710843373" y="0.0" type="line" smooth="yes"/>
      <point x="753.8373493975904" y="0.0"/>
      <point x="819.4698795180723" y="62.06024096385542"/>
      <point x="819.4698795180723" y="167.77710843373492" type="curve" smooth="yes"/>
      <point x="819.4698795180723" y="274.06626506024094"/>
      <point x="754.8674698795181" y="334.4096385542169"/>
      <point x="626.6927710843373" y="334.4096385542169" type="curve" smooth="yes"/>
      <point x="479.04819277108436" y="334.4096385542169" type="line"/>
      <point x="479.04819277108436" y="535.1445783132531" type="line"/>
      <point x="145.10843373493975" y="535.1445783132531" type="line"/>
      <point x="145.10843373493975" y="415.5843373493976" type="line" smooth="yes"/>
      <point x="145.10843373493975" y="171.95180722891567"/>
      <point x="117.65060240963855" y="89.3855421686747"/>
      <point x="24.397590361445783" y="37.963855421686745" type="curve"/>
    </contour>
    <contour>
      <point x="479.04819277108436" y="46.75903614457831" type="line"/>
      <point x="479.04819277108436" y="287.76506024096386" type="line"/>
      <point x="624.3433734939758" y="287.76506024096386" type="line" smooth="yes"/>
      <point x="711.9638554216867" y="287.76506024096386"/>
      <point x="758.9879518072289" y="249.16867469879517"/>
      <point x="758.9879518072289" y="167.43373493975903" type="curve" smooth="yes"/>
      <point x="758.9879518072289" y="85.58433734939759"/>
      <point x="711.8493975903614" y="46.75903614457831"/>
      <point x="624.3433734939758" y="46.75903614457831" type="curve" smooth="yes"/>
    </contour>
  </outline>
</glyph>
<glyph name="nje-cy" format="2">
  <advance width="877.5783132530121"/>
  <unicode hex="045A"/>
  <outline>
    <contour>
      <point x="84.10843373493977" y="0.0" type="line"/>
      <point x="145.10843373493975" y="0.0" type="line"/>
      <point x="145.10843373493975" y="251.01807228915663" type="line"/>
      <point x="432.04819277108436" y="251.01807228915663" type="line"/>
      <point x="432.04819277108436" y="0.0" type="line"/>
      <point x="640.4638554216867" y="0.0" type="line" smooth="yes"/>
      <point x="767.6084337349398" y="0.0"/>
      <point x="833.2409638554217" y="62.06024096385542"/>
      <point x="833.2409638554217" y="167.77710843373492" type="curve" smooth="yes"/>
      <point x="833.2409638554217" y="274.06626506024094"/>
      <point x="768.8674698795181" y="334.4096385542169"/>
      <point x="640.4638554216867" y="334.4096385542169" type="curve" smooth="yes"/>
      <point x="493.04819277108436" y="334.4096385542169" type="line"/>
      <point x="493.04819277108436" y="535.1445783132531" type="line"/>
      <point x="432.04819277108436" y="535.1445783132531" type="line"/>
      <point x="432.04819277108436" y="301.98192771084337" type="line"/>
      <point x="145.10843373493975" y="301.98192771084337" type="line"/>
      <point x="145.10843373493975" y="535.1445783132531" type="line"/>
      <point x="84.10843373493977" y="535.1445783132531" type="line"/>
    </contour>
    <contour>
      <point x="493.04819277108436" y="46.75903614457831" type="line"/>
      <point x="493.04819277108436" y="287.76506024096386" type="line"/>
      <point x="638.1144578313252" y="287.76506024096386" type="line" smooth="yes"/>
      <point x="725.9638554216867" y="287.76506024096386"/>
      <point x="772.7590361445783" y="249.16867469879517"/>
      <point x="772.7590361445783" y="167.43373493975903" type="curve" smooth="yes"/>
      <point x="772.7590361445783" y="85.58433734939759"/>
      <point x="725.6204819277108" y="46.75903614457831"/>
      <point x="638.1144578313252" y="46.75903614457831" type="curve" smooth="yes"/>
    </contour>
  </outline>
</glyph>
